<svg id="レイヤー_1" data-name="レイヤー 1" xmlns="http://www.w3.org/2000/svg" viewBox="0 0 305.81 690.96"><defs><style>.cls-1{fill:#c1272d;}</style></defs><path class="cls-1" d="M479.77,287.31a4.22,4.22,0,0,0,2.79,1.29,7.54,7.54,0,0,1,4.85,2c.54.43,1.4,1.08,1.83,1.4a6.28,6.28,0,0,1,2.15,2.26,6.92,6.92,0,0,0,1.83,2.26,2.69,2.69,0,0,1,1.07,3.55,18,18,0,0,0-.53,2.26,4.38,4.38,0,0,1-.54,2.05,8.08,8.08,0,0,0-.76,3.55,3.86,3.86,0,0,0,.22,1.72c.11.32.32,1.07.54,1.83a9.84,9.84,0,0,1,.43,3.23,15.74,15.74,0,0,0,.11,2.69,12.86,12.86,0,0,1,.21,2.47,15.76,15.76,0,0,0,.54,4.2,2.89,2.89,0,0,1-.22,2,2.16,2.16,0,0,0,.22,1,3.84,3.84,0,0,0,.75,1.19,6.65,6.65,0,0,1,1.19,1.72,9.65,9.65,0,0,1-1.19-1.51c-.64-.86-1.07-1.51-1.18-1.4a3.71,3.71,0,0,0-.32,2.26,31.21,31.21,0,0,1,.1,5.38,15.55,15.55,0,0,0-.1,2.15,18,18,0,0,1,.1,2.26,4,4,0,0,1-.53,1.94c-.22.54-.54,1.18-.65,1.51a1.46,1.46,0,0,1-.75.86,6.82,6.82,0,0,0-1,.75l-.65.65c-.11.11-.43.32-.54.54a1.58,1.58,0,0,1-.53.64c-.22.11-.33.22-.33.32s-.43.22-1,.43-1.51.44-2.16.65c-1.29.43-1.61.43-2.26,0a2.94,2.94,0,0,1-1.18-1.72c-.11-.32-.32-.54-1.08-1.08a8.08,8.08,0,0,1-1.93-1.94c-.33-.43-.33-.43-.65-.21s-.21.11-.11.21.22.22,0,.44-.43.1-.64.1-.33,0-.43.11-.11.11-.22.11-.21,0-.21.11-.22.21-.43.21a1.34,1.34,0,0,0-.65.11,3,3,0,0,1-1.08.11,5.92,5.92,0,0,0-2.26.43c-.32.21-.64.86-.43,1.18s.11.22,0,.32a.59.59,0,0,0-.21.43,1.13,1.13,0,0,1-.22.54,2.4,2.4,0,0,0-.54.76,2,2,0,0,1-1.5,1.29,2,2,0,0,0-1.08.53l-.54.54.22.43a1.16,1.16,0,0,1,.11.54,6.61,6.61,0,0,1-2.16-1.4c-.43-.32-1.39-1.07-2-1.61s-1.61-1.29-2.15-1.83c-1.51-1.51-3.12-3.45-3.12-4,0-1,.1-1.4.32-1.62a2.92,2.92,0,0,0,.32-.64,1.11,1.11,0,0,1,.43-.54c.11-.11.22-.11.22-.22a19.82,19.82,0,0,1,.11-2,10.52,10.52,0,0,0,0-2.15c-1-2.05-1.51-4.84-1.62-8.83a32.87,32.87,0,0,1,.32-5.38,26.68,26.68,0,0,1,.87-4.95c.1-.32.1-.43,0-.54s0-.21.1-.32a14.46,14.46,0,0,0,.43-1.83,39.22,39.22,0,0,1,1.73-5.38c.1-.21.21-.54.32-.75s.21-.32.32-.32.75-.33.75-.44a11.73,11.73,0,0,1,.33,1.83,7.26,7.26,0,0,1-.11,1.3c-.11.53-.22.86-.11,1s.54-.1,1-.21a13.81,13.81,0,0,1,3.87-.54c1.83,0,2.27,0,8.08,1.83.1,0,.1-5.49,0-8.39a38.14,38.14,0,0,0-.44-6c0-.11-.21-.11-.53,0s-.43.11-.65,0a2.32,2.32,0,0,0-1.29,0l-1.08.11v.43c0,.64-.1.64-.53.43s-.33-.11-.54,0-.22.21-.43,0l-.22-.22-.75.76-.65-.33a10.84,10.84,0,0,1-2.47-1.61,6.94,6.94,0,0,0-1.08-1c-.43-.32-.43-.54-.11-.54s.33-.1,0-.53c-.1-.22-.21-.22-.21-.33s.32-.21.54-.32a12.52,12.52,0,0,0,2.69-2.26l1.5-1.51c.54-.53.76-.75.54-.64s-.1,0,.22-.22.54-.43.75-.64.32-.33,1-.33.86,0,.86-.86v-.32l.32.22c.22.21.33.21.86.21a2.68,2.68,0,0,0,1.62-.86,2.72,2.72,0,0,1,.75-.43A3.68,3.68,0,0,1,479.77,287.31ZM464.7,318.19c0,.11-.21,2-.43,3.44a10.23,10.23,0,0,1-.21,1.19c-.11.1-.11.53-.11.86a2.65,2.65,0,0,1-.11,1v.53c0,.11.11.33,0,.54a12.06,12.06,0,0,1-.22,1.51,4.05,4.05,0,0,1-.21,1.08.66.66,0,0,0,.11.75c.21.21.21.75,0,1.4a2.92,2.92,0,0,0,0,1.4,13.68,13.68,0,0,0,.75,3.22,8.19,8.19,0,0,0,1-2.15c.21-1,.43-1.83.43-1.93a9,9,0,0,1,.43-1.08,18.85,18.85,0,0,0,1.29-4.63c.22-1.07.54-2.69.75-3.66a18.05,18.05,0,0,0,.43-2.36c0-.54,0-.54-.21-.33s-.32.22-.32,0,0-.1-.11,0a9.45,9.45,0,0,1-2.58-.64C464.92,318.08,464.7,318,464.7,318.19Zm9.58,7c-.43,0-1.29.65-2.91,2.26a26.07,26.07,0,0,0-3.44,3.56c0,.21-.32.32-.43.43a8.26,8.26,0,0,0-.86,1c-.43.65-.76.76-.86.76s-.22.11-.33.43a6.08,6.08,0,0,1-.43,1,5.76,5.76,0,0,0-.64,2,.8.8,0,0,0,.32.75,4,4,0,0,1,.65.76c.32.64.43.75,4.41-1.19l3.76-1.83.22-.75a9.36,9.36,0,0,1,2.8-4.3,4.38,4.38,0,0,0,1.72-2.59.8.8,0,0,0-.32-.75,3.23,3.23,0,0,0-1.94-.75c-.54-.11-.86-.22-1-.43S474.6,325.18,474.28,325.18ZM529.7,273a7.29,7.29,0,0,1,3.76,2.26c.11.22.65.43,1.19.76s1.4.75,1.83,1.07c.86.54.86.54,1.29.43s.54-.1,1.18.22,1,.64,3.88,3.55c4.52,4.52,4.62,4.63,4,6-.22.43-.54,1-.65,1.18s-.11.43-.11,1.72.11,1.4-.21,1.72a9.71,9.71,0,0,0-.65.86c-.32.65-.32.65-.21,1.19a2.09,2.09,0,0,1-.22,2.15,11.85,11.85,0,0,1-1.07,1.4,3.86,3.86,0,0,0-1.19,2.26,23.78,23.78,0,0,1-.75,2.47c-.32,1.08-.65,2.16-.75,2.59s-.33,1.18-.54,1.93a14.62,14.62,0,0,0-.43,2.48,17.41,17.41,0,0,1-.22,2.37,45.17,45.17,0,0,0-.43,7.42,52.66,52.66,0,0,0,.86,10.87c.22.75.33,1.72.43,2.15a6.94,6.94,0,0,0,.22,1c.11.11.11.54.11.75a16.38,16.38,0,0,0,1.5,5.38c.76,1.51,1,2.48.54,3.34a2.51,2.51,0,0,0-.21,1.18c-.11.86-.11,1,.21,1.51a2.87,2.87,0,0,1,.43.86c.11.22.86,2.15,1.08,2.58.11.11.11.22,0,.22s-.22,0-.11.86a4.18,4.18,0,0,0,.86,1.72l.75,1.19.11,1.29a10.19,10.19,0,0,0,.11,1.93,1.79,1.79,0,0,1-.11,1.3c-.11.32-.43,1.07-.64,1.5a2.91,2.91,0,0,1-1.4,1.72c-.43.22-.43.22-.43.65,0,.21,0,.43-.11.43s0,.21,0,.32a1.92,1.92,0,0,1-.43,1.4,2.38,2.38,0,0,1-.75.65c-.65.43-1.83,1.5-2.69,2.15-.65.65-.86.65-1.08.43a.2.2,0,0,0-.32,0,4.67,4.67,0,0,1-.76.43c-.21.11-.64.54-1,.75s-.53.43-.64.43-.22.11-.32.22-.22.11-.11.21a.32.32,0,0,0,.43,0c.32-.21.32-.1-.11.33-.21.21-.43.43-.54.43s-.32.21-.43.32c-.21.32-.21.32-.43.11s-.32-.22-.43-.11a5.24,5.24,0,0,1-2.26.11c-.43-.11-.64,0-.75.43s-.43.43-1.18-.11a34.28,34.28,0,0,1-3.66-3.44,2.19,2.19,0,0,0-1.62-.86,6.32,6.32,0,0,1-3.23-2.16c-1.07-1.07-1.5-1.72-1.5-2.26,0-.21-.22-.43-.65-.75-.64-.54-2.58-2.26-5.59-5.27a14.07,14.07,0,0,1-2.59-3c-.32-.53-.53-1-.64-1a17,17,0,0,0-1.83,1.18c-2.26,1.72-2.26,1.61-.65-.22.54-.64,1.4-1.72,1.51-1.82l.64-.87-1-.75c-1.4-1.18-2.91-2.58-4.52-4.09a15.9,15.9,0,0,0-1.4-1.4c-.11,0-.33.54-.65,1.19a18.27,18.27,0,0,1-1,1.72,22.53,22.53,0,0,0-1.83,3.23c0,.1-.32.43-.86.75a13.9,13.9,0,0,0-3.87,4.74,4.21,4.21,0,0,1-2.15,2.36c-.43.22-.65.33-.76.54a6.27,6.27,0,0,1-1,1.08c-.43.43-1.08,1-1.51,1.4a7,7,0,0,1-1.61,1.07,12.48,12.48,0,0,0-1.83,1.19l-1,.75h-.76l-.75-.11-.86.65a12.3,12.3,0,0,0-1.18,1c-.43.43-1.4.75-1.62.53s-.32,0-.64,0a4.53,4.53,0,0,1-1.19.22,2.39,2.39,0,0,0-.86.32.26.26,0,0,1-.43.11c-.11,0-.21-.11-.32-.11s-.22,0-.22.22,0,.32-.11.32a.24.24,0,0,0-.21.22.24.24,0,0,1-.22.21,1.71,1.71,0,0,0-.64.43l-.43.43-.43-.11a9.1,9.1,0,0,1-1.4-1.29c-.75-.86-1-1-.86-1.07s.21-.65,0-.65-.11,0,.11-.11a.23.23,0,0,0,.21-.21c0-.11,0,0-.11,0s-.1,0-.1-.11.21-.11.32-.11.11-.32-.22-.86l-.32-.43.32-.11c.22,0,.43-.1.43-.21s.11-.11.22-.11.32-.21.11-.43.32-1.08,1.4-1.94a.58.58,0,0,0,.32-.43c0-.1,0-.21.11-.21a6.13,6.13,0,0,0,1.29-2.15,6,6,0,0,1,.54-1.51,13.79,13.79,0,0,0,.64-1.94c.22-.86.22-.64,0,.43a7.72,7.72,0,0,0-.21,3c0,.32,0,.64.1.53s.33.33.43.76a2.36,2.36,0,0,0,1.29,1.18c.54.11,1,.11.87-.11a3.43,3.43,0,0,1,1.29.65c.32.21.64.32.75.11s-.11-.33-.64-.44-1.51-.75-1.19-.75c.11,0,.11-.11.11-.21v-.33l.64.22c.33.11.65.32.54.32s-.1.33.43.54.65.21,1.72-.65a13.86,13.86,0,0,1,1.83-1.18,18.2,18.2,0,0,0,1.83-1.08,11.61,11.61,0,0,0,2.37-2.36c0-.11.22-.33.43-.43.65-.33.86-.76,1.19-1.83.43-1.51,1.07-2.26,3.22-4.09.54-.43,1.08-.86,1.19-1a4.75,4.75,0,0,0,.86-1.83,5.15,5.15,0,0,1,1.07-3,7.6,7.6,0,0,0,1.4-2.37c.11-.32.33-.65.33-.75s-.11-.43-1.19-1.73c-.75-.86-1.83-2.15-2.47-2.79s-1.19-1.29-1.08-1.4.43.43.86,1c1.4,1.72,3.88,4.3,4.09,4.19s0-.1-.43-.53c-1.18-1.3-2.37-2.59-2.91-3.23l-.53-.76.75.86c.54.54.75.65.75.54s.33,0,.76.54c.75.75,1.18.86.54.22a12.91,12.91,0,0,0-1-1.3c-.76-.86-.65-.86.75.65.86.86,1.51,1.51,1.61,1.4s0-.54-.43-1a7.28,7.28,0,0,0-.53-.75l.43.43c.32.32.53.54.64.43s0-.43-.54-1.08c-.75-.86-2.26-2.9-2.79-3.66l-.44-.64.44.54c.21.32.75,1,1.07,1.39a12.57,12.57,0,0,0,2.48,2.69.37.37,0,0,0,.11-.32,9.61,9.61,0,0,0-1.19-1.5,19.58,19.58,0,0,1-2.15-2.8c.21.21.86,1,1.51,1.72,1.29,1.51,2,2.26,2.25,2s-.1-.32-.53-.86a34.28,34.28,0,0,1-3.34-4.3c.11,0,.32.21.43.43a22.2,22.2,0,0,0,3,3.77c.32.1.1-.44-.76-1.4a14.51,14.51,0,0,1-1-1.08c0-.11.11,0,.22,0a2.29,2.29,0,0,1,.86.86l.43.43a3.24,3.24,0,0,1,.64.65c.22.32.44.54.54.54s.11-.11.22-.33a12.32,12.32,0,0,1,1.18-2.37c.22-.32.32-.32.43-.32a.23.23,0,0,0,.22-.21,23,23,0,0,0,.54-3.88c.1-1.07.21-2.69.21-3.66.22-3.65.11-17.86-.21-21.2a34.86,34.86,0,0,0-1.3-6.34c-.75-2.8-1.29-4.09-1.61-4.31-.11-.11-.43,0-.75.11a4.55,4.55,0,0,1-2.37.32,4.09,4.09,0,0,1-2.15-1.07c-.22-.33-.22-.76,0-.87s.11-.1.11-.21.21-.22.32-.32a.6.6,0,0,0,.32-.43c0-.11.32-.43.65-.76s.53-.54.53-.64.11-.22.33-.22a1.34,1.34,0,0,0,.54-.54c.21-.32.43-.53,1.5-1.07.75-.33,1.72-.76,2.05-.86.75-.22,1.61-.33,1.72-.11a1.13,1.13,0,0,0,.54.32,6.86,6.86,0,0,1,1.07.65,12.66,12.66,0,0,0,2.69,1.07l.54.22.43-.65a33.63,33.63,0,0,1,5.92-6.45,44.24,44.24,0,0,1,6.46-4.2l1.72-.86,1.61-.11h1.72l.65-.54c.32-.21.65-.43.65-.53S528.84,272.78,529.7,273Zm-34.22,60.48c.21.11.53.54.43.54s-.22-.11-.32-.32S495.37,333.36,495.48,333.47Zm1.07-5.38c.11,0,.11,0,.11.11a1.63,1.63,0,0,0,.43.64c.22.22.54.43.43.54s-.21-.11-.32-.21-.32-.43-.54-.65a1,1,0,0,1-.32-.54C496.34,327.87,496.45,328.09,496.55,328.09Zm1.51,1.83c.11.11.22.32.32.43s.11.11,0,.21-.32-.1-.54-.53S497.84,329.6,498.06,329.92Zm8.29,13.67a22.26,22.26,0,0,0-2.37-2.26,22.44,22.44,0,0,0,2.58,3.22,36.67,36.67,0,0,0,3.88,3.34c.32.22.53.22.53,0a3.19,3.19,0,0,0-1.07-1C509.25,346.38,507.64,344.88,506.35,343.59Zm.1-.76a19.11,19.11,0,0,0-2.15-2c0,.21.43.64,2.48,2.69a41.4,41.4,0,0,0,4.41,4.09c.21,0,0-.22-1.29-1.4C509.14,345.52,507.64,344,506.45,342.83Zm-1.29-2.15a46.49,46.49,0,0,0,3.34,3.87,25.68,25.68,0,0,0,2.69,2.16c.54.32-.54-.86-1.51-1.72a52.61,52.61,0,0,1-4.09-4.09C504.73,339.93,504.41,339.71,505.16,340.68Zm1.62.65-1-1,.54.75a10.73,10.73,0,0,1,.75,1.18.58.58,0,0,0,.54.33,6.1,6.1,0,0,1,1.4,1.18c.43.43,1,1.08.54.54a5,5,0,0,1-.65-.86c0-.11-.22-.32-.43-.43a3.38,3.38,0,0,1-.65-.54A7.23,7.23,0,0,0,506.78,341.33Zm-.22-4.85-.21-.32-.11.43c-.11.22-.11.43-.22.54a1.76,1.76,0,0,0,.43,2,5,5,0,0,1,.76.76c.1.1.21.21.32.21s.11,0,.11.11a1.82,1.82,0,0,0,.54.75c.32.33,1.18,1.19,1.93,1.83s1.4,1.4,1.72,1.62.54.32.54.43,0,.11.11.11a9.53,9.53,0,0,0,1.72-2.7,12,12,0,0,0,.86-3.22c.11-1,0-1-.75-.86-.32.1-.54.1-.65,0a10.35,10.35,0,0,0-2.69-.11c-2.9,0-3.12-.11-3.87-1A2.82,2.82,0,0,1,506.56,336.48Zm.11,4.31c0,.11.11.11.21.21C506.78,340.79,506.67,340.68,506.67,340.79Zm.64.54c-.21,0,.33.53,1,1.18,1.08,1,1.08,1,.33.21-.54-.53-.86-1-.76-1s.11-.11-.1-.22A.81.81,0,0,0,507.31,341.33Zm3.13,3.12c-.54-.43-.65-.43-.54-.33a10.47,10.47,0,0,0,1.93,1.73c.33.21.33.1-.1-.22A10.66,10.66,0,0,1,510.44,344.45ZM513,311.84l-.54-.21v.53a3.58,3.58,0,0,1-.11,1.08,2,2,0,0,0-.1.65,12.68,12.68,0,0,1-.54,2.9,5.29,5.29,0,0,0-.22,2.15c0,1.19-.11,1.4-.32,1.73a2.1,2.1,0,0,0-.22.64,8.16,8.16,0,0,1-.21,1.08,7.1,7.1,0,0,0-.32,1.29,3.54,3.54,0,0,1-.11,1.07.88.88,0,0,0,0,.76,40.2,40.2,0,0,0,4.3-4.84,20.58,20.58,0,0,0,2.91-5.28,9.07,9.07,0,0,0,.64-2.47c-.1-.11-.32,0-.64,0a6.27,6.27,0,0,1-.76-.11c-.1,0-.21-.11-.32,0s-.21.11-.21,0-.22-.22-.43-.32a2.31,2.31,0,0,1-.54-.33c-.22-.21-.22-.21-.54.11l-.32.32-.43-.21A8.43,8.43,0,0,0,513,311.84Zm-2.15,39c-.22,0-.22,0-.11.1a12,12,0,0,1,.75,1.19A6,6,0,0,0,513,354c.64.43.75.33.1-.21a10.19,10.19,0,0,1-1.61-2.26c-.11-.22-.11-.32,0-.11,1,1.51,2.48,2.8,2.48,2.15a16.3,16.3,0,0,0-2.69-2.69c-.11,0-.11.11-.22,0S511,350.8,510.87,350.8Zm11.51-70.49a1.65,1.65,0,0,0-1.29.11c-.43.21-.75.32-2.91.21a4,4,0,0,0-2.15.54c-.43.22-.54.43-.64,1s0,.54-1.51,2a17,17,0,0,0-3.12,3.77,3.62,3.62,0,0,0,.11,1c.1.21.1.65.21,1,.43,2.15.65,2.9.75,3.66a8.1,8.1,0,0,0,.22,1.61,5.16,5.16,0,0,1,.11,1.18,2.86,2.86,0,0,0,0,1,7.05,7.05,0,0,1,.11,1.62,1.82,1.82,0,0,0,.21,1c.11.1.32,0,.86-.43a11.58,11.58,0,0,1,6.24-2.26,10.64,10.64,0,0,1,3.12.53,3.49,3.49,0,0,1,1.4.76c.76.64,2.26,1.5,2.37,1.29a15,15,0,0,0,.32-3.66,50.26,50.26,0,0,1,.54-6.13,5.56,5.56,0,0,0,.22-1.51,17.86,17.86,0,0,1,.1-2.26,7,7,0,0,0,0-2.15,6.13,6.13,0,0,0-1-2.59,5.07,5.07,0,0,0-2.05-1,4.52,4.52,0,0,1-.54-.11.79.79,0,0,0-.54-.11Zm-9.79,69.09a8.45,8.45,0,0,0,2.15,1.4c.11-.11-.11-.11-.22-.22a7.48,7.48,0,0,0-1.18-.86C512.27,349,511.94,348.75,512.59,349.4Zm12.7-32.82a6.1,6.1,0,0,0-1.62.32c-.21.11-.32.11-.64,0a2.2,2.2,0,0,0-2.16.43.76.76,0,0,1-.64.32c-.22,0-.43.11-2.05,1.62-1,.86-2.15,2.15-2.79,2.79s-1.51,1.73-2,2.26c-.64.76-.64.86-.54.76a11.33,11.33,0,0,1,3.23-1,7.83,7.83,0,0,1,4.31.43c.32.21.32.21.53,0l.22-.22,1.18.65a29.28,29.28,0,0,1,4.84,3c.65.43,1.08,1,1.19.86a14.67,14.67,0,0,0-.43-2.79c-.11-.65-.32-1.62-.43-2.16a6.85,6.85,0,0,0-.33-1.4,4.33,4.33,0,0,1-.1-1.29,32.83,32.83,0,0,0-.65-4.09c0-.1-.21-.21-.43-.32A2.12,2.12,0,0,0,525.29,316.58ZM528,335.41c-.11,0-.22,0-.22.11s0,.21-.21.21-.33,0-.44.22-.21.21-.21,0,0-.22-1,.43a4.46,4.46,0,0,1-1.18.75c-.11,0-.22.21-.33.43-.21.43-.75,1-1,1A9,9,0,0,0,522,340a39,39,0,0,1-3.44,2.59,2,2,0,0,1-.76.32c-.32,0-1.07.65-2.36,1.94l-1.19,1.18.22.22c.21.1.32.21.32.32s.32.32.65.54a10.76,10.76,0,0,0,1.07.75,12.24,12.24,0,0,0,1.83,1.29,6.09,6.09,0,0,1,1,.86c1,1,1.29,1.08,1.83.65.32-.22.54-.32,2.47-.32,1.19,0,2.37-.11,2.48-.11s.43-.22.65-.43a7.25,7.25,0,0,1,1-.65,4.84,4.84,0,0,0,1.62-1.72,3.69,3.69,0,0,0,.43-1.08c.21-.75.21-1,.11-1.18a1.73,1.73,0,0,1-.22-.54,11.49,11.49,0,0,0-.43-1.5,3.81,3.81,0,0,1-.22-3,5.49,5.49,0,0,0-.43-4.09C528.3,335.62,528.19,335.41,528,335.41Z" transform="translate(-258 -272.77)"/><path class="cls-1" d="M498.39,368.22c.32.21.64.32.64.43a6.22,6.22,0,0,0,1.72.86,6.29,6.29,0,0,1,2.48,2.15.24.24,0,0,1-.22.22c-.21,0-.1.21.22.32l.32.11-.32.1c-.22.11-.22.22-.11.22a.37.37,0,0,0,.32-.11c.11-.11.11-.11.22.22a7.27,7.27,0,0,1,.32.86,7.59,7.59,0,0,0,.86,1.83,5,5,0,0,1,.76,1.29,3.75,3.75,0,0,1-.33,3.34,4.38,4.38,0,0,0-.43,1.39,2.53,2.53,0,0,1-.32,1,2.12,2.12,0,0,0-.32,1.4c.1.54.1.65,0,.76a.87.87,0,0,0-.22.64c0,.43,0,.43.22.32s.21-.1.21.11-.11.32-.32.43-.22.22-.22.32a7.72,7.72,0,0,1-.21.87c-.32.86-.22,1.29.32,1.5a5.7,5.7,0,0,0,1.94,0c.21,0,.43-.21.64-.64l.33-.54h.75c.65,0,.75,0,1.94-.65a6,6,0,0,1,2-.75,5.7,5.7,0,0,1,4.09.86c.43.22,1.08.65,1.62.86a10.18,10.18,0,0,1,1.61,1,13.58,13.58,0,0,1,1.83,2.15c-.11,0-.22.22-.32.75v1.08c0,.22-.11.32-.22.32s-.11.11,0,.54v.43l-.54.33a2.64,2.64,0,0,0-1.4,1.61,4.35,4.35,0,0,1-.86,1.4c-.1,0-.32.43-.32.75s-.11.32-.75.54a8.46,8.46,0,0,1-1,.22,3.42,3.42,0,0,0-.65.32,5.26,5.26,0,0,1-1.29.32,1.57,1.57,0,0,0-1.18.32c-.33.22-.43.22-1.4.22a4.25,4.25,0,0,0-1.51.21c-.21.11-.32.22-.43.11-.32-.32-1.94,0-2.47.65a.72.72,0,0,1-.65.21,1.32,1.32,0,0,0-.64.11,3.53,3.53,0,0,0-1,2,10.36,10.36,0,0,1-.43,1.3c-.11.32-.33,1-.54,1.5a6.9,6.9,0,0,1-.54,1.19c-.11.1-.11.43-.11,1a15,15,0,0,1-.21,1.82,17.67,17.67,0,0,0-.54,3.45v1.4c0,.54,0,.64,1,1.61a3.41,3.41,0,0,0,2.8,1.4c1.07.11,1.18.21,2.26,1.83.53.86.53,1,.53,1.51a3.08,3.08,0,0,0,.22,1.07,5.37,5.37,0,0,1,.11,2.26c-.11.43-.11.43.43,1.08a6.33,6.33,0,0,1,.86,1.4,14.78,14.78,0,0,0,.86,1.4c1.07,1.18,1.72,2.15,1.61,2.79a4,4,0,0,1-.64,1.83,5.12,5.12,0,0,0-.54,1.08c-.11.32-.32.86-.43,1.08a8.17,8.17,0,0,0-.43,1,2.56,2.56,0,0,1-1.29,1.51,8.1,8.1,0,0,0-2.37,2.37,41.71,41.71,0,0,1-2.91,4.09,15.28,15.28,0,0,1-2.47,2.69,7.36,7.36,0,0,0-1.83,2.36c-.22.44-.86.87-2.91,1.94-1.29.65-1.61.86-1.83,1.19s-.64.64-1.72,1.07a16.87,16.87,0,0,0-2.47,1.29,3.28,3.28,0,0,1-1.62.65,6.09,6.09,0,0,0-2.47,1,3.6,3.6,0,0,1-1.29.64,21,21,0,0,0-2.05,1.08,4.07,4.07,0,0,1-2.15,1c-1.29.21-8.18,2-9.58,2.47a16.21,16.21,0,0,1-2.9.76c-.76.21-1.83.43-2.37.53a5.54,5.54,0,0,1-1.94.22h-1.5q-.33.17-.33,0a11.05,11.05,0,0,1,2.48-.54,33.88,33.88,0,0,0,7.32-2,11.14,11.14,0,0,1,1.18-.43c.32-.11.86-.33,1.18-.43a4.68,4.68,0,0,1,.86-.33,51.08,51.08,0,0,0,6-2.47,18.38,18.38,0,0,0,4.52-3.66c2.15-2.15,3.34-4,5.17-7.75a43.43,43.43,0,0,0,2.26-5.38,1.5,1.5,0,0,1,.21-.65,8,8,0,0,0,.75-2.58,15.47,15.47,0,0,1,.43-2.47c.22-.86.54-2.16.76-2.91s.43-1.51.53-1.83.22-1.18.33-1.83l.21-1.29L496,425c-.32-.86-1.08-2.37-1.51-3.34a34,34,0,0,1-2.37-7.32,1.82,1.82,0,0,1,.11-1.29c.33-.64.33-.75.11-.75s-.22-.22-.22-.75a1.55,1.55,0,0,0-.32-1.19,1.33,1.33,0,0,1-.32-1,8.42,8.42,0,0,0-.54-2.36,6.53,6.53,0,0,0-2.58.64,16.56,16.56,0,0,1-1.62.65,2.7,2.7,0,0,0-1.5,1.07c-.33.54-.43.65-1.29.86a4.43,4.43,0,0,0-2.59,2.26c-.21.54-.54.76-1.61,1.4-.43.33-1.18.76-1.62,1.08a5.32,5.32,0,0,0-1.72,2.26c0,.21-.1.43-.21.43s-.33.32-.54.64a3.85,3.85,0,0,1-.86,1,2.32,2.32,0,0,0-.65.76,6.12,6.12,0,0,1-1,1.18,2.25,2.25,0,0,0-.64,1c0,.21-.22.32-.65.54a1.77,1.77,0,0,0-.75,1,15.58,15.58,0,0,1-.86,2,2.31,2.31,0,0,0-.43.54,3.29,3.29,0,0,1-.54.64c-.43.43-.54.86-.54,2.59s0,2.26.43,2.79c.33.33.43.54.33.87a1.43,1.43,0,0,1-.43.75,1.2,1.2,0,0,0-.33,1.29c.11.11.11.43.11.65s.11.32.11.43.11.1,0,.43a3.2,3.2,0,0,0,.32,2.79,3.51,3.51,0,0,1,.54,1.94,3.58,3.58,0,0,0,.43,1.72.49.49,0,0,1,.11.54,2.74,2.74,0,0,1-1.83,2.05c-.65.21-.76.32-.76.86a2,2,0,0,0,.22.75l.21.32-.53.33a3,3,0,0,1-2.37,0,11.63,11.63,0,0,1-2.15-1.19,3.21,3.21,0,0,0-.76-.43,5.35,5.35,0,0,1-.75-.54,19.81,19.81,0,0,0-2.26-1.72,28.07,28.07,0,0,1-3.55-3,24.84,24.84,0,0,1-2-2.15,2.5,2.5,0,0,1-.22-1.19,3.86,3.86,0,0,0-.43-1.83l-.32-.86v-1.93a16.15,16.15,0,0,1,.21-2.8c.11-.43.11-1.4.22-2.15s.1-1.94.21-2.48a13.36,13.36,0,0,0,.22-1.61c0-1.19.11-2.26.11-3.12a6.06,6.06,0,0,1,.1-1.4,11.74,11.74,0,0,0,.43-3.23,5.29,5.29,0,0,1,.11-1.62.62.62,0,0,0,.11-.43c0-.1.11-.75.21-1.29a16.12,16.12,0,0,0,.33-1.83c.1-.43.21-1.18.32-1.5a4.15,4.15,0,0,0,.21-.76v-.21a14,14,0,0,0,.43-1.83c.11-.54.11-1,.22-1s.11-.11.11-.32a4.66,4.66,0,0,1,.32-1.4,4.63,4.63,0,0,0,.32-1.19,5.07,5.07,0,0,1,.22-.86c.21-.64.86-3.12,1.61-6.24.22-1,.54-2.15.65-2.69s.43-1.29.54-1.72a17.4,17.4,0,0,1,2.15-5.27c.64-1,2-2.37,2.26-2.26s.32-.11.43-.43c.21-.54.75-1.08,1-1s.43.11.64.11c1.08,0,1.51.32,3.12,1.93a3,3,0,0,1,1,1.4,1.24,1.24,0,0,1-.21,1.4c-.22.22-.22.22.1.86.76,1.62.86,3.55.22,3.55s-.65.11-.65.22c0,.32,0,.32-.32.21a2.76,2.76,0,0,0-1.72.76,7.16,7.16,0,0,0-1.19,1.5c-.43.65-1,1.62-1.39,2.16a17,17,0,0,0-1.73,2.69,6.63,6.63,0,0,1-.53,1.29,11.24,11.24,0,0,0-.65,1.83c-.43,1.29-.43,1.83,0,2.26l.22.32-.22.54a4.73,4.73,0,0,0-.32,1,2.55,2.55,0,0,1-.65,1.29,1.73,1.73,0,0,0-.21.86,2.59,2.59,0,0,1-.33,1,5.7,5.7,0,0,0-.32,1.93,1.33,1.33,0,0,1-.21.76.78.78,0,0,0-.22.43c0,.1-.21.21-.43.43s-.32.32-.32.64.11.33-.11.43a5.13,5.13,0,0,0-1.29,2.05c-.11.43-.11.43,0,.75a.84.84,0,0,1-.11,1.08c-.21.21-.32.43-.43,1.18a11.67,11.67,0,0,0,0,2.8v1.18l.43.43a1.53,1.53,0,0,1,.54.86c.32,1.08.75,1.4,2.69,2.26,1.4.54,1.61.54,2.15-.1a11.78,11.78,0,0,1,1.19-1.29c.43-.44,1.07-1.08,1.4-1.51s1.72-1.94,2.9-3.34,3.23-3.76,4.52-5.16,2.37-2.69,2.47-2.8a.81.81,0,0,0,.22-.43c0-.11.32-.32.54-.54a9.65,9.65,0,0,0,1-1.08l2.47-2.47,2.58-2.58a4,4,0,0,1,.86-.76c.11,0,.22-.1.44-.21.53-.32,4.41-4.2,5.59-5.49l1-1.18-.11-4.09c-.11-2.26-.11-5.6-.11-7.43l.11-3.33-.32-.54a8.47,8.47,0,0,0-1.4-2.05c-.22-.21-.22-.21-.43-.21-.43.11-.75-.32-.75-.86v-.65a3.33,3.33,0,0,1,.64-1.83,1.59,1.59,0,0,0,.32-.64.78.78,0,0,1,.22-.43c.54-.65.75-.76,1.08-1.19s.32-.54.1-.75,0-.22.22-.32.21,0,.11-.11-.11-.43.43-1c.32-.32.64-.65.86-.65s.54-.21.21-.21-.1-.65.11-.86.32-.32.32-.43.11-.11.22,0,.32.21.32,0,.11-.22.22-.33.21-.32.1-.32,0-.32.44-.75a1,1,0,0,1,.86-.32,1.63,1.63,0,0,0,1.18-.33,3.14,3.14,0,0,1,.86-.43A3.56,3.56,0,0,1,498.39,368.22Zm-5.92,1c-.11-.11.11-.11.11-.22C492.58,369.08,492.58,369.29,492.47,369.19Zm.32.21c.11.11,0,.11-.11.11s-.1.11-.1,0S492.68,369.29,492.79,369.4Z" transform="translate(-258 -272.77)"/><path class="cls-1" d="M519.35,443.76l.32.21c.21.11.32,0,.32-.1.11-.43,1.51.53,2.59,1.61a27.61,27.61,0,0,1,4.08,4.95c.22.54.65,1.18.76,1.51a15.61,15.61,0,0,1,1.07,2.26,4.27,4.27,0,0,1,.43,1.61,2.26,2.26,0,0,0,.86,1.72c.22.22.54.43.65.54a5,5,0,0,0,.75.43c.22.11.54.43.76.54a10.77,10.77,0,0,1,1,.54c.43.21.75.53.75.64s.21.33,1.61,1c.33.11,1.51,1.4,1.4,1.51s.11.32.32.64.43.43.43.54a1.93,1.93,0,0,0,.54.75,4.36,4.36,0,0,1,1.19,2.16,1.46,1.46,0,0,0,.21.64.82.82,0,0,1,.11.43,2.27,2.27,0,0,1-.86,1.19,2.8,2.8,0,0,1-1.29,0c-.11-.11-.22,0-.43.21s-.65.54-.86.43a1.89,1.89,0,0,0-.76.33c-.54.32-.54.32-.64.1s-.22-.21-.54,0-.54.22-.54.11-.43-.11-.54.11-.1,0-.21,0-.11,0,0-.11a.38.38,0,0,0,.11-.32c0-.11,0-.11-.22.11s-.65.32-.75,0-.22-.22-.43-.11-.54.11-.65,0a.81.81,0,0,0-.43-.22c-.11,0-.43-.21-.75-.32a1.82,1.82,0,0,0-.76-.32.39.39,0,0,1-.32-.11c-.54-.32-1.18-.65-1.51-.86l-.64-.32-.22.43a27.39,27.39,0,0,0-1.18,4.52c-.11.64-.22,1.29-.22,1.39v.44c.11.21,1.29.1,2.59-.22a7.25,7.25,0,0,1,1.93-.22,2.3,2.3,0,0,1,1.08.22.81.81,0,0,0,.43.22,3,3,0,0,1,1,.53l1.51,1.19a17.12,17.12,0,0,1,3.33,3.44c.75,1.08.86,1.29.65,1.4s0,.11,0,.21-.11.22-.22.33-.32,1-.11,1.07.11.22,0,.43a1.65,1.65,0,0,0-.21.65c0,.11.11.32,0,.43s-.11.11-.11,0,0-.11-.11-.11-.1.11-.1,0-.76-.1-1.08.22c-.21.1-.43.32-.54.32h-.32c-.11,0-.43.43-.86.75a3.59,3.59,0,0,0-1.08,1.4c-.43.76-1.29,1.72-1.72,1.72a4.68,4.68,0,0,0-1.18,1.3c-.54.75-1.29,1.72-1.73,2.26a8.67,8.67,0,0,0-1.29,1.61,8.31,8.31,0,0,1-2.36,2.37c-.43.32-.76.54-.76.64a2.71,2.71,0,0,1-.32.86l-.43.76.11,1.83a7.93,7.93,0,0,0,1.83,5.27c.32.32.43.54.43.64a2.72,2.72,0,0,0,.43.76c.32.54.32.54.32,1.4a10.85,10.85,0,0,0,.11,1.83,3.7,3.7,0,0,0,.64,1.83,20.35,20.35,0,0,1,2.16,4.3c-.11.11-.11.22,0,.43a1.23,1.23,0,0,1,0,.86,4.21,4.21,0,0,0-.22.76,1.67,1.67,0,0,1-.86,1.18,7.12,7.12,0,0,0-1.83,1.61c0,.22.43.33.54.22s.11,0,.11.21-.11.43-.22.43-.43.33-.75.87-.43.53-.65.53c-.43,0-1.07.65-1.5,1.4a7.76,7.76,0,0,1-1.3,1.72,3.37,3.37,0,0,0-.53.65,3.4,3.4,0,0,1-.33.64c-.1.11,0,.22,1.08.87a84.89,84.89,0,0,0,8.5,4.52,18.11,18.11,0,0,0,4.52,1.5c1.94.22,2,.22,2.26,0s.43-.32.43-.43a8.21,8.21,0,0,1,.75-.54c.65-.43.76-.43,1.08-.43a1.81,1.81,0,0,1,.65.33,2.79,2.79,0,0,0,.75.32c2,.64,5.7,2.8,5.7,3.55a1.13,1.13,0,0,0,.22.54.38.38,0,0,1,.11.32c0,.11,0,.22.1.22s.11.1.11.21a.63.63,0,0,0,.11.43c.11.22.11.22,0,.54a1.2,1.2,0,0,1-1.08.65.83.83,0,0,0-.54.21,7.39,7.39,0,0,1-.86.65l-.64.43h-2.48a38.48,38.48,0,0,1-6.78-.43,26.2,26.2,0,0,1-7.64-2.26c-3.66-1.4-4.63-1.73-6.56-2.37a29.46,29.46,0,0,1-3.66-1.62l-2.26-1.18-1,.11c-.86.11-.86.11-1.29-.11-.75-.43-1-.43-1.61.11a16.64,16.64,0,0,1-4.52,2.69,12.37,12.37,0,0,1-3.45.86,3.71,3.71,0,0,0-1.72.54,4.87,4.87,0,0,1-2.47.64,4.66,4.66,0,0,0-1.62.22c-.43.11-.75.11-2.69-.54a8.08,8.08,0,0,0-2-.43c-.54.22-.65.11-1.4-.65a3.16,3.16,0,0,0-1-.75,1,1,0,0,1-.54-.32c-.21-.22-.32-.32-.43-.32a5.54,5.54,0,0,1-2.26-1.62,2.23,2.23,0,0,1-.86-1.4,2.94,2.94,0,0,1-.11-.86c.11-.21.65-1.5,1-2.15a37.33,37.33,0,0,0,1.29-5.17,5.13,5.13,0,0,0,0-2.58,6.17,6.17,0,0,1-.21-1.5,3.63,3.63,0,0,0-.11-1.19,13,13,0,0,1,.11-1.61,19.67,19.67,0,0,1,.64-3.23,3.23,3.23,0,0,1,.43-.86,3.38,3.38,0,0,0,.54-.65,9.39,9.39,0,0,1,.75-1,1.61,1.61,0,0,0,.33-.64c0-.22,0-.22.21-.22.54,0,1.4-.75,1.4-1.18,0-.11.22-.32.43-.43,1.08-.65,1.29-.86,1.29-1s.65-.54,1.08-.54a3.7,3.7,0,0,1,1.72.65c.22.11,1,.64,1.72,1.07a11.58,11.58,0,0,1,1.94,1.4,7.51,7.51,0,0,0,2.58,1.72,32.91,32.91,0,0,1,6.24,4.31c.43.32,1,.75,1.08.86s.32.11.54-.22a14.12,14.12,0,0,0,2.58-5.27,9.21,9.21,0,0,0,0-6.13c-.22-.86-.86-3.23-1.08-4.09l-.1-.32h-1.19c-1.07,0-1.18,0-1.4.21a6.19,6.19,0,0,1-3.44,1,7,7,0,0,1-3.23-1.61c-.43-.33-1.18-.87-1.83-1.3s-1.29-1-1.61-1.18a1.19,1.19,0,0,0-1.08-.43,2.29,2.29,0,0,1-1-.54,2.45,2.45,0,0,1-1-2.47,4.71,4.71,0,0,1,.87-1.94,1.72,1.72,0,0,0,.43-.65,5.56,5.56,0,0,1,.53-.86c.22-.32,1-1.4,1.3-1.83.86-1.18.86-1.29.86-1.61a.91.91,0,0,1,.21-.75c.43-.65.43-.65.65-.33a11.85,11.85,0,0,1,.64,2.91c.11.86.22,1.18.76,1.4.86.32,1.07.21,3.66-2.37,1.93-1.83,2.15-2.15,2.69-3.12a11.82,11.82,0,0,0,1-2.37,10.11,10.11,0,0,1,1.19-2.47,11,11,0,0,0,.11-2.8,30.08,30.08,0,0,1,.21-3v-.33l-.32.11a22.27,22.27,0,0,0-2.59,2.26c-.75,1-1.07,1-.42.11.21-.32.21-.32-.22.11-.32.21-.54.53-.54.43a11.91,11.91,0,0,0-1.5,1.61c-.22.32-.54.54-.54.43s-.33.11-.76.54a21.94,21.94,0,0,1-1.72,1.94,36.39,36.39,0,0,0-4.09,4.95c0,.1-.1.21-.32.53s-.43.54-.43.65-.11.11-.22.11-.21.11-.43.32a2.08,2.08,0,0,1-.43.54,1.85,1.85,0,0,0-.64,1.07c0,.11,0,.11-.11.11s-.11.11-.22.22-.1.21-.1-.11V491l-.11.32c0,.22,0,.33-.11.22s-.43-.22-1.29-.22-1,0-1.08.33-.21.21-.43.21a6.58,6.58,0,0,0-2.15,0,8.47,8.47,0,0,1-2.47-.75.7.7,0,0,0-1,.21l-.22.33-.53-.22c-1-.43-4.31-2.15-5.06-2.58a6.28,6.28,0,0,1-1.4-1.08c-.54-.54-.76-.75-.54-.75s.32-.22.11-.43l-.22-.22.22-.21c.11-.11.21-.33.11-.33s0-.1,0-.21a.37.37,0,0,0-.11-.32c-.11-.11-.11-.22,0-.22a.23.23,0,0,0,.21-.21q0-.17.33-.33c.21-.11.32-.32.21-.43a.39.39,0,0,1,.11-.32c.11-.11.21-.22.11-.22s0-.1.1-.21.22-.22.22-.32.43-.54,1.29-1.08a9.06,9.06,0,0,0,2.91-2.8,5.61,5.61,0,0,1,2.79-2.26A9.19,9.19,0,0,0,491,475a14.42,14.42,0,0,0,1.94-2.25,24.41,24.41,0,0,1,1.51-2,2.93,2.93,0,0,1,1.83-1.4c.53-.21,1.4-.75,1.93-1a72.81,72.81,0,0,0,7.43-5,10.17,10.17,0,0,1,3-2c.86-.43,1.83-1,2.05-1.08a5.32,5.32,0,0,1,1.07-.43c.33-.11.76-.21,1.08-.32l.54-.22v-1.07a5.2,5.2,0,0,1,.21-1.94,4.58,4.58,0,0,0,.33-2.9,15.07,15.07,0,0,0-.44-1.83l-.1-.65.54-1c1-1.83,1-2.15,1.39-2.47.22-.22.43-.43.43-.54s.11-.11.22-.11a1,1,0,0,0,.75-.86c0-.32.11-.32.43-.22.11,0,.22-.21.33-.53s.32-.43.54-.43a.39.39,0,0,0,.32-.11c.1-.11.21-.22.54-.11.64.22.75.22.64-.21Zm-24.22,76.51c-.21,0-.43,0-.53.11s0,.54.1,1.18.33,2.15.43,3.44c.33,2.8.33,2.8.65,3.13s.75.32,2.37-.33a17.93,17.93,0,0,0,4.62-2.37l.43-.43-.75-.53c-.43-.33-1.18-1.19-1.94-1.83-1.39-1.29-2.15-1.83-2.47-1.83-.11,0-.43-.22-.75-.32A3.58,3.58,0,0,0,495.13,520.27Zm16.79-45.95c-.11,0-1.61,1.29-2.15,1.72-.86.75-1,.54-.11-.43a4.51,4.51,0,0,0,.86-1.07l-.21.21c-.22.21-.43.43-.54.43s-.11,0-.11.11,0,.11-.11.11-.21.21-.32.32a.79.79,0,0,1-.43.21.81.81,0,0,0-.43.22c-.11.11-.22.21-.22.11s.22-.33.33-.43c.43-.33.32-.43-.11-.11-.22.11-.32.32-.43.21s-.54.43-1.18,1.08a5.12,5.12,0,0,0-1.3,1.61.47.47,0,0,1-.32.43,6.05,6.05,0,0,0-1.5,1.83c0,.11,0,.22-.11.22a.38.38,0,0,0-.11.32c0,.11-.22.33-.43.54-1,1,1.51-1,3.12-2.58a24.12,24.12,0,0,1,2-1.94c.22-.11.76-.54,1.19-.86.75-.75,1-.86.75-.43-.11.11-.21.21-.11.21s.43-.53,1-1.07S512,474.32,511.92,474.32Zm-1.51-.32a11.27,11.27,0,0,0-1.61,1.5c.11,0,.43-.32.86-.75S510.52,474,510.41,474Z" transform="translate(-258 -272.77)"/><path class="cls-1" d="M485.41,551.05a14.16,14.16,0,0,1,5.17,2.05,7.7,7.7,0,0,0,1,.53,10.6,10.6,0,0,1,2.8,1.72c.1.11.21.22.32.22a2,2,0,0,1,.86.54,9.65,9.65,0,0,0,2.15,1.5.24.24,0,0,1,.22.22,1.25,1.25,0,0,0,.54.65,3.18,3.18,0,0,1,.86.86,6.64,6.64,0,0,1,.43.75,1.47,1.47,0,0,1,.21,1.72c-.32.65-.32,1.29,0,2.8a5.21,5.21,0,0,1,.11,2.58c0,.11-.11.22-.32.32a1.47,1.47,0,0,0-.43.44,4.74,4.74,0,0,1-.65.53,1.51,1.51,0,0,1-1.07.33.61.61,0,0,0-.54.21c-.22.22-.43.11-.76-.11l-.21-.21L495,569.77a11.43,11.43,0,0,1-1.72,1.4,7,7,0,0,0-.75.54c-.11.11-.43.11-.65.11a1.52,1.52,0,0,1-1-.43c-.54-.43-.75-.43-1-.22a2.22,2.22,0,0,1-.53.33,38.05,38.05,0,0,0-3.88,1.61,30.16,30.16,0,0,0-4.19,2.58c-.22.22-.22.22-.11,1.19V578l.43.33a9.16,9.16,0,0,1,1.72,2c0,.11.32.43.54.65l.43.43v.75c0,.32,0,.65-.11.75s-.22-.21-.43-.32l-.43-.21-.32.43a4.39,4.39,0,0,0-.76,2.36c0,.22.22.76.22,1.08.11.54.21.86,1.29,1.94.65.75,1.51,1.61,1.83,2a12.77,12.77,0,0,1,1,1.51,21.24,21.24,0,0,0,1.4,1.72,4.88,4.88,0,0,1,1.07,1.51c.54,1.18.54,1.82,0,2-.21.11-.21.22.11,1.18a11.2,11.2,0,0,1,.43,1.62,5.5,5.5,0,0,1-.11,2.26,20.78,20.78,0,0,0-.21,2.37,9.42,9.42,0,0,1-.22,1.93c-.1,1-.32,1.19-1.29,1.83a3.92,3.92,0,0,0-.64.76c-.22.32-.43.32-1,.32-.11,0-.33.21-.54.43s-.43.54-.65.64a4.74,4.74,0,0,0-.86.65l-.43.32L484,611c.33-.32.33-.43.22-.43s-.22-.11-.32-.22-.22-.1-.86.22a7.81,7.81,0,0,0-2.26,1.94c-.33.43-.54.64-1.08.64a5.64,5.64,0,0,0-2.26,1.19,3.28,3.28,0,0,0-.54.75,2.19,2.19,0,0,1-.32.54c-.22.1-.22.21-.11,1,.11.43.33.75.22.86s-.11-.22-.22-.43l-.21-.54V617c0,.86.32,1.29,1.07,2.15.22.32,1,1.29,1.4,1.94.65,1,1,1.29.86,1-.21-.53-.21-.64.11-.1a2.87,2.87,0,0,1,.43.86,6.88,6.88,0,0,0,.86,1.83,1,1,0,0,1,.33.53c0,.11.1.33.21.22s.32.32.65.75,1.07,1.19,1.5,1.72a5,5,0,0,1,1.19,1.83c.21.54.43,1,.53,1a.56.56,0,0,1,.43.33l.33.32h1.18a8.74,8.74,0,0,0,3.88-1.08A11.35,11.35,0,0,0,494,628.1c2.16-1.94,3.56-3.23,3.66-3.12s1.62-1,2.15-1.72c.22-.22.76-.86,1.19-1.29s1.4-1.4,1.93-2.05a23.74,23.74,0,0,1,3.34-3.44,6.92,6.92,0,0,0,1.51-1.62.23.23,0,0,1,.21-.21c.11,0,.11,0,.11-.11a9.9,9.9,0,0,1,2.05-1.51c.1,0,3.22-3.12,3.44-3.44.11-.11,0-.21.11-.11s.43-.32.86-.64.86-.76,1-.86c.43-.33-.54,1.07-1.19,1.83-.32.43-.64.75-.54.75a9.22,9.22,0,0,0,2.48-2.8c.11-.21.21-.43.32-.43s.32-.11.32-.21.65-.87.65-.65-.11.22-.21.32a4.07,4.07,0,0,0-.76,1.29c0,.11.22-.1.43-.32.43-.32.54-.32.22.11s-.22.32.54-.32c.43-.43.86-.65.75-.76s-.22.11-.43.22-.32.32-.43.32-.11-.43.21-.54c.11-.1.33-.21.43-.32s.11-.54-.1-.54-.11-.32.32-.64c.21-.22.54-.43.65-.65s.32-.43.42-.32.22-.11.43-.43a7.06,7.06,0,0,1,.87-1,9.51,9.51,0,0,0,.86-1,3.14,3.14,0,0,1,.75-.86,2.29,2.29,0,0,0,.86-1.08c0-.1.11-.1.22-.21a33.16,33.16,0,0,0,2.36-4.2c.11-.32.33-.75.43-1a3,3,0,0,0,.65-2.26c0-.53,0-1.07-.11-1.07s0-.33,0-.54a26,26,0,0,0,0-4.31,2.73,2.73,0,0,0-.32-1.61c0-.11-.22-.75-.32-1.18a16.13,16.13,0,0,0-.54-1.62,3.93,3.93,0,0,1-.32-1.72c0-.32,0-.75-.11-.86s-.11-.22,0-.22.32.11,1.18,1.3c.22.32.33.53.43.53s-.21-1-.43-1.18-.11-.43-.21-.65l-.22-.43.22.33a25.63,25.63,0,0,1,2,4.3c0,.11,0,.11.11.11s.32.54.11,1.18a2.89,2.89,0,0,0,.43,1.94,3.2,3.2,0,0,1,.32,1.83c.11,2.15,0,2.26.22,2.58s.32.65.1.43-.21-.11-.32.11-.22.11-.22.22,0,.1-.1.1a.24.24,0,0,0-.22.22c-.11.43-.21,1.29-.43,2.47a12.87,12.87,0,0,1-.43,1.72,10.86,10.86,0,0,1-1.51,3c-.21.32-.64.86-.86,1.18s-.64.75-.86,1.08a3,3,0,0,0-.43.75c0,.11-.11.22-.21.32s-.22.11-.22.22,0,.21-.11.21-.1.22-.21.43a.68.68,0,0,1-.54.54,2,2,0,0,1-.75.11,1.73,1.73,0,0,0-.54.22c-.22.1-.32.21-.43.21s-.86.65-1.72,1.83c-.43.65-.86,1.08-.86,1s-2.37,2.37-3.23,3.87c-.33.54-.65,1.08-.75,1.19a1.19,1.19,0,0,0-.54.75c0,.11.1,0,.21,0s.22,0,.22.11.11.21,0,.21-.22.11-.33.22c-.21.32-.43.32-.53.21s-1.08,1.08-1.51,1.94c-.11.21-.22.43-.32.43s-.11,0-.11.11a40.52,40.52,0,0,1-2.8,3.66c-.11,0-.11.1-.11,0s-.21.43-.32.86a7.21,7.21,0,0,1-.43,1.07c-.21.54-.21.54-.75.76l-.54.21v.54c0,.65-.22,1-.54,1a3.26,3.26,0,0,0-1.51.75c-.43.43-.43.43-.43.86s0,.43-.32.65-.32.43-.43.54-.54.64-1,1.07a11.13,11.13,0,0,0-2,2.48c0,.11-.11.21-.22.32a3.56,3.56,0,0,0-.43.86,7.51,7.51,0,0,1-1.61,2.37,3.54,3.54,0,0,0-.65,1,2.84,2.84,0,0,1-.43.64c-.11.11-.43.65-.75,1.08s-.75,1-2.91,3.44c-.64.76-1.29,1.51-1.4,1.72a.86.86,0,0,1-.86.54c-.21,0-.75.22-.75.33s.11.1.21.1.11,0,.11.11-.32.11-.64.11a2.09,2.09,0,0,0-.86.21l-.33.22-.75-.22a28.17,28.17,0,0,1-4-2,5.44,5.44,0,0,0-1.4-.54,8.57,8.57,0,0,1-2.91-1.4c-3.22-2-4.3-2.9-5.48-4.3a5.7,5.7,0,0,1-1.4-2.37,6.49,6.49,0,0,0-.43-1.08,27.84,27.84,0,0,0-2.48-3.12,3.16,3.16,0,0,1-.75-1,4.3,4.3,0,0,0-1.62-1.39,5.69,5.69,0,0,1-1.93-1.94c0-.11-.22-.75-.33-1.19a5.63,5.63,0,0,0-.32-1.07,1.71,1.71,0,0,1,.32-1.4,2.27,2.27,0,0,0,.43-1.72,10.64,10.64,0,0,1-.32-2.37,1.78,1.78,0,0,1,.11-.75,8,8,0,0,0,.32-.86,16,16,0,0,1,2.91-4.52c.43-.54,1-1.4,1.29-1.83L471,608v-1.29a3.59,3.59,0,0,1,.42-1.94c.11-.22.43-1.08.54-1.4s.33-.86.43-1.08a7.55,7.55,0,0,0,.11-2,18.38,18.38,0,0,0-.54-5,31.1,31.1,0,0,0-2.69-5.49A10.2,10.2,0,0,1,468,587a12,12,0,0,1,.43-5.38,33.4,33.4,0,0,1,2.37-5.38c.11-.11.43-1,.86-1.83s1.4-2.47,2-3.66a73.37,73.37,0,0,0,3.66-6.78l1.08-2.15a1.37,1.37,0,0,0,.32-.86c.11-.43.11-.54-.21-.75a8.73,8.73,0,0,1-1.19-1.08,4,4,0,0,0-1.39-1,2.25,2.25,0,0,1-.76-.54c-.11-.1-.21-.21-.32-.21s-.11.11-.11,0,.11-.11.22-.11.1-.11.1-.21.22-.33.43-.43a11.42,11.42,0,0,0,2.48-2.59,2.18,2.18,0,0,1,1.08-1,1.61,1.61,0,0,1,.64-.33c.11,0,.22-.11.32-.21s.33-.22.54.1.22.33.32.22.22-.43.44-.75a1.82,1.82,0,0,1,1.18-1C483.48,550.73,483.69,550.73,485.41,551.05Z" transform="translate(-258 -272.77)"/><path class="cls-1" d="M540.17,628.57c.65.32.86.43,2.8.54l1.94.11.43-.33a1.34,1.34,0,0,1,1.83-.11,3.31,3.31,0,0,0,1,.44,3.14,3.14,0,0,1,1.62,1.5,8.38,8.38,0,0,0,.86,1.72,19.57,19.57,0,0,0,1.72,1.4c.75.65,1.61,1.4,1.83,1.62a3.44,3.44,0,0,1,.86,1.4c0,.1.11.21.32.43a7.66,7.66,0,0,1,1.4,2.69,9.33,9.33,0,0,1,.43,3,4.45,4.45,0,0,1-.43,2.26,9.42,9.42,0,0,1-.75,1.51c-.11.21-.43.75-.65,1.07-.53.86-.75,1.19-1.5,1.51a25.71,25.71,0,0,0-4.63,4.41,12,12,0,0,1-2.37,2.69,8.22,8.22,0,0,0-2.47,1.62c-.43.43-1.08.86-1.29,1.07a11.91,11.91,0,0,0-.86,1.08c-.87,1.29-1.4,1.72-4.52,2.79-1.73.54-2.8.87-4.09,1.19a2,2,0,0,0-1.08.54,2.35,2.35,0,0,1-.86.53,5.48,5.48,0,0,0-1,.65,16.21,16.21,0,0,0-2.91,3,5.22,5.22,0,0,1-1,1.08,3.63,3.63,0,0,0-.86,1.29c-.33.54-.65,1.18-.86,1.51a3.23,3.23,0,0,0-.54.86c-.11.21-.33.75-.54,1.18s-.65,1.19-1,1.72c-.75,1.3-1.61,2.37-1.72,2.26s-.54.65-.65,1.08a3.12,3.12,0,0,1-.21.86,6.4,6.4,0,0,0-.22,1.62c0,1.29,0,1.39-.32,1.72a1.54,1.54,0,0,0-.43,1.07c0,.54,0,.65-.22.86a.78.78,0,0,1-.43.22c-.21,0-.64.64-.64,1a8.8,8.8,0,0,0,.75,2.15c.43.65.32,1.08-.54,2.15a2.44,2.44,0,0,0-.54,1.4,11.57,11.57,0,0,1-.32,1.72l-.21.86.86.86a29.28,29.28,0,0,0,4.3,3.23c1.08.65,4.84,2.59,8.61,4.52a12,12,0,0,0,2.8,1.19,7.16,7.16,0,0,1,2,.53l1.51.54.32-.21c.32-.22.43-.22.65-.11a1.61,1.61,0,0,0,1.4,0,7.1,7.1,0,0,1,4.73,0,5.15,5.15,0,0,0,1,.32,3.69,3.69,0,0,0,1.83-.75,1.63,1.63,0,0,1,1.18-.43c1.08,0,1.51-.22,2.37-1.51.65-1.07.65-1.07.54-1.5a11.08,11.08,0,0,1-.11-2.37l-.11-2-.86-1.5c-1.72-2.91-3.12-5.06-5.38-8.29a14.87,14.87,0,0,1-2.15-3.77c.11-.1.11.11.32.33s.43.43.54.43.43.43.65.75a8.4,8.4,0,0,0,1,1.18,5,5,0,0,1,.75.87c.11.21,1.18,1.61,2.26,3.22a71.35,71.35,0,0,1,4.73,7.21,8.55,8.55,0,0,0,.86,1.3c.11,0,.44.32.76.75a13.29,13.29,0,0,0,2.69,2.8,27.68,27.68,0,0,1,5.7,6.13,2.28,2.28,0,0,1,.54,1.62,3.63,3.63,0,0,0,.11,1.18c.11.54.11.64-.11.86a5.86,5.86,0,0,0-.54.86,4.71,4.71,0,0,1-.86,1.94,3.83,3.83,0,0,0-.54.86c-.21.54-.21.54-.64.54a2.33,2.33,0,0,0-1,.43,2,2,0,0,1-.75.32,1.2,1.2,0,0,0-.65.32,1,1,0,0,1-.54.33.22.22,0,0,0-.21.21c-.11.32-.22.32-.54,0l-.22-.21-.64.64c-1.19,1.18-1.4,1.29-2.37,1.29a10.36,10.36,0,0,1-2.8-.21,9.62,9.62,0,0,0-1.18-.22,1.47,1.47,0,0,1-1.19-.43,22.36,22.36,0,0,0-2.9-.75,11.25,11.25,0,0,1-1.4-.43,14.44,14.44,0,0,0-2.37-1,1.94,1.94,0,0,1-.54-.22c-.21-.1-.32-.1-.86,0a8,8,0,0,1-2.8,0,3.15,3.15,0,0,1-.85-.21,15.3,15.3,0,0,1-4-1.62c-1-.43-2.15-.86-2.69-1.07a11.82,11.82,0,0,1-1.5-.54l-1.19-.43a16.87,16.87,0,0,1-3.66-1.29,9.71,9.71,0,0,1-2.47-1.62,5.81,5.81,0,0,0-1.51-.53l-2.15-.76a9.05,9.05,0,0,0-1.4-.43,29.76,29.76,0,0,1-3.55-2.9,3.94,3.94,0,0,0-2.69-1.29,5.35,5.35,0,0,1-4-4.09,2.78,2.78,0,0,1,.32-1.83c.22-.43.22-.65.11-.86s0-.43.54-1.51a5.86,5.86,0,0,0,.86-2.91c0-.53.21-1.29.21-1.61a7.49,7.49,0,0,0,.11-1.72,3.09,3.09,0,0,1,.21-1.62,5.15,5.15,0,0,0,.44-1.18,12.65,12.65,0,0,1,.32-1.51,10.47,10.47,0,0,0,.32-1.83,2.74,2.74,0,0,1,.32-1.18,4.62,4.62,0,0,0,.65-1.29,47.83,47.83,0,0,1,2.58-6,79.12,79.12,0,0,1,5.38-8.61,17.54,17.54,0,0,0,1.51-2.26,35,35,0,0,1,2-2.9c.22-.32.54-.86.76-1.18l.32-.65H523a2.2,2.2,0,0,0-1.07.43,5.35,5.35,0,0,1-1.19.43c-.43.11-1.18.22-3.44.86a32.88,32.88,0,0,1-3.77.43c-.64,0-.86.11-1.07.65a2.51,2.51,0,0,1-.43.53.57.57,0,0,0-.22.44c0,.32-.11.43-.43.43a1.61,1.61,0,0,1-1,0c-.21-.11-.86-.11-1.18-.22s-.65-.21-.65-.32-.21-.22-.32-.22-.54-.32-1-.53a7.09,7.09,0,0,0-1.29-.65,3.23,3.23,0,0,1-.86-.43,1.6,1.6,0,0,0-.65-.32,2.89,2.89,0,0,0-1.72-.33h-1.29l-1.08-1c-1.93-1.93-3.87-3.44-4.51-3.55a4.3,4.3,0,0,1-1.08-.86,4,4,0,0,1-1.29-2.69c-.11-.75-.11-1.18.1-1.4s-.1-.53-.32-1.07a6.62,6.62,0,0,1-.64-2c.1,0,.1-.11.21-.11s.11-.21-.21-.53-.33-.76,0-1.19.21-.43.1-.54c-.1-.32.11-.53.86-1.07s.65-.43.44-.86c-.11-.22.75-.65,1.93-1.19a11,11,0,0,0,3.12-2.36c.43-.43.76-.65.76-.54a4.18,4.18,0,0,1-.22.75,6.66,6.66,0,0,1-.32.86,2.52,2.52,0,0,0-.11,1.94,2.37,2.37,0,0,1,.11.75c0,.33.21.76.32.76a4.55,4.55,0,0,0,1-1.08c0-.32,1.94-2.47,2-2.26s0,.22-.1.32a1.55,1.55,0,0,0-.22.76c0,.43,0,.43.43.75a11,11,0,0,0,2.58,1.51,6.24,6.24,0,0,1,1.4.86c.54.43.65.43,1,.43s1-.11,1.72-.22a37,37,0,0,0,10.23-2.9,13.1,13.1,0,0,0,1.61-.76,10.52,10.52,0,0,1,2.58-1.61c.54-.32,1.51-.75,2.05-1.08a15.07,15.07,0,0,1,1.83-.86,13.5,13.5,0,0,0,1.83-1c.54-.32,1.5-.86,1.93-1.07a5.27,5.27,0,0,0,2.48-2,3.78,3.78,0,0,1,1.29-1.29,6.39,6.39,0,0,0,.65-.43c.32-.32.43-.43.32-.54s-.11-.32.21-.43.43-.1.43-.21.11-.32.22-.32a.8.8,0,0,0,.43-.87c-.21-.32.11-.64,1-.75s.75-.21.64-.43c-.1-.43-.1-.43.11-.43s.65-.22.65-.43S539.85,628.35,540.17,628.57Z" transform="translate(-258 -272.77)"/><path class="cls-1" d="M383.77,411.11c.54.11,1.3.75,1.3,1.07a.81.81,0,0,0,.22.43,1.28,1.28,0,0,1,.22.64c0,.22.11.43.21.43a6.12,6.12,0,0,1,1.1,2c.11.21.54,1,.65,1.18a7.51,7.51,0,0,1,1.2,2.89,3.25,3.25,0,0,0,.33,1,4.09,4.09,0,0,1,.24,2.69,4.44,4.44,0,0,0-.21,1.18,2.61,2.61,0,0,1-.1,1,1,1,0,0,0-.1.54c0,.11-.11.43-.11.65-.1.43,0,.54.22.21s.32-.22.32.11c0,.1-.1.32-.21.32a.49.49,0,0,0-.21.65,25.13,25.13,0,0,1,.67,3,3.32,3.32,0,0,0,.66,1.82,4.38,4.38,0,0,1,.87,1.72c.11.32.11.32-.32.54l-.43.22v1.18c-.09,2.48-.83,4.1-2,4.1a1.36,1.36,0,0,0-.85.44c-.22.22-.54.54-.65.54a.24.24,0,0,0-.21.22c-.11.11-.11.11-.22-.11s-.21-.1-.43,0-.21,0-.43-.11a.86.86,0,0,0-.86-.1c-.11.11-.21,0-.43-.1s-.43-.22-.75,0a3.79,3.79,0,0,0-1,.65c-.32.22-.64.55-.75.55s-.1.11-.21.21a.81.81,0,0,1-.43.22,4.66,4.66,0,0,0-1.6,1.52c-.43.54-.43.65-.43,1.08s0,.54-.42,1a7.05,7.05,0,0,0-1.71,1.95c0,.22-.32.54-.64.87s-.53.54-.53.43-.86.44-1.07.76-.22.43-.1,1c.11.32.22.86.33,1.18.33,1,.33,1.61-.2,2.15-.22.22-.32.11-.86.12s-.65,0-.43.22a.2.2,0,0,1,0,.32,2.31,2.31,0,0,1-.54.33,2.86,2.86,0,0,0-1.06,1.4l-.32.65a1.5,1.5,0,0,0-.21.65c0,.11,0,.32-.11.32a.87.87,0,0,0-.1.54,3.81,3.81,0,0,1-.32.76,2.12,2.12,0,0,0-.21.75,7.94,7.94,0,0,1-.73,2.27,3.07,3.07,0,0,1-.54.32c-.32.11-.64.76-1.06,1.73a1,1,0,0,0,0,1.08c.11.32.22.43.12.53a.85.85,0,0,1-.33.22c-.42.11-.74.55-1.06,1.62a6.29,6.29,0,0,0-.31,1.94,5.43,5.43,0,0,0,.77,2.37,4.36,4.36,0,0,1,.67,3.33,2.74,2.74,0,0,0,.33,1.5l.44.75-.21.22c-.32.32-.32.65-.1,1.51a2.79,2.79,0,0,0,.76,1.6,4.48,4.48,0,0,0,2.37-.12,5.69,5.69,0,0,0,2.14-1.31c.43-.32,1.18-.87,1.72-1.19a24.65,24.65,0,0,0,3.1-2.39c.43-.44,1.07-1,1.28-1.2a2.26,2.26,0,0,0,1.07-1.94c0-.32-.12-.54-.12-.75s-.11-.32.11-.65.32-.54.31-1.72a61.87,61.87,0,0,1,.47-8.51c.11-.11.11-.32.11-.64a19.13,19.13,0,0,1,.62-3c0,.21.32-.43.75-1.3a3.54,3.54,0,0,1,.63-1,7.82,7.82,0,0,0,1.39-2.16v-.33l-.33.22-.21.11.21-.32a.65.65,0,0,0,.21-.54c0-.11.11-.11.22-.22s.1-.32-.11-.32-.11-.11.21-.76.32-.75.21-.75-.22,0,.32-.65c.32-.32.32-.43.1-.43s0-.11.43-.54.64-.54.53-.65.21-.76.53-1.08a2.19,2.19,0,0,0,.53-.87c.11-.43.53-1.08.75-1.08s0,.11,0,.22-.11.21,0,.21.43-.32.43-.54.21-.32.43-.54.42-.43.42-.54.22-.22.32-.33a1,1,0,0,0,.43-.54c.1-.21.43-.54.74-1a12.7,12.7,0,0,0,.86-1.19,6.14,6.14,0,0,1,.85-1.19c.32-.43.75-.76.75-1a1.2,1.2,0,0,1,.31-.65,1.65,1.65,0,0,0,.64-1c.22-.44.21-.65.32-.65s.22-.11.32-.33a3.66,3.66,0,0,1,.43-.65,2.72,2.72,0,0,0,.53-.86l.21-.54-.22-.65-.11-.53.32-.33a2.29,2.29,0,0,0,.43-.65,4.48,4.48,0,0,1,1.39-1.08,5.15,5.15,0,0,1,2.9-1.21c.43,0,.53-.11.85-.54s.54-.43,1-.33h1.18c.75-.11.86-.11,1.94.42a17.46,17.46,0,0,1,3.24,1.59,31.89,31.89,0,0,1,5,4.16,17.19,17.19,0,0,0,1.52,2.25,11.38,11.38,0,0,1,1.64,3.43,6,6,0,0,1,.25,4.52,7.73,7.73,0,0,1-1.7,3.56,2.1,2.1,0,0,1-1.71.88c-.43,0-.86.22-.86.43s-.43.44-.64.33a3.59,3.59,0,0,1-1.31-1.5c-.21-.43-.32-.53-1.29-.63a8,8,0,0,1-2.48-1.06,2.77,2.77,0,0,0-1.62-.42h-.86V447a4.4,4.4,0,0,1,.74-1.73c.22-.32.22-.32.11-1.08a9.55,9.55,0,0,0-.44-1.18,1.77,1.77,0,0,1-.33-1.07c0-.54-.12-.65-.33-.75s-.65-.43-1.19-.85c-.87-.64-1.19-.86-1.62-.85a1.33,1.33,0,0,1-.76-.21,6.35,6.35,0,0,0-2,0,3.71,3.71,0,0,1-.65.11c-.43,0-.53,0-.43.11s0,.22-.21.44c-.43.32-.64.22-.21-.11s.1-.22-.33,0a1.55,1.55,0,0,1-.75.11c-.43,0-.54,0-1.18.77l-.64.65h-.54a1.88,1.88,0,0,0-1.82.87,5.88,5.88,0,0,0-1.06,2.38,5.51,5.51,0,0,1-1.28,2.27,3.69,3.69,0,0,0-.74.86c0,.11-.32.44-.75.87a5.82,5.82,0,0,0-1.39,1.73.22.22,0,0,1-.21.22c-.32,0-.75.54-.75,1,0,.22,0,.33-.1.33s-.21.32-.32.64c-.21.65-.32.76-.1.65s.11.11,0,.22,0,1,.12,1.93c0,.54,0,.65-.32.76a1.84,1.84,0,0,0-.43.32c-.1.11-.1.11-.21.11s-.22-.1-.21,0-.11.11-.22.11-.11,0-.11.11,0,.22-.1.11-.86.22-1.07.76-.22.43,0,1.94a12.82,12.82,0,0,1,0,2.9,8.74,8.74,0,0,0,0,1.72,16.7,16.7,0,0,1-.4,3.34,7,7,0,0,0-.09,2.59,1.25,1.25,0,0,0,1.29.74,2,2,0,0,0,1.18-.44c.32-.22.65-.43.54-.54s.1-.22.21-.32a7.87,7.87,0,0,0,1.82-2.06,6.31,6.31,0,0,1,.74-1.08c.53-.65.75-1,.75-1.3a.79.79,0,0,1,.21-.43c.1-.11.32-.54.53-.76a9.82,9.82,0,0,1,1-1.19,5.88,5.88,0,0,0,.85-1A3.24,3.24,0,0,1,393,461a5.87,5.87,0,0,0,.74-1.19c.43-.86,1.49-2.05,1.92-2.06a5.27,5.27,0,0,0,1-.22,4.65,4.65,0,0,1,.86-.22c.43,0,.54-.11.32-.22s-.21-.1.11-.11a6.12,6.12,0,0,0,1.07-.22,4.86,4.86,0,0,0,1.93-1.31,2.75,2.75,0,0,1,2.58-.34,1.62,1.62,0,0,0,1.94-.33,3.45,3.45,0,0,1,1.82-.45c1.72,0,3.13.74,5.62,3.08a24,24,0,0,1,3.91,4.5c1.74,2.57,2.17,3.43,2.4,4.72.11.42.22,1.18.33,1.71a11.8,11.8,0,0,1,.23,1.4,5.91,5.91,0,0,0,0,1.4,9.57,9.57,0,0,1-.19,3.45,20,20,0,0,1-1.28,2.48,7.68,7.68,0,0,0-1.16,2.7,8.67,8.67,0,0,1-.42,1.19,3.1,3.1,0,0,1-2,1.52,7.38,7.38,0,0,0-2.24,2.27c-.32.65-1.28,1.84-1.5,1.73a1.51,1.51,0,0,0-.75.44,7.43,7.43,0,0,1-1.07.87,2.09,2.09,0,0,0-1,1c-.42.65-.53.76-.85.66s-.33-.11-.76.43a3.39,3.39,0,0,1-1.49,1.3,1.36,1.36,0,0,1-1.08.12c-1.08-.42-1.08-.53-2.26.12s-1.6,1-1.6,1.2,0,.32-.22.32a1,1,0,0,0-.53.33c-.21.22-.53.54-.64.54a4.53,4.53,0,0,0-2.15,1.09,2,2,0,0,1-.75.55,1.94,1.94,0,0,1-.54-.22.85.85,0,0,0-.86-.1,2.88,2.88,0,0,1-1,.12,2.05,2.05,0,0,0-1.94.33,1.81,1.81,0,0,1-.75.33c-.22,0-.43-.1-.54,0s-.21.11-.43,0a.81.81,0,0,0-.54-.21,15.45,15.45,0,0,1-1.51-.53,4.28,4.28,0,0,0-1.4-.42,18.06,18.06,0,0,1-1.84-1.92,3.86,3.86,0,0,0-.76-.64c-.43-.11-.54-.43-.67-2.69a7.16,7.16,0,0,0-.23-1.94,14.44,14.44,0,0,1-.33-1.82,5.56,5.56,0,0,0-.23-1.72,3.26,3.26,0,0,1-.22-1.18c-.12-.87-.23-1.08-.55-1.4s-.54-.53-.65-.53c-.32,0-1.39,1-4.92,4.44-3,3-3.31,3.36-3.63,4a6.17,6.17,0,0,1-.42.86v.54c.11.22,0,.33-.32.44s-.32.43-.1.53.1.11.11.33.22.43.32.64.22.32.22.43a5.66,5.66,0,0,0,.44.86c.44.75.44.85.22,1.18-.1.11-.1.32.12.64s.32.54.43.54.22.21-.11.21-.43.12-.1.44.21.21,0,.21-.11,0-.1.43a4.17,4.17,0,0,0,.33,1.4c0,.11.11.21.11.32s.11.22.22.43c.76,1,1.52,2.89,1.09,2.9-.1,0-.1,0-.1.11s-.75,1.08-.75.86-.11-.1-.22-.1-.86-.32-.86-.43-.43-.1-.86-.1a4.34,4.34,0,0,1-2.81-1.16c-.32-.22-.76-.43-1.08-.64a9.29,9.29,0,0,1-1.3-.85,3.21,3.21,0,0,0-1.19-.75c-.86-.21-1.4-.42-1.4-.63a2.24,2.24,0,0,0-.22-.65l-.22-.32.22-.43c.1-.22.21-.33.21-.43s.1-.22.21-.33a2.31,2.31,0,0,0,.43-.54c.1-.21.21-.32.32-.32.32,0,1-.87.74-1.09,0-.1-.32-.21-.65-.31a1.2,1.2,0,0,0-1.07.11,3.57,3.57,0,0,1-.64.33.62.62,0,0,0-.43.11c-.11.11-.11.22-.22.22-.32,0-1.07,1-1.06,1.4a5.35,5.35,0,0,1-.85,1.52c-.11,0-.32.21-.54.43a7.31,7.31,0,0,1-1,.76c-.86.44-1.29.44-2.91-.52a9.62,9.62,0,0,1-3-2.45,5.83,5.83,0,0,0-.87-1.07,5,5,0,0,1-1.31-3.11,3.58,3.58,0,0,0-.23-1.29c-.22-.43-.11-.54.11-.54s.75-.33.64-.54,0-.54.21-.54.11-.11.11-.22-.22-.21-.22-.32,0-.22.21-.11.43.1.54,0,.32-.22.21-.65c-.11-.65.1-.86.75-1,.11,0,1.39-.54,2.36-1s2.47-1.09,3.32-1.42a5.89,5.89,0,0,0,1.51-.77c.1-.1.1-.32,0-.64s-.22-.65,0-.43.21.21.21.1-.33-2-.55-2.9a14.15,14.15,0,0,1-.46-3.44c-.12-2.26,0-2.58-.23-2.58s-.33-.1-.33-.21a10.72,10.72,0,0,1,0-2.59c.11,0,.22.22.33.43l.22.43,0-2.58c0-4.63-.07-9.25-.17-9.36s-.11-.32,0-.86c.1-.76.3-3.34.5-6a13.63,13.63,0,0,1,.83-4.21,17.71,17.71,0,0,0,.62-2.58,29.35,29.35,0,0,1,1.27-4.21,3.84,3.84,0,0,0,.2-.75,1.42,1.42,0,0,0-.54-1c-.11-.1-.54-.21-.86-.42a7,7,0,0,1-2.17-1.71,11,11,0,0,0-1-1.18,3.16,3.16,0,0,1-.77-1.07,2.81,2.81,0,0,0-.65-1c-.21-.32-.65-.75-.76-1-.22-.43-.22-.43,0-.86s.1-.54.21-.44.21,0,.32-.11.1-.43.1-.86v-.64l.74-.76c.43-.44.86-.87,1.07-.87a2.23,2.23,0,0,1,1.19,0,30.31,30.31,0,0,0,5.38-.25,7.56,7.56,0,0,0,3.32-1.75c1.71-1.3,1.82-1.41,2.14-2.49a3.06,3.06,0,0,1,.31-1.08,3.13,3.13,0,0,0,.53-1.08,5.94,5.94,0,0,1,.53-.75c.32-.33.75-1.19,1.18-1.73a15.7,15.7,0,0,1,1.38-1.52c.64-.65,1.49-2.27,1.28-2.59s.1-.54.42-.65.43-.33.21-.32-.1,0-.1-.11.1-.11.21-.11.32-.22.43-.33.21-.21.1-.43c-.21-.43,0-.64.22-.54s.32.11.53-.32a1.62,1.62,0,0,1,.86-.87,1.91,1.91,0,0,0,.75-.44,4.88,4.88,0,0,1,1.71-1.19A4,4,0,0,1,383.77,411.11ZM405.14,465c-.11-.1-.22-.1-.44-.1a15.94,15.94,0,0,0-1.72.23c-.64.11-1.61.33-1.72.33a10.13,10.13,0,0,1-2.68.45.5.5,0,0,0-.54.33c0,.1-.21.21-.32.21s-.11-.1,0-.21c.21-.33.1-.32-.32,0a1.19,1.19,0,0,1-.65.33c-.1,0-.32,0-.32.11s-.21.22-.32.32-.21,0-.21-.1-.11-.11-.22-.11,0,0,0,.22,0,.21-.11.21a.39.39,0,0,0-.32.11c-.1.11-.1.11-.21,0s-.11-.1-.11,0-.11.11-.22.11a.33.33,0,0,1-.11-.43c.11-.21,0-.21-.1-.1s-.22.11-.22,0,0,.11-.11.21-.21.33-.32.33-.32,0-.21-.11-.43-.1-.54,0,0,.21,0,.32-.43.33-.75.22c-.11-.11-.22-.1-.32.11a.63.63,0,0,0-.11.43c0,.11,0,.11-.1.22s-.22,0-.43-.11-.22-.1-.43.11-.32.22-.33.11a7.61,7.61,0,0,0-1.92,1.52,22.1,22.1,0,0,0-1.38,2.38,8.59,8.59,0,0,1-.54,1,3.05,3.05,0,0,0-.42.76c0,.11-.21.32-.32.43s-.21.22-.11.33-.1.64-.21.64-.1-.1-.21-.21-.22-.11-.22.11-.21.32-.42.54a1.39,1.39,0,0,0-.42,1.94,1.48,1.48,0,0,1,.22.64,3.62,3.62,0,0,0,.33,1.29,5.15,5.15,0,0,1,.44,1.08c0,.1.32.32.43.42l.22.22-.11-.32c-.11-.22-.11-.54-.22-.86-.11-.54-.11-.65,0-.43a2.13,2.13,0,0,1,.44.75c.11.32.22.53.33.53s.11.11.11.22a3.88,3.88,0,0,0,.33,1.18,3.23,3.23,0,0,0,2.06,2c.32.1.86.21,1.08.31.64.21,1.07.1,2-.33a8.26,8.26,0,0,1,1.5-.55,4.19,4.19,0,0,0,1.5-.87,19.65,19.65,0,0,0,3.21-3.36c.42-.54,1.17-1.41,1.6-2a50.85,50.85,0,0,0,4.26-6.38,24.82,24.82,0,0,0,1.69-4.21l.21-1.08-.44-.64A4.4,4.4,0,0,1,405.14,465Z" transform="translate(-258 -272.77)"/><path class="cls-1" d="M417,488.14a6.87,6.87,0,0,1,3.14,1.81,40.82,40.82,0,0,1,6.51,7.48,5.15,5.15,0,0,1,1,2,5.79,5.79,0,0,1,0,1.94c-.1.64-.1.64-.32.65s-.32.11-.32.21a3.06,3.06,0,0,1-.53.87,10.21,10.21,0,0,0-1.49,2.48,4.41,4.41,0,0,0-.31,2.16l-.09,1.18-.64,1.3a39.83,39.83,0,0,0-2.11,6.25c-.1.44-.21.54-.43.65s-.32.22-.42.76l-.21.54.43.43c.11,0,.76.42,1.19.63.65.32,6.59,3.62,8.86,5.11a38.92,38.92,0,0,1,6.38,5,13.44,13.44,0,0,1,3.16,4.6,7.72,7.72,0,0,0,1.09,1.83,12.61,12.61,0,0,1,2.5,4.07,1.06,1.06,0,0,0,.22.53c.22.33.22.54.23,1.4a3,3,0,0,1-.74,2,10.86,10.86,0,0,0-.53,1,3,3,0,0,1-.32.87,7.11,7.11,0,0,0-.84,2.37c.1.11,0,.32-.11.65s-.31.86-.42,1.18-.1.54-.21.54-.22.11-.43.44-.43.54-.53.54-.32.43-.42,1.72a4.49,4.49,0,0,1-.74,2.48,8.59,8.59,0,0,1-1.92,2.28c-.11,0-.32.21-.64.43a8.86,8.86,0,0,1-.86.55,5.38,5.38,0,0,1-.75.43,17.44,17.44,0,0,1-5.25,2.51c-.32.11-1.29.34-2.15.56s-2.26.66-3,.88a13.6,13.6,0,0,0-3.75,1.64,11.62,11.62,0,0,0-3,2.07,42.3,42.3,0,0,1-6.22,3.7,2.4,2.4,0,0,0-1,.44,2.2,2.2,0,0,1-.86.43,16.24,16.24,0,0,0-2.9,1.21c-.43.22-.75.43-.86.33s.64-.87,1.18-1.2A4.7,4.7,0,0,0,408.9,571a9.77,9.77,0,0,0-2.46,1.31c-.43.33-1.18.87-1.72,1.3a38.4,38.4,0,0,1-4.28,3.16c-.53.32-1.18.86-1.5,1.08s-.64.54-.85.65-1.18.66-1.18.55a12.39,12.39,0,0,1,1.92-1.74c1.07-1,2.78-2.38,3.85-3.36s2.35-2.06,2.78-2.49a8.46,8.46,0,0,0,1.82-1.85c0-.1,0-.1.11-.1s.64-.33,1.39-1l.53-.44-1-.53a46.26,46.26,0,0,1-6.49-4.69,37.65,37.65,0,0,0-3.9-3.09.84.84,0,0,0-.43.22,1.09,1.09,0,0,1-.64.22c-.21,0-.43.22-.64.33a1.25,1.25,0,0,1-.65.11,2,2,0,0,0-.75.22c-.43.32-.75.33-.75.11s0-.11-.65.33c-.32.22-1.17.65-1.82,1a11.52,11.52,0,0,0-1.61.87,2.74,2.74,0,0,1-1,.55,10,10,0,0,0-1.82,1c-.65.43-1.5,1-1.93,1.2s-1.18.76-1.61,1a4.62,4.62,0,0,1-3.11,1,3.24,3.24,0,0,0-1,.11,11.22,11.22,0,0,1-1.29.33,2.33,2.33,0,0,0-1,.33,3.4,3.4,0,0,1-.85.33,2,2,0,0,0-1.08.55c-.74.76-.85.76-1.07.54a2.85,2.85,0,0,1-.65-1.07,2.1,2.1,0,0,0-.22-.64,9.12,9.12,0,0,1-.44-1,5.15,5.15,0,0,0-.44-1.18,2.1,2.1,0,0,1-.33-1.4c0-.64.21-1,1.06-2.26a9.61,9.61,0,0,0,.95-2.7c.21-.76.21-1.19.19-4l-.13-3.12.42-1a9.26,9.26,0,0,1,2.34-3.36c1.07-1.08,1.18-1.3,1.18-1.62s.21-.54.64-1c.1-.11.63-.87.85-1.19.42-.65,1-1.19,1.81-2.28a5.28,5.28,0,0,0,.64-.86,6.87,6.87,0,0,0-.76-1.29c-1.09-1.82-3.27-6-4.69-9a20.65,20.65,0,0,0-2.4-4.18c-2.07-2.79-6.09-8.35-6.09-8.57s0,0,.11,0c.32.11.32,0,.11-.22s-.22-.21-.11-.21a1,1,0,0,1,.54.1c.21.11.32,0,.21-.11s-.22-.32-.22-.53a2.59,2.59,0,0,0-.11-.86,1.81,1.81,0,0,1,0-1.08c.1-.32.53-1.4.84-2.48a20.48,20.48,0,0,1,.85-2.37,9.23,9.23,0,0,1,.53-1,10.15,10.15,0,0,0,.53-1,3.44,3.44,0,0,1,1.07-1.3c.21-.11.32-.21.32-.32s.21-.22.43-.33a2.05,2.05,0,0,1,1.18,0,3.44,3.44,0,0,0,1,.1,3.27,3.27,0,0,1,1,.32,9,9,0,0,0,1.83.63,18.07,18.07,0,0,1,3.89,1.7,9.13,9.13,0,0,1,4,4.06c.22.43.65,1.18.76,1.39a1.9,1.9,0,0,1,.33,1.18c0,.65,0,.76-.2,1.08-.43.43-.74,2.27-.62,4.1a4.36,4.36,0,0,0,.44,2.14,17.81,17.81,0,0,1,.77,1.94l.44,1.18v1.83c0,1.72,0,1.83.34,2.25a10.13,10.13,0,0,1,.77,1.93,11.73,11.73,0,0,0,1.92-2,22.6,22.6,0,0,0,1.92-2.81,6,6,0,0,1,1.28-1.41,9.39,9.39,0,0,0,2.35-3.14,2.52,2.52,0,0,1,.64-.87,1.18,1.18,0,0,0,.31-.64.6.6,0,0,1,.32-.44c.22-.11.43-.54.64-.75a1.66,1.66,0,0,1,.65-.44c.1,0,.32-.22.53-.33a44,44,0,0,1,6.66-2.52c1.39-.44,1.39-.44,1.39-1.08a19.32,19.32,0,0,1,1.14-6.25,7,7,0,0,0,.62-3.13,6,6,0,0,1,.41-2.58,5.29,5.29,0,0,0,.19-4.42c-.22-.64-.44-1.39-.55-1.61s-.22-.43-.33-.43-.43-.32-.76-.85l-.54-.86.32-.43a2,2,0,0,0,.21-.54c0-.11.1-.33.53-.76.11-.11.22-.22.21-.32s.11-.22.33-.44a1,1,0,0,0,.31-.54c0-.1,0-.21.11-.1s.11-.11.21-.33a1.16,1.16,0,0,1,.43-.54,3.4,3.4,0,0,0,.64-.33c.11-.11.43-.32.54-.43a2.08,2.08,0,0,0,.75-.65,7.81,7.81,0,0,1,1.39-1.2c.43-.32,1.07-.76,1.28-1C415.85,487.82,416,487.82,417,488.14ZM384.72,545.4c-.1,0-.21.22-.32.44s-.42.64-.64,1a21.83,21.83,0,0,0-1.49,2.27,13.38,13.38,0,0,0-.63,1.51,7.87,7.87,0,0,0-.08,4.09c.11.22.11.75.22,1.18s0,.76.12.86a17.17,17.17,0,0,0,3.53-2.5,24,24,0,0,0,3.64-3.47,7.6,7.6,0,0,0-1.2-1.39,29.56,29.56,0,0,1-2.82-3.53C384.94,545.62,384.83,545.4,384.72,545.4ZM404,524.93l-.44-.54-.75.33a12.36,12.36,0,0,0-1.5,1c-.42.33-1.07.87-1.71,1.3-1.39,1-2.14,1.53-2.67,2.71-.42,1-.85,1.41-1.28,1.41-.22,0-.32.11-1.28,1.3a15.22,15.22,0,0,1-1.71,1.41c-.54.44-1.29,1.09-1.61,1.41l-.53.54v1.08c0,1.18.23,2,.56,2.26a9.8,9.8,0,0,1,1.62,1.6,6.57,6.57,0,0,1,1.63,2.14c.11.43.22.75.33.75s2.24-3.24,3.41-5.08a79.25,79.25,0,0,0,5.63-10.26c.11-.22.1-.44.21-.54a8.88,8.88,0,0,0,.52-2.05A2.72,2.72,0,0,0,404,524.93ZM396.8,579c.11,0,0,0,0,.11s-.54.33-.54.22.11-.11.22-.22S396.69,579.11,396.8,579Zm21.59-51.59c-.33,0-1,.22-1,.33a3.93,3.93,0,0,1-.53,1.19c-.1.21-.32.32-.32.43a.79.79,0,0,1-.21.43,2.54,2.54,0,0,0-.43.54,2,2,0,0,1-.32.54,2.76,2.76,0,0,0-.42,1.4c0,.11.11-.1.32-.32s.32-.65.43-.65,0,.11-.11.32-.32.54-.42.76-.21.32-.32.33a7.32,7.32,0,0,0-1,1.83,9.38,9.38,0,0,1-1.06,2.05c-.11.22-.32.33-.32.44a4.44,4.44,0,0,1-.63,1.4c-.11,0-.11-.11-.11-.21s.1-.11,0-.11-.33.22-.43.54a4,4,0,0,1-.53.86c-.11.22-.43.54-.54.76a3.18,3.18,0,0,1-.53.86c-.32.33-.32.33-.32.11s.11-.32-.53.65c-.32.44-.86,1.09-1.18,1.52A5,5,0,0,0,407,545a9.46,9.46,0,0,1-.85,1.84,9.56,9.56,0,0,0-.74,1.61,11.47,11.47,0,0,1-1.92,3.14,2.25,2.25,0,0,0-.53.76,1.76,1.76,0,0,1-.53.86,5.72,5.72,0,0,0-1.17,1.84c-.21.65-.21.65-.1,1a3.59,3.59,0,0,0,.65.64c.32.32.32.32.33.86a1.37,1.37,0,0,0,.43,1.18,29.85,29.85,0,0,0,3,3.53,19.73,19.73,0,0,1,2.17,2.46,14.75,14.75,0,0,0,1.52,1.82l.65.64.32-.33c.11-.21.54-.65,1-1.19s1.07-1.4,1.18-1.51a10.68,10.68,0,0,1,1.6-1.63c.64-.65,1.6-1.73,2.24-2.49s1.92-2.17,2.78-3a33.89,33.89,0,0,0,6.5-9.09,10.25,10.25,0,0,0,1-4.42c.1-1.18.2-1.72,1.26-5l.52-1.61-.32-1a16.15,16.15,0,0,0-1.87-4.72,5.48,5.48,0,0,0-1.84-1.17c-.86-.43-2.37-1.17-3.13-1.59a11.09,11.09,0,0,0-2.05-.85A4.11,4.11,0,0,0,418.39,527.41Z" transform="translate(-258 -272.77)"/><path class="cls-1" d="M409.35,581c.64.32.86.42,2.8.52l1.94.09.42-.33a1.35,1.35,0,0,1,1.83-.12,3.34,3.34,0,0,0,1,.43,3.14,3.14,0,0,1,1.63,1.49,8.94,8.94,0,0,0,.87,1.72c.11.21,1,.74,1.73,1.38s1.63,1.39,1.85,1.61a3.52,3.52,0,0,1,.87,1.39c0,.11.11.21.32.43a7.75,7.75,0,0,1,1.42,2.68,9.3,9.3,0,0,1,.45,3,4.42,4.42,0,0,1-.41,2.26,8.61,8.61,0,0,1-.75,1.51,11.6,11.6,0,0,1-.63,1.08c-.54.87-.75,1.19-1.5,1.52a25.68,25.68,0,0,0-4.59,4.44,12.41,12.41,0,0,1-2.35,2.71,8.19,8.19,0,0,0-2.47,1.63c-.42.44-1.07.87-1.28,1.09s-.53.65-.85,1.08c-.86,1.3-1.39,1.73-4.5,2.83-1.72.55-2.8.88-4.08,1.21a2,2,0,0,0-1.08.55,2.25,2.25,0,0,1-.85.54,4.76,4.76,0,0,0-1,.66,15.45,15.45,0,0,0-2.88,3,5.22,5.22,0,0,1-1,1.08,3.48,3.48,0,0,0-.85,1.3c-.32.54-.64,1.19-.85,1.51a3.75,3.75,0,0,0-.54.87c-.1.21-.31.75-.53,1.18s-.63,1.19-.95,1.73a7,7,0,0,1-1.71,2.28c-.21-.11-.53.64-.64,1.08a2.94,2.94,0,0,1-.21.86,7,7,0,0,0-.2,1.61c0,1.29,0,1.4-.31,1.73a1.5,1.5,0,0,0-.42,1.08c0,.53,0,.64-.21.86a.81.81,0,0,1-.43.22c-.22,0-.64.65-.64,1a8.59,8.59,0,0,0,.77,2.15c.43.64.33,1.07-.52,2.15a2.41,2.41,0,0,0-.53,1.41,12.88,12.88,0,0,1-.31,1.72l-.21.86.87.86a31.27,31.27,0,0,0,4.32,3.2c1.08.63,4.86,2.54,8.64,4.45a12.15,12.15,0,0,0,2.81,1.17,6.86,6.86,0,0,1,2.05.52l1.51.53.32-.22c.32-.22.43-.22.64-.11a1.59,1.59,0,0,0,1.4,0,7.2,7.2,0,0,1,4.74,0,4.73,4.73,0,0,0,1,.32,3.65,3.65,0,0,0,1.82-.76,1.6,1.6,0,0,1,1.18-.44c1.08,0,1.51-.23,2.36-1.53.64-1.08.64-1.08.53-1.51a11.05,11.05,0,0,1-.13-2.36l-.12-2-.87-1.5c-1.74-2.89-3.16-5-5.44-8.25a15,15,0,0,1-2.18-3.75c.11-.11.11.11.33.32s.43.43.54.43.43.43.65.75a9.27,9.27,0,0,0,1,1.18,4.56,4.56,0,0,1,.75.85c.11.22,1.2,1.61,2.29,3.21a70.41,70.41,0,0,1,4.78,7.18,8.32,8.32,0,0,0,.87,1.28c.11,0,.44.32.76.75a13.11,13.11,0,0,0,2.71,2.78,27.58,27.58,0,0,1,5.75,6.09,2.33,2.33,0,0,1,.55,1.62,3.89,3.89,0,0,0,.11,1.18c.12.54.12.64-.1.86a7.71,7.71,0,0,0-.53.86,4.66,4.66,0,0,1-.85,1.95,4,4,0,0,0-.53.86c-.21.54-.21.54-.64.54a2.58,2.58,0,0,0-1,.44,1.81,1.81,0,0,1-.75.33,1.17,1.17,0,0,0-.64.33,1,1,0,0,1-.54.32.24.24,0,0,0-.21.22c-.1.32-.21.32-.54,0l-.21-.21-.65.65c-1.17,1.19-1.38,1.3-2.35,1.31a10,10,0,0,1-2.8-.2,10.2,10.2,0,0,0-1.19-.2,1.43,1.43,0,0,1-1.18-.43,27.18,27.18,0,0,0-2.92-.73,9.62,9.62,0,0,1-1.4-.42,15.29,15.29,0,0,0-2.37-1,1.92,1.92,0,0,1-.54-.21c-.22-.11-.32-.11-.86,0a8,8,0,0,1-2.8,0,3.14,3.14,0,0,1-.86-.2,15.44,15.44,0,0,1-4-1.59c-1-.42-2.15-.85-2.69-1.06a11.77,11.77,0,0,1-1.51-.52l-1.19-.43A16.13,16.13,0,0,1,394,664.5a9.89,9.89,0,0,1-2.48-1.6,5.91,5.91,0,0,0-1.52-.53l-2.15-.73a8,8,0,0,0-1.41-.43,29.45,29.45,0,0,1-3.57-2.88,4,4,0,0,0-2.69-1.27,5.34,5.34,0,0,1-4-4.06,2.86,2.86,0,0,1,.31-1.83c.22-.43.22-.65.11-.86s0-.43.52-1.51a5.86,5.86,0,0,0,.84-2.91c0-.54.21-1.3.21-1.62a7.69,7.69,0,0,0,.09-1.72c0-1,0-1.19.21-1.62a5.57,5.57,0,0,0,.42-1.18,14.05,14.05,0,0,1,.31-1.51,11.86,11.86,0,0,0,.31-1.83,2.66,2.66,0,0,1,.31-1.19,4.38,4.38,0,0,0,.64-1.3,46,46,0,0,1,2.54-6,79.1,79.1,0,0,1,5.32-8.65A17.88,17.88,0,0,0,389.8,617a33.34,33.34,0,0,1,2-2.92c.21-.32.53-.86.74-1.19l.32-.64h-.54a2.22,2.22,0,0,0-1.07.44,5.66,5.66,0,0,1-1.18.44c-.43.11-1.19.22-3.44.88a34.84,34.84,0,0,1-3.76.46c-.65,0-.86.11-1.08.65a2.3,2.3,0,0,1-.42.54.54.54,0,0,0-.21.44c0,.32-.11.43-.43.43a1.47,1.47,0,0,1-1,0c-.22-.1-.86-.1-1.19-.2s-.64-.21-.64-.32-.22-.21-.33-.21-.54-.32-1-.53a6.26,6.26,0,0,0-1.3-.64,3.23,3.23,0,0,1-.86-.43,1.77,1.77,0,0,0-.65-.31,2.88,2.88,0,0,0-1.72-.31h-1.29l-1.09-1c-1.95-1.92-3.89-3.41-4.54-3.51a4.3,4.3,0,0,1-1.08-.86,4,4,0,0,1-1.31-2.68c-.12-.75-.12-1.18.09-1.4s-.11-.54-.33-1.07a7.42,7.42,0,0,1-.66-2c.11,0,.11-.11.22-.11s.1-.22-.22-.54-.33-.75,0-1.18.21-.43.1-.54c-.11-.32.11-.54.86-1.08s.64-.44.42-.87c-.11-.21.75-.65,1.93-1.19a11,11,0,0,0,3.1-2.39c.43-.44.75-.65.75-.55a4.15,4.15,0,0,1-.21.76,8.17,8.17,0,0,1-.31.86,2.46,2.46,0,0,0-.1,1.94,2.44,2.44,0,0,1,.12.75c0,.32.22.75.32.75a4.55,4.55,0,0,0,1-1.08c0-.32,1.92-2.49,2-2.28s0,.22-.1.33a1.54,1.54,0,0,0-.21.75c0,.43,0,.43.44.75a10.58,10.58,0,0,0,2.59,1.49,7.26,7.26,0,0,1,1.4.85c.54.43.65.43,1,.43s1-.12,1.72-.23a37.38,37.38,0,0,0,10.21-3,14.9,14.9,0,0,0,1.61-.76,10.35,10.35,0,0,1,2.57-1.64c.53-.32,1.5-.76,2-1.09a15.17,15.17,0,0,1,1.83-.87,17.11,17.11,0,0,0,1.82-1c.54-.33,1.5-.87,1.93-1.09a5.39,5.39,0,0,0,2.46-2.06,3.62,3.62,0,0,1,1.28-1.3,5.81,5.81,0,0,0,.64-.44c.32-.32.43-.43.32-.54s-.11-.32.21-.43.43-.11.43-.22.11-.32.22-.32a.79.79,0,0,0,.42-.87c-.22-.32.1-.64,1-.76s.76-.22.65-.43c-.11-.43-.11-.43.1-.43s.65-.22.64-.44S409,580.78,409.35,581Zm26.9,15.09a9.63,9.63,0,0,1,3.89,2c1.19,1,1.84,1.7,1.84,2.24a5.06,5.06,0,0,0,.12,1.08c.11,1,.12,1.4-.2,1.72a1.21,1.21,0,0,0-.32.65,1.25,1.25,0,0,1-.32.65,1.14,1.14,0,0,0-.21.64,1.46,1.46,0,0,1-.32.76c-.64.65-1,.76-2.47.77a3.91,3.91,0,0,0-2.15.34,2.08,2.08,0,0,1-1.18.33c-.32-.11-.43,0-.86.65a4.9,4.9,0,0,1-.64.76c-.1.11-.1.22-.1.43s.11.54.54,1.07c1,1.07,1.09,1.18,3,1.17,2.15,0,2.79.08,3.12.4l.65.32a1.46,1.46,0,0,1,1,1c.11.22-.42,1.19-1.06,2.16-.21.44-.42.54-1.39,1-.54.22-1.39.66-1.82.88a4.21,4.21,0,0,1-1.18.43c-.11,0-.33,0-.43.12a.22.22,0,0,1-.33,0c-.21-.11-.32-.11-.64.11a2.77,2.77,0,0,1-2.26,0,13.39,13.39,0,0,1-5.31-4.49c-.76-1.07-.76-1.39-.34-2.9.63-2.16.95-2.7,3.2-4.54a21.78,21.78,0,0,0,2.67-2.6l.32-.54-.54-.54-.65-.64a9.67,9.67,0,0,0-1.09-1c-.75-.53-1-.64-1.29-.64a1.14,1.14,0,0,1-.65-.21.83.83,0,0,1-.22-1.07c.1-.22.21-.33.1-.33s.11-.21.32-.32c.54-.22.65-.44.54-.54a1.24,1.24,0,0,1,.1-.54.77.77,0,0,1,.43-.54c.1-.11.32-.22.32-.33a.61.61,0,0,1,.64-.43h.65A13,13,0,0,1,436.25,596.08Z" transform="translate(-258 -272.77)"/><path class="cls-1" d="M386.08,677.44c.43.11,1,.32,1.4.42,1,.21,1.3.32,1.62.85a4.33,4.33,0,0,0,1.41,1,18,18,0,0,1,4.43,2.66,7.31,7.31,0,0,1,.76,1,27.42,27.42,0,0,0,2.39,3.11,4.44,4.44,0,0,1,1.43,4.18,5,5,0,0,1-2,3.68c-.86.43-1.18.76-2.24,2.7a36.18,36.18,0,0,0-2.86,6.16,7.38,7.38,0,0,1-.64,1.51,1.22,1.22,0,0,0-.21.65,2.49,2.49,0,0,1-.31.75c-.11.32-.11.32-.22.22s-.21,0-.63,1.51c-.53,1.72-.63,1.94-.85,1.94s-.32.86-.1.86.11.11.11.32-.22.33-.21.44a2.37,2.37,0,0,1-.11.75c-.1.32-.21.76-.31,1.08a8.66,8.66,0,0,1-.31,1.72,7.73,7.73,0,0,0-.31,1.84,4.5,4.5,0,0,1-.21,1c-.1.75-.3,3.33-.29,4.62v1.08l.43-.11a6.62,6.62,0,0,0,2-.77,8.53,8.53,0,0,1,1.93-.87c.75-.22,2.14-.66,2.47-.77a4.42,4.42,0,0,0,1.49-1.09A5,5,0,0,1,397,719a13.56,13.56,0,0,1,2.26-.66.7.7,0,0,0,.53-.54,4.83,4.83,0,0,1,.64-.87,2.75,2.75,0,0,0,.53-1c.1-.43.21-.54.64-.87s.54-.43.43-.64.1-.22.21-.33l.43-.43c.21-.22.32-.22,1-.22a22.21,22.21,0,0,1,3.88.29,6.65,6.65,0,0,0,1.29.1l.65-.11.54.42c.32.22.86.86,1.3,1.18a6.23,6.23,0,0,0,2.05,1.28c2.38,1.05,4,2.33,4.65,3.62.22.43.22.54.12.86a3.57,3.57,0,0,1-.32.65c-.21.22-.21.22-.54.22a3.63,3.63,0,0,0-2.14.77,2,2,0,0,1-.86.22c-.33-.11-.43,0-.65.22s-.75.43-2,.55c-1,.11-1.29.22-1.39.33s-.43.44-.54.54a2.58,2.58,0,0,1-.75.33,7.19,7.19,0,0,0-2.14,1.31,1.19,1.19,0,0,1-.65.33.89.89,0,0,0-.64.22c-.21.11-.64.43-.86.54a5.11,5.11,0,0,0-1,.76,1.82,1.82,0,0,1-.75.54c-.11,0-.21,0-.11.11s-1.06,1.09-1.28,1.09a1.94,1.94,0,0,0-1.07.65c-.43.54-.86.65-1,.55s-.1,0-.1.1-.32.33-.65.44-.42.22-.42.43-.11.54-.22.33-.1,0-.21.11-.32.32-.11.21.22-.11.22.11a8.71,8.71,0,0,0,.22,1.07l.22.86-.21.33c-.21.21-.21.32-.21.75a1.28,1.28,0,0,1-.21.76c-.11.1-.11.32-.1,1.07a3.51,3.51,0,0,0,.34,1.83,6.24,6.24,0,0,1,.44,1.29c.11.32,0,.54-.32.75a4.68,4.68,0,0,0-1.07,1.84c0,.32,0,.32.44,1a2,2,0,0,1,.55.75.83.83,0,0,0,.21.42c.22.33.22.43,0,.44s-.11,0-.22.21c-.1.43-1.07,1.09-1.71,1.31-1.82.65-5.38-.5-10.14-3.16-.86-.43-1.94-1.06-2.37-1.28a22.8,22.8,0,0,1-4.11-2.55,14.54,14.54,0,0,0-1.52-1.28,5.88,5.88,0,0,1-1.84-2.14,3.33,3.33,0,0,1-.34-1.93V733.8l-.86.32a7.46,7.46,0,0,0-2.67,2.07,8.11,8.11,0,0,0-1.27,2.59,7,7,0,0,1-.53,1.29A9.78,9.78,0,0,0,369,746c0,.33.11,1.4.12,2.26.12,2.16.23,2.48,1,3a21.57,21.57,0,0,0,5.4,3c.33.1,2.16.84,3.45,1.37a94,94,0,0,0,11.66,4.11c2.69.74,3.56.95,5.17.72a13.6,13.6,0,0,0,5.15-1.76,31.13,31.13,0,0,0,5.79-3.48,7.3,7.3,0,0,0,1.6-1.52,3.69,3.69,0,0,0,.2-1.72,4,4,0,0,0-.11-1.4,2.26,2.26,0,0,1-.23-1v-.75h-.32c-.33,0-.33-.11-.33-.21s0-.22-.22-.11-.21.11,0-.11.11-.32-.21-.53l-.22-.11.32-.11a3.81,3.81,0,0,1,2.05.31,3.69,3.69,0,0,0,.86.1c.21-.11.21-.11,0-.32l-.33-.21.43-.22a6.32,6.32,0,0,1,1.29-.34,3.57,3.57,0,0,0,1.18-.11,10.77,10.77,0,0,1,3.88-.14,5.11,5.11,0,0,1,2.8,1.06c.22.21,1.08.75,1.84,1.28,1.95,1.28,3.9,2.77,3.79,3.09,0,.11.11.22.22.32.32.22.22,1,0,1.19s-.11.54.11,1c.11.1,0,.21-.21.21s-.33.11-.32.22-.11.22-.33.22l-.43.11v.75a2.09,2.09,0,0,1-.85,1.94c-.21.22-.64.55-1,.87a4.77,4.77,0,0,1-1.07.87,9.77,9.77,0,0,0-1.82,1.3,2.74,2.74,0,0,1-1,.55,9.78,9.78,0,0,0-1.08.55,3.75,3.75,0,0,1-.64.32.37.37,0,0,0-.32.11,2.31,2.31,0,0,1-.54.33,24.72,24.72,0,0,0-2.89,1.53,2.44,2.44,0,0,1-.86.33.79.79,0,0,0-.43.21c-.11.11-.32.33-.54.33a2.44,2.44,0,0,0-.53.33,4.77,4.77,0,0,1-2.68,1.95,10.63,10.63,0,0,0-1.07.44,1.83,1.83,0,0,1-.54.22c-.11,0-.54.22-1,.33a4.33,4.33,0,0,1-1.62.23,3.93,3.93,0,0,0-2.25.87,4.9,4.9,0,0,1-2.9.56,3.37,3.37,0,0,1-1.4-.2,2.54,2.54,0,0,0-1.08-.1,14.8,14.8,0,0,1-6.91-3,4.93,4.93,0,0,0-2.16-.95,31,31,0,0,1-4.74-1.58c-.54-.21-1.84-.74-3-1.16s-2.92-1-3.89-1.38a12.35,12.35,0,0,0-5-1.25,6.66,6.66,0,0,1-3.23-.52,19.62,19.62,0,0,0-2.05-.74c-1.83-.63-2.7-1.05-3.57-2.34a2.11,2.11,0,0,1-.55-1.72c0-.75,0-1-.22-1.18-.44-.64-.44-.86-.34-1.83a5.06,5.06,0,0,0,0-1.82,5.66,5.66,0,0,0-.44-1.29,8.93,8.93,0,0,1-.34-2.58c-.12-2.05,0-2.26.2-2.59s.21-.32.21-.43.21-.32.32-.54a1.48,1.48,0,0,0,.21-1c0-.54,0-.54.21-.54s.32,0,.32-.11.21-.22.43-.33.32-.32.53-.86.21-.65.32-.65.1,0,.1-.11,0-.1.11-.1A6.8,6.8,0,0,0,364,738a21,21,0,0,1,3.2-3.47,8.42,8.42,0,0,0,1.29-1.08,1.41,1.41,0,0,1,.64-.54c.21-.11.86-.55,1.39-.88s1.29-.87,1.5-1,.64-.55,1.07-.77a4.78,4.78,0,0,1,1-.65,5.5,5.5,0,0,0,1.6-.87c.11-.11.11-.32-.11-1.4a17.77,17.77,0,0,1-.58-4.94,20.76,20.76,0,0,0-.12-2.91,17.2,17.2,0,0,1,0-4.73,4.66,4.66,0,0,0-.12-2.48,12.12,12.12,0,0,1,.61-3.88,8.23,8.23,0,0,0,.31-2.37,8.89,8.89,0,0,1,.51-3.44,9.31,9.31,0,0,0,.43-1.3,5,5,0,0,1,.42-1.51,14,14,0,0,0,.41-1.94c.11-.54.21-1.29.31-1.72a20.74,20.74,0,0,0,.82-6.46c-.12-1,0-1.3.2-1.3s.11.11.11,0a7.66,7.66,0,0,0-1.09-2.14,8.55,8.55,0,0,1-.54-1.08c0-.1-.11-.21-.55-.21s-.75-.1-.43-.32.43-.43.32-.54.11-.32.43-.65a7.93,7.93,0,0,0,1.17-1.94,1.62,1.62,0,0,1,.75-.76c.42-.22.74-.54.74-.65s.11-.11.22-.22.11-.11-.11-.32l-.22-.21.43.1h.54v-.32l-.11-.22h1.51c1,0,1.5,0,1.5-.12s1-1.08,1.39-1.3S385.22,677.23,386.08,677.44ZM397.73,726a11.09,11.09,0,0,1-3.12.88,14,14,0,0,0-4.4,1.11c-.54.22-1.18.55-1.5.66-.65.32-.86.54-.75,1.4a6.9,6.9,0,0,0,1.09,2.25c.33.54.66,1.18.77,1.4a3.05,3.05,0,0,0,.43.75,1.2,1.2,0,0,0,.86.21,6.38,6.38,0,0,0,1-.44,6.14,6.14,0,0,0,1.6-1.73,12.9,12.9,0,0,1,.86-1.09,17.13,17.13,0,0,0,1.28-1.51c.32-.43.74-1,1-1.3s.42-.54.31-.65.11-.21.22-.43.31-.65.42-1C397.94,725.89,397.94,725.89,397.73,726Z" transform="translate(-258 -272.77)"/><path class="cls-1" d="M404.94,802.49a5.53,5.53,0,0,1,1.07.42c.87.21,1,.32,1.73,1.17a3.06,3.06,0,0,0,1.41,1,10.16,10.16,0,0,1,4.43,2.87c.33.32,1.09,1.18,1.74,1.82,1.95,1.82,3.14,3.42,3.37,4.6a13.72,13.72,0,0,0,1.74,3.22,8.77,8.77,0,0,1,1.64,3.65,2.1,2.1,0,0,0,.22.64,2.24,2.24,0,0,1,.22.65c0,.1.11.21.22.32.32.21-.21,1.61-.74,2.15-.32.33-.32.44-.21,1a4,4,0,0,1-.52,2.38c-.1.32-.42,1-.63,1.51s-.64,1.4-.64,1.51c-.11.32-.74,1.29-1.27,2.27a8.13,8.13,0,0,0-1,2.26,6.29,6.29,0,0,1-.42,1.41,4.42,4.42,0,0,0-.2,1.18,2.88,2.88,0,0,1-.64,1.73,9.23,9.23,0,0,0-.53,1,6.53,6.53,0,0,1-1.17,1.41,11.05,11.05,0,0,0-2.45,4.43,11.9,11.9,0,0,1-2.45,3.46,15,15,0,0,0-1.28,1.19c-.32.33-.64.54-.75.65a5.11,5.11,0,0,0-2.24,2.71c-.11.32-.21.54-.42.65a4.3,4.3,0,0,0-1.08.86,9.11,9.11,0,0,1-1.28,1.09c-.32.11-.53.33-.53.43a3.24,3.24,0,0,1-.86.87c-.11,0-.43.33-.85,1.08a3.16,3.16,0,0,0-.43.87,4.4,4.4,0,0,1-1.49,2.48,9.11,9.11,0,0,1-1.28,1.09,11,11,0,0,0-1.18,1,3.16,3.16,0,0,1-1.17.66,6,6,0,0,0-1.18.65,2.43,2.43,0,0,1-1,.44,3.66,3.66,0,0,0-1.82,1l-.64.44.64-.76c.32-.43,1.39-1.41,2.24-2.28a9.75,9.75,0,0,0,1.49-1.73c0-.11-.1.11-.21.11a1,1,0,0,0-.54.43.91.91,0,0,1-.75.44c-.1,0-.21.11-.42.22a25.38,25.38,0,0,1-3.54,2.07,12.13,12.13,0,0,0-2.57,1.74,22.32,22.32,0,0,1-2,1.41,1.64,1.64,0,0,0-.64.44,3.28,3.28,0,0,1-.75.54,3.78,3.78,0,0,0-.75.54,2.32,2.32,0,0,1-1.39.66,7,7,0,0,0-2.58,1.09,9.69,9.69,0,0,1-1.28.77c-.22.1-.43.11-.32.21s-.75,1-.86.87-.11-.11,0-.32.1-.33,0-.43-.11-.22.1-.33.21-.21.21-.32.32-.33.54-.44c.53-.32,1.5-1.3,1.17-1.3a4.92,4.92,0,0,0-1.71.88c-.54.32-1.07.65-1.29.76a4.81,4.81,0,0,0-.85.65,1,1,0,0,1-.54.33c-.11,0,4.06-4,4.92-4.77,1.71-1.41,3.42-2.82,4.59-4,2.46-2.38,7.37-8.33,8.11-9.85a37.42,37.42,0,0,1,4.26-6.7,16.42,16.42,0,0,0,1.49-2.16,11.51,11.51,0,0,1,1-1.51,5.83,5.83,0,0,0,1.49-2.71,20.88,20.88,0,0,1,.73-2.48c.53-1.61,1.06-3.34,1.27-4.09a20.66,20.66,0,0,1,1.37-3.46,2.45,2.45,0,0,0,.32-1.08,5,5,0,0,1,.31-1c.11-.32.42-1.29.63-2.15s.42-1.84.52-2.16a12.84,12.84,0,0,0,.2-2.91,26.28,26.28,0,0,1,.08-3.23l.11-1-1.1-2.58-1.08-.53c-1.19-.64-1.84-1.17-1.41-1.07H402c.22-.11.11-.21-.11-.32s-.1-.11.33-.11c.64,0,.86-.12.64-.33s-.32-.1-1.4.12a2.59,2.59,0,0,1-1,.11,5.65,5.65,0,0,1-2.15-.52c-.22-.32-1.08,0-1.83.55s-1,.55-2.47.45h-1.29l-.54.54a1.85,1.85,0,0,1-1.93.66l-.75-.1-.64.43a8.14,8.14,0,0,0-2.24,3.14,5.73,5.73,0,0,1-1.28,1.73c-1.18,1.08-1.39,2-.84,2.59.21.32.21.32.11.86a3.82,3.82,0,0,1-1.28,1.73,6.1,6.1,0,0,0-.74,1,1.81,1.81,0,0,1-.65.65,3,3,0,0,0-1.28,1.3,2.29,2.29,0,0,0-.1.87c0,.32,0,.53-.1.64a.64.64,0,0,0,.33,1c.32.1.32.1.21.32a.88.88,0,0,0,.23,1.18c.65.64.65,1.07-.2,1.94a4.51,4.51,0,0,0-1.17,2.27,3.35,3.35,0,0,1-.32,1c-.21.43-.21.43-.53.54a2.15,2.15,0,0,0-.75.33,3.09,3.09,0,0,1-1,.22,1,1,0,0,0-.75.33l-.21.22-.22-.22c-.22-.21-.22-.21-.32-.1s-.33.11-.65.11-.54-.1-.65,0-.64-.1-1.51-.63a8.18,8.18,0,0,0-.86-.53,31.49,31.49,0,0,1-4.33-3,1.65,1.65,0,0,0-.64-.42,2.44,2.44,0,0,1-1-.32c-.54-.32-.64-.31-.86-.21s-.32,0-.54-.21-.43-.53-.65-1l-.55-1.07a14.18,14.18,0,0,1-1.2-2.9l-.33-1.29.21-.65c.1-.32.21-.54.32-.54s.21-.21.32-.54c.21-.54.31-.75,2.34-2.92a28.16,28.16,0,0,0,1.92-2.27.58.58,0,0,1,.43-.33c.22,0,.43-.22.32-.43s0-.22.11-.22.21-.21.21-.54V820l.11.43c.11.43.43.54.43.22,0-.11,0-.33.11-.22s.21-.11.42-.33a1.41,1.41,0,0,0,.32-1.07c0-.54,0-.54.21-.44a.39.39,0,0,0,.32.11c.22-.11.76.75.87,1.18a7.17,7.17,0,0,0,.23,1.18c.33,1.4.44,1.5,1.09,1.71a5.41,5.41,0,0,0,2.9-.12c.43-.12.86-.33,1-.33a15.33,15.33,0,0,0,1.71-1.63c1.81-1.74,3.74-3.58,4.59-4.23a20.23,20.23,0,0,0,4-3.36,25.6,25.6,0,0,1,4.39-3.8,22,22,0,0,1,4.18-2.4,4,4,0,0,0,1.18-.55,3.73,3.73,0,0,1,1.82-.55,1,1,0,0,0,.75-.32c.22-.22.43-.44.54-.44s.21,0,.21-.11.11-.11.22-.11a6.06,6.06,0,0,0,2-.76,7.55,7.55,0,0,0,1-.87l.53-.54H404c.43,0,.75.1.75,0S404.83,802.49,404.94,802.49Zm-8.8-26.74c1.51.21,4,2.34,4.76,4a3.1,3.1,0,0,1,.33,1,1.93,1.93,0,0,0,.54.75,9.38,9.38,0,0,1,1.85,2.57,1.11,1.11,0,0,1-.21.64,4,4,0,0,0-.42.76l-.22.43.55,1.5a18,18,0,0,1,1.55,6,10.73,10.73,0,0,1-.94,3.77,7,7,0,0,1-1.39,1.84,6.37,6.37,0,0,1-2.89,1.74,4.44,4.44,0,0,0-1,.23,1.77,1.77,0,0,1-1.07,0,3.62,3.62,0,0,1-.65-.31c-.11-.11-.22-.11-.22,0s-.21,0-.64-.11l-.65-.21-.54.22c-.64.33-.85.44-1.07.12a.83.83,0,0,0-.54-.21,8,8,0,0,0-1.72.33,6.11,6.11,0,0,1-1.5.44,4.59,4.59,0,0,0-.75.33.84.84,0,0,1-.43.22c-.22,0-.22.11-.22.43s-.32.11-.43-.1-.11-.22-.21-.11-.22.11-.22,0,0-.11-.11-.1-.1,0-.1.1a.66.66,0,0,1-.11.44l-.21.21v-.21c0-.22,0-.22-.11-.11s-.54,0-.65-.32c0-.11-.22-.32-.43-.43a1.87,1.87,0,0,1-.54-.32c-.11-.1-.22-.21-.33-.21a4.23,4.23,0,0,1-.65-.21,2.31,2.31,0,0,0-2,.12,10.63,10.63,0,0,1-1.07.44,20.73,20.73,0,0,0-5.25,4,21.37,21.37,0,0,0-1.81,2.49,3,3,0,0,1-.53.65,48.76,48.76,0,0,0-3.61,6.59c-.22.43-.32.75-.32.65a12.64,12.64,0,0,1,.84-2.27,3.52,3.52,0,0,0,.43-1,23.92,23.92,0,0,1,1.59-3.56,2.61,2.61,0,0,1,.42-.76,34.81,34.81,0,0,1,2.24-3.46,9.49,9.49,0,0,0,.74-1.19,4,4,0,0,1,.53-.86,39,39,0,0,0,4-8.53c.42-1.41.73-3.13.52-3.24a9.91,9.91,0,0,1-2.71-2.88c-.11-.22-.11-.32-.22-.32s-.54-.65-.44-.65.22-.1.43-.21l.32-.11-.32-.32c-.11-.11-.22-.22-.22-.33s.22-.11.54-.22a3.23,3.23,0,0,0,.86-.43l.21-.22-.22-.32c-.33-.54-.22-.54.11-.54a1.17,1.17,0,0,0,.64-.33c.21-.21.54-.43.64-.54s.21-.22.21-.32a.4.4,0,0,1,.11-.33c.21-.21.21-.21.1-.32s-.32-.43.22-.65c.21-.11.85-.54,1.39-.87a13.93,13.93,0,0,1,1.28-1,12.32,12.32,0,0,0,2-2,4.25,4.25,0,0,1,1.29-1.2,7,7,0,0,1,3.76-.45c.64.1,1.08.1,1.18,0a.81.81,0,0,1,.54-.11,2.75,2.75,0,0,0,.86-.23,2.14,2.14,0,0,1,.75-.22A3.45,3.45,0,0,1,396.14,775.75Z" transform="translate(-258 -272.77)"/><path class="cls-1" d="M310.06,509.78a2.58,2.58,0,0,1,.75.33c.32.21.65.1.54,0s0-.11.64.1a9.78,9.78,0,0,1,4,2.69c.43.43,1.61,1.83,2.69,3,2.79,3.12,3.33,3.76,4.09,5.05s.75,1.4.75,1.83a2.37,2.37,0,0,0,.11.87,11.12,11.12,0,0,1,.43,3.44,4.29,4.29,0,0,1-.65,2.9,9.28,9.28,0,0,0-1.07,2.59c-.11.32-.22.86-.33,1.18s-.43.75-.54,1.18c-.1.65-.21.76-.43.76a.78.78,0,0,0-.64.43c-1,1-1.08,1.07-3,1.51-1.73.32-2.59.64-3.23,1.29-.33.32-.54.53-.65.53s-.54-.32-1.07-.53a3.64,3.64,0,0,0-1.73-.43,2.07,2.07,0,0,1-1.18-.44c-.43-.32-.65-.32-.65-.21s-.21.11-.75,0a2.56,2.56,0,0,0-1.29,0c-.75.11-.86.11-2.37-.43a3.69,3.69,0,0,0-1.83-.32c-.75,0-.86.1-1,.21s-.1.11-.21.11-.22-.11-.22,0a3.41,3.41,0,0,1-1.5,0l-.43-.43c-.11-.22-.43-.22-.76-.22a4.52,4.52,0,0,1-.86-.32,2.08,2.08,0,0,0-1-.21c-.64,0-.86-.11-2.47-1.08s-1.83-1.08-1.94-1,0,.22-.11.22a12.35,12.35,0,0,0-1.93,1.29,9,9,0,0,0-1.19,2.69,4.41,4.41,0,0,1-1.29,2.15,3,3,0,0,0-.64.75,3,3,0,0,1-.33.87,1.5,1.5,0,0,1-.64.86c-.32.1-1,.75-.86.86s-.54.75-1.19,1.07a4.09,4.09,0,0,0-1.83,1.72,2,2,0,0,1-1,1.3,4.14,4.14,0,0,0-1.4,1.39c-.11.22-.22.65-.33.87a7.1,7.1,0,0,1-1.61,2.47c-1.08,1.08-1.29,1.4-1.4,2.58-.11.54-.21,1.4-.32,1.83a6.46,6.46,0,0,0,0,2.91c.11.43.11.43-.11.64s-.32.33-.21,1.08a1.67,1.67,0,0,0,.32,1c.11.11.21.75.43,1.18s.75,1.29,1.07,1.83a55,55,0,0,0,9.47,10.55,14.33,14.33,0,0,0,3.88,2.36,34,34,0,0,1,3.76,2.05,15.6,15.6,0,0,0,6,2.8,19,19,0,0,1,2.26.86c1.72.86,2.91,1.07,3.55.64a3.35,3.35,0,0,1,1.62-.43,33.34,33.34,0,0,0,3.76-.64c.76-.22,1-.32,1.29-.76a5.7,5.7,0,0,1,4.52-1.83c.65,0,.76-.1,1.73-1.39a6.07,6.07,0,0,1,1.07-1.19,4.65,4.65,0,0,0,1.19-1.29,9.87,9.87,0,0,0,.75-1.51,3,3,0,0,0,0-1.39c-.11-.44-.22-1.19-.32-1.62a8.46,8.46,0,0,0-.54-1.72,4,4,0,0,0-1.62-1.94c-1.29-1.07-1.5-1.29-1.18-1.72.11-.11,0-.32-.22-.54-.64-.75-1-1.5-.43-1l.22.22-.11-.32a16.9,16.9,0,0,0-.86-2.59,4.89,4.89,0,0,0-.64-1c-.65-.87-1.08-1.62-1-1.62s.1-.21-.11-.43-.32-.32-.22-.43.22.11.43.32c.54.43,1.4.76,1.3.54s-.11-.11,0-.21.21.21.53.64a9.9,9.9,0,0,0,2.91,2.69,3.78,3.78,0,0,1,1.29,1.29,16.79,16.79,0,0,0,2.15,2.59,3.52,3.52,0,0,1,.86,1.07c.33.43.65.76,2.16,1.4s2.26,1.08,2.47,1.4a4.34,4.34,0,0,1,1,1.83c0,.21.21.43.65.75a3.9,3.9,0,0,1,1.72,2.8,11.1,11.1,0,0,0,.32,1.08,2.54,2.54,0,0,1,.21.75c0,.11.44.65.65,1.08a7.17,7.17,0,0,1,1,2.9,13.46,13.46,0,0,0,1.72,3.77l.32.54-.1.86a1.86,1.86,0,0,1-.76,1.4,2.17,2.17,0,0,0-.64,1.18,4.3,4.3,0,0,1-1.19,2.15,1.72,1.72,0,0,1-1.07.54,33.32,33.32,0,0,0-4.42,1.08,4.66,4.66,0,0,1-1.07.32,1.6,1.6,0,0,0-.65.43,35.73,35.73,0,0,1-3,2.26,11.09,11.09,0,0,1-3.12,1.07l-1.4.22-1.08-.11c-.64-.11-1.61-.43-2.26-.53a16,16,0,0,0-1.82-.33c-.43,0-1.3-.21-2.05-.32a21.8,21.8,0,0,0-4.52-.54,3,3,0,0,1-1.4-.21,10.88,10.88,0,0,0-4.3-.76,8.87,8.87,0,0,1-2.26-.21,5.08,5.08,0,0,0-1.83,0,4.73,4.73,0,0,1-1.51-.22,12.55,12.55,0,0,0-1.5-.32,3.78,3.78,0,0,1-1.4-.32c-.43-.11-1.51-.54-2.26-.76s-1.83-.75-2.05-.86-1.93-1.07-3.44-1.83a31.25,31.25,0,0,1-6.24-3.66,10.26,10.26,0,0,0-1.83-1.29,1.82,1.82,0,0,1-.76-.43,3.46,3.46,0,0,0-1.07-.64L275,584.9a27.16,27.16,0,0,1-4-2.59c-.44-.32-1.08-.75-1.4-1a6.93,6.93,0,0,1-2.16-1.82,4.46,4.46,0,0,0-.75-.76c-.11-.11-.54-.75-1-1.29a10,10,0,0,1-2.36-4.63,2.28,2.28,0,0,1,.32-2.15,6.84,6.84,0,0,0,.54-.86c.21-.32.75-1,1.18-1.51l.86-1-.21-.76a9.42,9.42,0,0,1-.22-1.93,3.52,3.52,0,0,1,.32-1.94,11.93,11.93,0,0,1,2.37-3.34c.75-.86,1.08-1.18,1.4-1.18s.54-.22,2-2.37c1-1.29,2.37-3,2.69-3.44a114.22,114.22,0,0,0,9.69-12.7,37.49,37.49,0,0,1,4.2-5.27c1.5-1.73,1.61-1.94,1.39-1.94-.43-.11-1.39-1.08-3-2.8-3-3.23-4.52-5-5.38-6a3.62,3.62,0,0,0-1-1c-.1,0-.21-.11-.32-.22l-1.08-1.07a11.34,11.34,0,0,1-1.83-2.16.24.24,0,0,1,.22-.21c.11,0,.21-.11.32-.11s.11,0,0-.11c-.21-.32.65-.86,1.62-1,.32,0,.54-.1.75-.1.43-.11.43,0-.11.43l-.43.32H280a3.89,3.89,0,0,1,1,.22c.33.1.65.32.76.32,2.26.75,2.36.75,3.33.75a4.14,4.14,0,0,0,1.94-.32,5.6,5.6,0,0,0,1.29-.54c.11-.21.11-.21.22-.11s.21,0,.53-.1.86-.11,1.19-.22c1.07-.21,1.18-.32,1.18-.65s0-.32.75-.53a6.92,6.92,0,0,0,2.59-1.4c1-.76,1.18-.86,2-.86s1.19-.11,2.37-1.19a3.57,3.57,0,0,1,1.18-.86c.33,0,.65-.21.65-.32a12.33,12.33,0,0,1,3.12-2.15,7.07,7.07,0,0,1,2.48-.65A7.69,7.69,0,0,1,310.06,509.78Zm27.22.11c3.12.54,3.88.86,6.35,3a4.18,4.18,0,0,1,1.19,1.73,6.9,6.9,0,0,0,.1,1.18l.11.86-.32.54a9.93,9.93,0,0,0-.86,2.15c-.32,1-1.08,1.4-2.91,1.4a3.54,3.54,0,0,0-2.15.43,2.15,2.15,0,0,1-1.18.32c-.33-.1-.43,0-.65.33a3.42,3.42,0,0,1-.54.75c-.64.75-.53,1,.22,1.83,1,1.07,1.07,1.18,3,1.18s2.58.11,3,.43c.22.11.54.22.76.33s.54.21.64.43c.43.64.33,1-.86,2.69-.21.32-.54.53-2.15,1.29a12.39,12.39,0,0,1-2.15,1,.86.86,0,0,0-.54.1c-.11,0-.22.11-.32,0s-.22-.1-.65.11c-1.07.43-2,.22-3.77-.86a13.85,13.85,0,0,1-4-3.87,1.82,1.82,0,0,1-.43-1.29,10.21,10.21,0,0,1,1.4-3.77A25,25,0,0,1,334,519a8.38,8.38,0,0,0,1.61-1.72l.33-.43-.33-.33c-.21-.21-.43-.32-.54-.53a4.49,4.49,0,0,0-1.29-1.19c-.86-.64-1.18-.75-1.5-.75s-.65-.22-.86-.65c-.11-.21-.11-.21,0-.54s.21-.32.1-.43.11-.21.33-.32a1.33,1.33,0,0,0,.64-.86c.11-.43.22-.65.43-.75s.32-.22.32-.33a.63.63,0,0,1,.65-.43,4.27,4.27,0,0,0,.65-.1A9.56,9.56,0,0,1,337.28,509.89Z" transform="translate(-258 -272.77)"/><path class="cls-1" d="M289.42,602.35a3.17,3.17,0,0,1,1.29.43,3,3,0,0,0,1.08.32c1.29.11,1.61.22,3.87,1.4a12.51,12.51,0,0,1,4.41,3,6.34,6.34,0,0,0,1.19,1.07c.32,0,.32,1.94,0,2.15-.11.11-.11.44-.11.76s.11.64.21.64.33.22.54.54a6.69,6.69,0,0,0,.75.86,7.57,7.57,0,0,1,1.3,1.29c.21.22,1.18,1.29,2.26,2.37a15.92,15.92,0,0,1,2.15,2.58c.1.33.32.65.32.76s.32.86.65,1.72a11,11,0,0,1,.53,1.83c0,.11-.1.11-.21.11a.33.33,0,0,0-.32.32c0,.32-.11.43-.33.21s-.21-.1-.43.11-.54.32-.75.43c-.54.11-1.4.65-1.4.86s-.21.22-.43.22c-.54.11-.86.43-.86.86s0,.43-.54.75-.54.43-.54.65a.7.7,0,0,1-.1.43,6.79,6.79,0,0,1-1.51.75,1.23,1.23,0,0,0-.65.32c-.32.33-.32.43-.1.43s.21,0,0,.11h-.33c-.1-.11-.21.22-.21.43s-.65.65-1.51.86c-.32.11-.65.22-.54.22s-.21.43-1.07,1.07c-.43.33-1,.65-1.29.87a1.94,1.94,0,0,1-.76.43c-.64,0-1.29,1-1.5,2.15a9.94,9.94,0,0,1-.33,1.18c0,.22-.11.65-.11,1.08s.33,1.29.54,1.4.11.21.11.32-.11-.11-.32-.32-.33-.54-.43-.43.54,1.29.86,1.5.86.43,1.4.65c2.69,1,5.27,2.69,5.92,4a2.19,2.19,0,0,0,1.83,1.29,5.58,5.58,0,0,1,2.26,1.08,4.35,4.35,0,0,1,.86,1.72,3.91,3.91,0,0,0,.64,1.08c.32.32.86,1.07,1.29,1.61s.86,1.18,1.08,1.51a6.92,6.92,0,0,1,.65,1.18c.1.32.32.65.42.65s.11.1.11.21a11.85,11.85,0,0,0,.43,2.8,3.71,3.71,0,0,1,.22,1.08,3.21,3.21,0,0,0,.54,1.72c.21.32.21.32,0,.64A11.8,11.8,0,0,0,312,666c0,.43-.11.64-.54.75h-.33l.54.54c.33.32.54.54.54.65a4.68,4.68,0,0,1-2.37-.11c-.86-.32-1-.32-1.5.21-.33.33-.65.65-.76.65a4.47,4.47,0,0,1-2.36-.86,8.49,8.49,0,0,0-1-.32,10,10,0,0,1-1.72-.76c-1.51-.75-1.83-.86-3.23-.54a15.42,15.42,0,0,1-4.31.43,11.15,11.15,0,0,0-3.22-.1,3.71,3.71,0,0,1-.87.21,4.21,4.21,0,0,0-1.18.43,10.2,10.2,0,0,1-4.09.76c-1.5,0-3.23.43-3.44.75a.56.56,0,0,1-.43.21,3.3,3.3,0,0,0-1.29.65l-.86.65h-5.71l-1.72.64a17.4,17.4,0,0,0-2.48,1.29,8.94,8.94,0,0,0-2.25,2.26c-.11.22-.43.54-.54.76l-.22.32.22.75a6.85,6.85,0,0,0,3.66,4.41,3.39,3.39,0,0,0,1.29.54,7.78,7.78,0,0,1,2.58,1,9,9,0,0,0,1.08.54,26.45,26.45,0,0,1,3.12,1.51,12.2,12.2,0,0,0,3.66,1.18,23.84,23.84,0,0,1,6.56,1.72c.64.22,2.37.75,2.8.86,1,.22,2.36.54,3,.76l1.18.32.76-.76a9.28,9.28,0,0,1,1.5-1.29,6.64,6.64,0,0,0,1.73-1.4,8,8,0,0,0-.76-2.69,2,2,0,0,1-.21-.64c0-.11.1-.32,0-.22s-.11,0-.22-.1,0-.11.22-.33.32-.21.43-.21.54.1,1.07.21c1.08.22,1.3.33,1.51.54s.32.11.65,0a4.09,4.09,0,0,1,1.72-.11,19.2,19.2,0,0,0,2.26.22,6.5,6.5,0,0,1,3.44.86c.76.32,1.62.86,1.94,1,1.29.54,2.15,1,2.15,1.18s.11.22.32.32a3.45,3.45,0,0,1,1.51,1.19,6.89,6.89,0,0,1,.43,1.18,2.8,2.8,0,0,0,.43,1c.11.22.11.43,0,.43a1.74,1.74,0,0,0-.43,1.18,3.36,3.36,0,0,1-2.47,2.7,5.42,5.42,0,0,0-.87.43,1.61,1.61,0,0,1-1,.21,4.05,4.05,0,0,0-1.08.21c-.32.11-1.4.44-2.26.65a8.69,8.69,0,0,1-2,.32,2,2,0,0,0-.54-.21,16.78,16.78,0,0,0-3.12.11,7.72,7.72,0,0,0-1.51.32,3,3,0,0,1-1.72.43,2.9,2.9,0,0,1-1.94-.43,7.24,7.24,0,0,0-2.8-.75,8.7,8.7,0,0,1-1.29-.44,12.78,12.78,0,0,0-3.44-1.07,6.87,6.87,0,0,1-2.69-.75,27.81,27.81,0,0,0-4.09-1.83A14.05,14.05,0,0,1,282,690a5.37,5.37,0,0,0-2.36-.33,6.56,6.56,0,0,1-4-1.18,6.26,6.26,0,0,0-1.29-.75,5.61,5.61,0,0,1-1-.43,36.57,36.57,0,0,0-4.19-1.51c-.54-.22-1.4-.54-1.72-.65a5.12,5.12,0,0,0-1.08-.53c-.32-.11-.86-.33-1.08-.43-.43-.22-.43-.22-1,0l-.53.21-1.08-.21a11.94,11.94,0,0,1-1.72-.54,9.54,9.54,0,0,1-2.37-2.8l-.54-.86-.1-2.26c0-1.94,0-2.26.21-2.58a2,2,0,0,0,.32-1.4c-.1-.22,0-.33.22-.54a2.44,2.44,0,0,0,.43-.65,5.34,5.34,0,0,1,.86-1.72,7.27,7.27,0,0,0,.32-.86,3,3,0,0,1,.54-1,3.2,3.2,0,0,0,.54-.75,3.18,3.18,0,0,1,3.44-1.4,1.22,1.22,0,0,0,1.08-.11,1.58,1.58,0,0,1,1.29-.21c.43.1,1,.32,1.08.32.32.11.75-.11,1.5-.65.43-.21,1.19-.53,1.72-.75a39.28,39.28,0,0,1,5.92-1.5,4.83,4.83,0,0,0,1.62-.44,5.57,5.57,0,0,1,1.18-.53,49.88,49.88,0,0,0,8.72-5.17,26.14,26.14,0,0,0,3.55-3.12.63.63,0,0,0-.11-.43,1.74,1.74,0,0,1-.21-1.18c0-.11-.22-.43-1.83-1.94-1.08-1-2.16-2.05-2.48-2.26a20.67,20.67,0,0,1-4-4.09c-.32-.54-1-1.72-1.4-2.58l-.75-1.51-1.51.11H277.9a10.86,10.86,0,0,1-3.22-.54.83.83,0,0,0-.44-.11c-.21,0-3.44-1.72-4.19-2.15a38.1,38.1,0,0,1-3.55-2.8,37.07,37.07,0,0,1-3.45-3.76.7.7,0,0,1,.54-.54c.11,0,.11-.11,0-.43-.21-.65-.21-.86,0-.86s.22-.22.32-.33l.33-.32a.86.86,0,0,0,.21-.43A1.34,1.34,0,0,1,265,628c.43-.21.54-.21,1.72-.11a24.82,24.82,0,0,0,3,.11,20,20,0,0,0,3.13-.21c3.65-.86,7.31-2.26,7.53-2.8.11-.22.43-1.4,1-2.8s1.07-2.8,1.18-3a1.26,1.26,0,0,0,.11-1.08c-.22-.64-.11-.86.11-.32l.21.21.22-.64a3.66,3.66,0,0,0,.32-1.61v-1l-.54-.65a3.9,3.9,0,0,0-1.51-1.08,5.36,5.36,0,0,1-1.18-.75l-.32-.32.21-.65a3.78,3.78,0,0,1,1.08-1.4,10.7,10.7,0,0,0,1.18-1.4,8.39,8.39,0,0,1,.86-1,12,12,0,0,0,2.37-2.37,7.46,7.46,0,0,1,2.15-1.94c.33-.21.86-.54,1.08-.64A1.83,1.83,0,0,1,289.42,602.35Zm37.45,6.78a6.86,6.86,0,0,1,3,1.61c.43.33,1,.76,1.18,1a2.65,2.65,0,0,1,1,1.51c.11.43.22,1.08.33,1.51a2.11,2.11,0,0,1-.33,1.61,8.78,8.78,0,0,0-.86,1.94,2.62,2.62,0,0,1-.43.75c-.65.54-1,.54-2.26.54a3.7,3.7,0,0,0-2.15.43,6.07,6.07,0,0,1-1.4.32c-.32,0-.32,0-.54.33a5.16,5.16,0,0,1-.64.86,1.53,1.53,0,0,0-.43.64c0,.22.32.65,1.29,1.62.64.64,1,.75,2.58.64a5.12,5.12,0,0,1,3,.43c.22.11.54.22.76.32a1.18,1.18,0,0,1,.75,1.08,10,10,0,0,1-.65,1.4l-.64,1.07-1.94.87c-1.72.86-2,1-2.58,1a3.32,3.32,0,0,0-1.19.22c-.86.43-2,.11-3.76-1a14.49,14.49,0,0,1-3.88-3.76,1.85,1.85,0,0,1-.43-1.3,9.53,9.53,0,0,1,.86-2.9,6.43,6.43,0,0,1,1.83-2.15,17.82,17.82,0,0,1,1.94-1.73,4.17,4.17,0,0,0,1.62-1.72l.32-.53-.43-.54c-.22-.33-.43-.43-.43-.54a4.29,4.29,0,0,0-1.19-1c-.86-.65-1.18-.75-1.5-.75a1.15,1.15,0,0,1-.65-.22.83.83,0,0,1-.21-1.08.66.66,0,0,0,.1-.42c0-.11.22-.22.43-.33s.43-.32.54-.86c.11-.32.11-.64.22-.64a.59.59,0,0,0,.43-.33,1.78,1.78,0,0,1,.75-.43C322.45,608.27,324.39,608.48,326.87,609.13Z" transform="translate(-258 -272.77)"/><path class="cls-1" d="M325.16,695.63a38.47,38.47,0,0,1,9.58,4.84c1.51,1,1.83,1.3,1.83,1.83a7.34,7.34,0,0,0,1.61,2.16c.32.21,1,.75,1.51,1.07a31.51,31.51,0,0,1,4.52,3.45,5.14,5.14,0,0,1,1.4,2.58,6.85,6.85,0,0,1,.21,1.61,2.6,2.6,0,0,0,.54,1.62,6.7,6.7,0,0,1,1.08,3.23,3.6,3.6,0,0,0,.53,1.83,25.83,25.83,0,0,1,1.29,2.25l.76,1.4v1.73l.11,1.72.64,1.18a18.92,18.92,0,0,1,1.83,6.35c.11.65.11,1,0,1.08s-.11.1-.21-.11-.22-.43-.54-.11c-.11.11-.22.54-.43,2.37a10.89,10.89,0,0,1-.33,2c0,.22-.1.86-.1,1.29a5.64,5.64,0,0,1-.33,1.3c-.1.32-.1,1-.21,1.61a7.15,7.15,0,0,1-1,3.23,19.59,19.59,0,0,0-1.18,2.9c-.22.54-.54,1.19-.65,1.51s-.32.75-.43,1.08a10.78,10.78,0,0,1-1.83,2.69,2.46,2.46,0,0,0-.43.53,1.28,1.28,0,0,1-.54.54.61.61,0,0,0-.32.54c0,.22-.21.43-.43.65s-.22.53-.32.75a1.11,1.11,0,0,1-.43.54c-.33.11-.33.21-.11.21s.21,0,.21.11-.75.11-1.18-.21-.54-.33-.65-.22a.78.78,0,0,1-.43.22,2.12,2.12,0,0,0-.64.21c-.22.11-.43.32-.54.32a.81.81,0,0,0-.43.22c-.11.11-.43.21-1.29.21a3.47,3.47,0,0,1-1.61-.32,3.59,3.59,0,0,1-1.08-.64c-.43-.33-.43-.33-1.19-.33h-.86l-1.18-1.4-1.29-1.4h-.75c-1.94,0-1.94,0-2.59-1a6.56,6.56,0,0,0-2-1.83,76.82,76.82,0,0,0-8.93-2.59c-1.08-.1-3.88-.86-3.23-.86.21,0,.11,0-.11-.1a.63.63,0,0,0-.43-.11c-.11,0-.11.11-.22,0a3.74,3.74,0,0,0-1.83-.65,13.5,13.5,0,0,1-2.47-.43c-.11-.11-.11-.11-.22-.11h.87l-.54-.1c-.54-.22-1.29-.54-1.19-.65s.33,0,.65.11.43.21.54.11-.11-.22-.33-.33-.21-.32-.1-.32a1.5,1.5,0,0,1,1.18,0,3.27,3.27,0,0,0,1.19.22c1.5.1,5,.53,5.81.64,1.4.32,2.9.65,5,1a13.69,13.69,0,0,1,1.83.11c.76,0,1.62.21,1.94.21s.54,0,.54-.1,0-.11-.11-.11-.11,0-.11-.11a.4.4,0,0,0-.1-.32c-.11-.11-.11-.11.21-.11s.32-.11.22-.32-2.37-.54-4.2-.65c-.86-.11-2.26-.32-3-.43a20,20,0,0,0-2.16-.21,6.89,6.89,0,0,1-1.5-.11,7.15,7.15,0,0,0-1.51-.22,3.91,3.91,0,0,1-1.18-.1,4.39,4.39,0,0,0-1.51-.22,21,21,0,0,1-2.58-.11c-1.94-.21-5.28-.43-7.43-.43h-1.83l-.1.65a3.46,3.46,0,0,0-.11,1.83c.11.43.21.64.11.75s-.11.22.1.54a.93.93,0,0,1,.22.86,5,5,0,0,1-.11.54c0,.43-.32.75-.54.64s-.32.22-.43.76a.69.69,0,0,0,.22.86,2.67,2.67,0,0,1,.86,1.72c.11.32.21.75.32,1.07a5.37,5.37,0,0,0,1.18,1.83c.33.11.33.76.11,1.3a1.1,1.1,0,0,0-.11,1c.11.54.11,1-.53,2.26a29,29,0,0,1-2.37,3.45,4.46,4.46,0,0,1-1,1,7.28,7.28,0,0,1-2.47.32c-2.05.11-2.69.11-3-.11a2.39,2.39,0,0,0-.86-.32,7.18,7.18,0,0,1-2.69-1.4c-.32-.22-1-.54-1.51-.86a13.67,13.67,0,0,1-3-2.26c-.43-.43-1.4-1.51-2.15-2.26A61.4,61.4,0,0,1,272.32,749a21.46,21.46,0,0,1-2.58-5.92,8.61,8.61,0,0,1-.11-1.94c0-2.15.22-2.69,2.05-6.24,2.37-4.52,2.69-5.17,3.33-7.53a6.14,6.14,0,0,1,1.94-3.45c.54-.53,1.08-1,1-1.07a.24.24,0,0,1,.21-.22c.11,0,.22-.1.33-.21s.54,0,1,.32c.21.22.32.22.43.11s.75-.22.86,0,.1.11.1,0-.21-.32-.43-.32-.21-.33,0-.44.22.11.43.33a2,2,0,0,0,.76.54c.54.21.86.43,1.4,1.5a4.05,4.05,0,0,1,.32,1.83,4,4,0,0,0,.11,1.4,1.47,1.47,0,0,1-.22,1.29,3.31,3.31,0,0,0-.21,1.4,10.7,10.7,0,0,1-2.05,5.81,10.55,10.55,0,0,0-2.26,4.95,6.79,6.79,0,0,1-.21,1.51c-.22,1.07-.11,1.4,1,2.47a4.4,4.4,0,0,1,1.07,1.51,3.63,3.63,0,0,0,1.83,2.15,2.45,2.45,0,0,1,1.62,1.62,3.32,3.32,0,0,0,1.93,2,4.45,4.45,0,0,0,.76.22c.1,0,.21.1.32.21a3.11,3.11,0,0,0,1.83.65,3.16,3.16,0,0,0,2.15-1l.75-.54.33-1.18a7.8,7.8,0,0,1,.86-1.72,6.36,6.36,0,0,0,1.18-3.45,3.13,3.13,0,0,1,.54-1.72c1-1.72,1.83-3.77,1.72-4.3-.11-.33.43-1.62,4.63-9.26s5.38-10,6.78-13.67a33.86,33.86,0,0,1,3.23-6.67,14.58,14.58,0,0,0,1.18-2.79,22.06,22.06,0,0,1,.86-2.16c.32-.75.32-1,.22-1.18s0-.32.1-.43.11-.11,0-.22-.1-.32.43-.64.65-.43.43-.65.11-.86.33-.86.11-.11-.11-.32-.22-.54.11-.33c.11,0,.21,0,.43-.21l.21-.22-.21-.32c-.22-.21-.22-.21-.11-.32.43-.22.86-.65.75-.75s0-.33.11-.43.11-.33,0-.33,0-.21.32-.21a1.15,1.15,0,0,0,.65-.22.38.38,0,0,0,.11-.32c-.22-.22-.22-.32.54-.43.53-.11.64-.11.64-.22s.65-.32,2.15-.32a3,3,0,0,0,1.83-.32,9.81,9.81,0,0,1,1.08-.54C323.55,695.1,323.55,695.1,325.16,695.63Zm-7.85,13.13a6,6,0,0,0-1.62,1.72,14.33,14.33,0,0,1-2.26,2.8,22.27,22.27,0,0,0-3.44,4.41c0,.22-.33.65-.43.54s-.22.11-.33.22a27.81,27.81,0,0,0-2.58,3.12c-.43.75-2.8,5.48-3.66,7.42-.32.86-1.07,2.37-1.5,3.34a21,21,0,0,0-1,2.8,19.59,19.59,0,0,1-.76,2.36,34.17,34.17,0,0,0-1.29,4.85,9.32,9.32,0,0,0-.1,1.72v1.07h4.3c5.16.11,11.41,0,14.2-.1,1.19-.11,3.34-.22,4.85-.22a48,48,0,0,0,6.56-.54,2.78,2.78,0,0,0,1.4-.54A4.4,4.4,0,0,0,331,742a6.41,6.41,0,0,1,.76-1.07,6.43,6.43,0,0,0,1.39-3c.43-2.47.43-3,.22-4.08a15.86,15.86,0,0,1-.22-2.27c-.32-5.59-.43-6.77-1.5-11-1.19-4.63-1.83-6.35-3.34-8.83-.64-1.07-1-1.5-1.4-1.72-.21-.11-.43-.32-.64-.43a.94.94,0,0,0-.76-.21,6.52,6.52,0,0,1-2.26-.54c-.1-.11-.43-.11-.64-.11a15,15,0,0,1-1.62-.21C318.92,708.22,318,708.33,317.31,708.76Z" transform="translate(-258 -272.77)"/><path class="cls-1" d="M313.11,766.3l.32.21c.22.11.32,0,.32-.11.11-.43,1.51.54,2.59,1.62a28.26,28.26,0,0,1,4.09,5c.21.54.64,1.18.75,1.51a15.59,15.59,0,0,1,1.08,2.25,4.56,4.56,0,0,1,.43,1.62,2.23,2.23,0,0,0,.86,1.72c.21.22.53.43.64.54a4.67,4.67,0,0,0,.76.43c.21.11.53.43.75.54a10.77,10.77,0,0,1,1,.54c.43.21.75.53.75.64s.22.32,1.61,1c.33.11,1.51,1.4,1.4,1.51s.11.32.33.64.43.43.43.54a1.82,1.82,0,0,0,.54.75,4.41,4.41,0,0,1,1.18,2.16,1.61,1.61,0,0,0,.21.64.8.8,0,0,1,.11.43,2.31,2.31,0,0,1-.86,1.19,2.8,2.8,0,0,1-1.29,0c-.11-.11-.22,0-.43.21s-.65.54-.86.43a2,2,0,0,0-.76.32c-.53.33-.53.33-.64.11s-.22-.21-.54,0-.54.22-.54.11-.43-.11-.54.11-.1,0-.21,0-.11,0,0-.11a.39.39,0,0,0,.11-.32c0-.11,0-.11-.22.1s-.64.33-.75,0-.22-.21-.43-.1-.54.1-.65,0a.81.81,0,0,0-.43-.22c-.11,0-.43-.21-.75-.32a1.8,1.8,0,0,0-.75-.32.4.4,0,0,1-.33-.11c-.54-.32-1.18-.65-1.5-.86l-.65-.33-.22.43a27.94,27.94,0,0,0-1.18,4.52c-.11.65-.21,1.29-.21,1.4v.43c.1.22,1.29.11,2.58-.21a7.28,7.28,0,0,1,1.94-.22,2.25,2.25,0,0,1,1.07.22.79.79,0,0,0,.43.21,3.06,3.06,0,0,1,1,.54c.43.32,1.08.86,1.51,1.19a17.12,17.12,0,0,1,3.33,3.44c.76,1.08.86,1.29.65,1.4s0,.11,0,.21-.11.22-.22.33-.32,1-.1,1.07.1.22,0,.43a1.52,1.52,0,0,0-.22.65c0,.11.11.32,0,.43s-.11.11-.11,0,0-.11-.1-.11-.11.11-.11,0-.76-.11-1.08.22c-.21.1-.43.32-.54.32h-.32c-.11,0-.43.43-.86.75a3.59,3.59,0,0,0-1.08,1.4c-.43.76-1.29,1.72-1.72,1.72a4.73,4.73,0,0,0-1.18,1.29c-.54.76-1.29,1.73-1.72,2.26a8.32,8.32,0,0,0-1.29,1.62,8.35,8.35,0,0,1-2.37,2.37c-.43.32-.75.53-.75.64a2.84,2.84,0,0,1-.33.86l-.43.76.11,1.82a8,8,0,0,0,1.83,5.28c.32.32.43.54.43.64a2.87,2.87,0,0,0,.43.76c.32.54.32.54.32,1.4a10.85,10.85,0,0,0,.11,1.83,3.65,3.65,0,0,0,.65,1.82,20.27,20.27,0,0,1,2.15,4.31c-.11.11-.11.21,0,.43a1.13,1.13,0,0,1,0,.86,4.42,4.42,0,0,0-.22.75,1.69,1.69,0,0,1-.86,1.19,7.12,7.12,0,0,0-1.83,1.61c0,.22.43.32.54.22s.11,0,.11.21-.11.43-.22.43-.43.32-.75.86-.43.54-.65.54c-.43,0-1.07.65-1.5,1.4a8.07,8.07,0,0,1-1.29,1.72,3.38,3.38,0,0,0-.54.65,3.4,3.4,0,0,1-.33.64c-.1.11,0,.22,1.08.86a82.88,82.88,0,0,0,8.5,4.52,18.21,18.21,0,0,0,4.52,1.51c1.94.22,2.05.22,2.26,0s.43-.32.43-.43a7.39,7.39,0,0,1,.76-.54c.64-.43.75-.43,1.07-.43a2,2,0,0,1,.65.32,2.58,2.58,0,0,0,.75.33c2,.64,5.7,2.8,5.7,3.55a1.13,1.13,0,0,0,.22.54.37.37,0,0,1,.11.32c0,.11,0,.21.1.21s.11.11.11.22a.63.63,0,0,0,.11.43c.11.22.11.22,0,.54a1.19,1.19,0,0,1-1.08.64.79.79,0,0,0-.53.22,7.61,7.61,0,0,1-.87.64l-.64.44h-2.48a37.39,37.39,0,0,1-6.78-.44,26.3,26.3,0,0,1-7.64-2.25c-3.65-1.4-4.62-1.73-6.56-2.37a30.13,30.13,0,0,1-3.66-1.62l-2.26-1.18-1,.11c-.86.11-.86.11-1.29-.11-.75-.43-1-.43-1.61.11a16.49,16.49,0,0,1-4.52,2.69,12.37,12.37,0,0,1-3.45.86,3.71,3.71,0,0,0-1.72.54,5.08,5.08,0,0,1-2.47.64,4.66,4.66,0,0,0-1.62.22c-.43.11-.75.11-2.69-.54a7.92,7.92,0,0,0-2-.43c-.54.21-.65.11-1.4-.65a3.16,3.16,0,0,0-1-.75,1,1,0,0,1-.54-.32c-.21-.22-.32-.33-.43-.33a5.55,5.55,0,0,1-2.26-1.61,2.3,2.3,0,0,1-.86-1.4,2.94,2.94,0,0,1-.11-.86c.11-.22.65-1.51,1-2.15a37.33,37.33,0,0,0,1.29-5.17,5.13,5.13,0,0,0,0-2.58A6.79,6.79,0,0,1,282,843a3.57,3.57,0,0,0-.11-1.18,13,13,0,0,1,.11-1.61,20.82,20.82,0,0,1,.64-3.23,3.21,3.21,0,0,1,.43-.86,3.05,3.05,0,0,0,.54-.65,8.2,8.2,0,0,1,.76-1,1.75,1.75,0,0,0,.32-.64c0-.22,0-.22.21-.22.54,0,1.4-.75,1.4-1.18,0-.11.22-.33.43-.43,1.08-.65,1.3-.86,1.3-1s.64-.54,1.07-.54a3.7,3.7,0,0,1,1.72.65c.22.1,1,.64,1.72,1.07a11.58,11.58,0,0,1,1.94,1.4,7.66,7.66,0,0,0,2.58,1.72,32.92,32.92,0,0,1,6.25,4.31c.43.32,1,.75,1.07.86s.32.11.54-.22a14.2,14.2,0,0,0,2.58-5.27,9.15,9.15,0,0,0,0-6.13c-.21-.86-.86-3.23-1.07-4.09l-.11-.33h-1.18c-1.08,0-1.19,0-1.4.22a6.22,6.22,0,0,1-3.45,1,7.07,7.07,0,0,1-3.23-1.62c-.43-.32-1.18-.86-1.83-1.29s-1.29-1-1.61-1.18a1.18,1.18,0,0,0-1.08-.43,2.27,2.27,0,0,1-1-.54,2.43,2.43,0,0,1-1-2.48,4.53,4.53,0,0,1,.86-1.93,1.72,1.72,0,0,0,.43-.65,4.4,4.4,0,0,1,.54-.86c.21-.32,1-1.4,1.29-1.83.86-1.18.86-1.29.86-1.61a1,1,0,0,1,.21-.76c.43-.64.43-.64.65-.32a11.67,11.67,0,0,1,.65,2.91c.1.86.21,1.18.75,1.4.86.32,1.07.21,3.66-2.37,1.93-1.83,2.15-2.15,2.69-3.12a12.71,12.71,0,0,0,1-2.37,10.62,10.62,0,0,1,1.18-2.47,11,11,0,0,0,.11-2.8c0-1.51.21-2.8.21-3V798l-.32.11a21.45,21.45,0,0,0-2.58,2.26c-.76,1-1.08,1-.43.11.21-.33.21-.33-.22.11-.32.21-.54.53-.54.42a13.14,13.14,0,0,0-1.5,1.62c-.22.32-.54.54-.54.43s-.32.11-.75.54a22.58,22.58,0,0,1-1.73,1.93,37.35,37.35,0,0,0-4.08,4.95c0,.11-.11.22-.33.54s-.43.54-.43.65-.11.11-.21.11-.22.1-.43.32a2.9,2.9,0,0,1-.43.54,1.78,1.78,0,0,0-.65,1.07c0,.11,0,.11-.11.11s-.11.11-.21.22-.11.21-.11-.11v-.43l-.11.32c0,.22,0,.32-.11.22s-.43-.22-1.29-.22-1,0-1.07.32-.22.22-.43.22a6.64,6.64,0,0,0-2.16,0,8.47,8.47,0,0,1-2.47-.75.7.7,0,0,0-1,.21l-.22.32-.53-.21c-1-.43-4.31-2.15-5.06-2.58a6.28,6.28,0,0,1-1.4-1.08c-.54-.54-.75-.75-.54-.75s.33-.22.11-.43l-.22-.22.22-.21c.11-.11.22-.33.11-.33s0-.1,0-.21a.4.4,0,0,0-.11-.33c-.11-.1-.11-.21,0-.21a.24.24,0,0,0,.22-.22c0-.1.1-.21.32-.32s.32-.32.21-.43a.38.38,0,0,1,.11-.32c.11-.11.22-.22.11-.22s0-.11.11-.21.21-.22.21-.33.43-.53,1.29-1.07a9,9,0,0,0,2.91-2.8,5.55,5.55,0,0,1,2.8-2.26,9.46,9.46,0,0,0,2.69-1.94,14.79,14.79,0,0,0,1.93-2.26c.33-.53,1.08-1.5,1.51-2a2.93,2.93,0,0,1,1.83-1.4c.54-.21,1.4-.75,1.94-1a73.69,73.69,0,0,0,7.42-5,10.17,10.17,0,0,1,3-2c.87-.43,1.83-1,2.05-1.08a5.45,5.45,0,0,1,1.08-.43c.32-.11.75-.21,1.07-.32l.54-.22v-1.07a5.2,5.2,0,0,1,.21-1.94,4.61,4.61,0,0,0,.33-2.91,18,18,0,0,0-.43-1.82l-.11-.65.54-1c1-1.83,1-2.15,1.4-2.47.21-.22.43-.43.43-.54s.1-.11.21-.11a1,1,0,0,0,.75-.86c0-.32.11-.32.44-.22.1,0,.21-.21.32-.53s.32-.44.54-.44a.42.42,0,0,0,.32-.1c.11-.11.21-.22.54-.11.64.21.75.21.64-.22Zm-24.22,76.51a.78.78,0,0,0-.53.11c-.11.1,0,.53.11,1.18s.32,2.15.42,3.44c.33,2.8.33,2.8.65,3.12s.75.33,2.37-.32a18.42,18.42,0,0,0,4.63-2.37l.43-.43-.76-.53c-.43-.33-1.18-1.19-1.93-1.83-1.4-1.3-2.16-1.83-2.48-1.83-.11,0-.43-.22-.75-.33A3.66,3.66,0,0,0,288.89,842.81Zm16.79-45.95c-.1,0-1.61,1.29-2.15,1.72-.86.75-1,.54-.11-.43a4.3,4.3,0,0,0,.86-1.08l-.21.22c-.22.21-.43.43-.54.43s-.11,0-.11.11,0,.1-.1.1-.22.22-.33.33a.86.86,0,0,1-.43.21.81.81,0,0,0-.43.22c-.11.11-.21.21-.21.11s.21-.33.32-.44c.43-.32.32-.43-.11-.1-.21.1-.32.32-.43.21s-.54.43-1.18,1.08a5,5,0,0,0-1.29,1.61.48.48,0,0,1-.33.43,6.05,6.05,0,0,0-1.5,1.83c0,.11,0,.22-.11.22a.38.38,0,0,0-.11.32c0,.11-.21.32-.43.54-1,1,1.51-1,3.12-2.58a22.14,22.14,0,0,1,2.05-1.94c.21-.11.75-.54,1.18-.86.75-.76,1-.86.75-.43-.1.11-.21.21-.1.21s.43-.54,1-1.07S305.79,796.86,305.68,796.86Zm-1.5-.33a10.89,10.89,0,0,0-1.62,1.51c.11,0,.43-.32.86-.75S304.28,796.53,304.18,796.53Z" transform="translate(-258 -272.77)"/><path class="cls-1" d="M324.84,870.62c1.61,0,1.72.11,3.44,1.94,2.69,2.8,3.12,3.33,3.77,4.63l.64,1.18v1.29a5.29,5.29,0,0,1-.32,2,7.39,7.39,0,0,0-.32,1.3c-.11,1.29-.22,2.26-.54,2.47-.11,0-.11.11,0,.22a.2.2,0,0,1,0,.32c0,.11.11.21,1.08.75a8.74,8.74,0,0,1,1.72,1.08,7.33,7.33,0,0,0,1.07.86,5.74,5.74,0,0,1,1.4,1.72c0,.11-.11.11-.21.22s-.11.1.1.53c.11.22.22.44.33.44a.3.3,0,0,1,0,.53c-.11.11-.11.11,0,.22s.1.11-.11.11c-.43,0-.54.21-.43.43s.21.21,0,.32-.21.11-.11.22.11.32-.21.21-.54,0-.54.43c0,.11,0,.22-.11.22s-.11-.11-.11-.22.11-.11,0-.11a.24.24,0,0,0-.21.22.86.86,0,0,1-.86.54c-.33,0-.43.1-1,.64s-.75.65-.54.22.11-.33-.43.21-.54.43-.75.43-.76.11-1.19.54a1,1,0,0,1-.75.32c-.22,0-.32,0-.43.11a9,9,0,0,1-1.94.54,5.18,5.18,0,0,0-2.36,1c-.33.21-.54.43-.65.43s-.22.21-.22.54a1.24,1.24,0,0,1-.21.75,1.6,1.6,0,0,0-.32.65,6.19,6.19,0,0,1-.54,1.18c-.54.86-1.08,2.26-.86,2.26s.11.11-.11.54a6.71,6.71,0,0,0-.75,2.26,2.65,2.65,0,0,1-.11.86,6.55,6.55,0,0,0-.22,1.72,10,10,0,0,1-.1,1.83,46,46,0,0,0-.33,6.46,5.9,5.9,0,0,1-.21,1.07l-.11.76.32.32c.22.1.86.43,1.62.75,1,.32,1.4.54,1.4.65s.21.32.32.43a1.33,1.33,0,0,1,.32.54c.11.1.11.21.22.21a3.78,3.78,0,0,1,1,1c.43.54,1.39,1.61,2,2.37,1.29,1.5,1.51,1.83,1.29,2.47a7.58,7.58,0,0,0-.11,1.83c0,1.62-.1,1.83-.43,1.83a5,5,0,0,0-1.18,1c-.54.54-1.18,1-1.4,1.18a2.78,2.78,0,0,0-.86,3.23,2.08,2.08,0,0,1,.11.75c0,.11-.11.22,0,.43a6.31,6.31,0,0,1,.43,1.73c.32,1.39.43,1.61.54,1.72a2.94,2.94,0,0,1,.32.75c.11.32.32,1,.54,1.51a2.43,2.43,0,0,1-.11,2.8c-.43.86-.54,1-1.08,1.18a2,2,0,0,0-1,.65,4.52,4.52,0,0,1-2.47,1.5,6.6,6.6,0,0,1-1.29.11,1.48,1.48,0,0,0-.86.21,2.27,2.27,0,0,1-1.08.43,14,14,0,0,0-4.3,2.27,17.86,17.86,0,0,1-3.66,1.93,8.29,8.29,0,0,0-1.08.86c-2.58,2.26-3.33,2.91-4.84,3.34a2.11,2.11,0,0,0-.86.43c-.22.21-.43.43-.65.43a3,3,0,0,0-1.07.65c-.65.53-1.08.64-1.19.43s-.1-.11,0-.11c.33,0,0-.11-.53-.22s-.54-.1-1.19.33c-.32.21-.86.53-1.07.64s-.54.43-.76.54-.54.22-1.07.11-.65,0-.65.11a9.5,9.5,0,0,1-2.26-.11.91.91,0,0,0-1,.21l-.21.22-.33-.22a1,1,0,0,1-.32-.54c0-.1-.43-.21-1-.21a2.45,2.45,0,0,0-1.07.32,1.73,1.73,0,0,1-.87.33,1.44,1.44,0,0,0-.53.32c-.22.21-.22.21-.32-.32,0-.22-.22-.54-.22-.65s0-.11.11-.11.32-.21.43-.43a4.26,4.26,0,0,1,.64-.75.65.65,0,0,0,.33-.65c0-.43,0-.54.53-.75.22-.11.43-.32.43-.43s.11-.65.22-.65a.22.22,0,0,0,.21-.21l.54-.54c.54-.32.65-.54.65-1a1.22,1.22,0,0,1,.21-.54,2.08,2.08,0,0,0,.43-.54l1.4-1.39a21,21,0,0,0,3.88-4.2c.1-.22.32-.43.43-.43s.21-.11.32-.32a4.37,4.37,0,0,1,.32-.65v.11a.83.83,0,0,1-.21.54.62.62,0,0,0-.11.43.65.65,0,0,1-.11.43c-.32.43-.21.43.11.1s.32-.32.22-.1-.11.21-.11.32-.22.64-.43,1.4-.43,1.61-.54,2a10.06,10.06,0,0,0-.43,1.72c0,.54.11.65.43.33a2.18,2.18,0,0,0,.86-1.51c.22-.86.32-1.07.22-.32a3.48,3.48,0,0,1-.33,1c-.32.53-.32.86-.1.75s.1-.11.1,0c0,.32.43.43,1.62.43l1.18-.11,1.51-.86c.86-.54,2.37-1.4,3.44-1.93a25,25,0,0,0,8.07-6c.43-.43,1.29-1.29,1.83-1.94l1-1.07v-.65c-.11-1-.65-1.61-1.72-2.69a9.44,9.44,0,0,1-2.15-3.12c0-.22-.11-.32-.22-.22a4.18,4.18,0,0,0-.75.22,2.58,2.58,0,0,0-.76.32,10,10,0,0,1-1.5.54,9.18,9.18,0,0,0-1.83,1c-.33.21-.76.64-1,.75a2.82,2.82,0,0,0-.65.54.94.94,0,0,1-.53.32,12.4,12.4,0,0,0-3.34,1.19c-.75.43-1.83.86-2.26,1.07a3.6,3.6,0,0,0-1.51,1.08c-.86.86-1.18,1.29-1.07,1.83l.1.43-.75.32a2.5,2.5,0,0,1-2.26.22,12.19,12.19,0,0,0-1.72-.65l-1.29-.21-.65-.76a7.74,7.74,0,0,1-1.29-1.61c0-.11.11,0,.22,0s.21,0,.1-.32-.1-.44.22-.54a3.89,3.89,0,0,0,.65-.33l.32-.21-.32-.32c-.22-.22-.22-.33-.11-.33.32,0,.86-.75.75-.86s0-.1,0-.21a.4.4,0,0,0-.11-.33c-.1-.1-.1-.1,0-.1a.78.78,0,0,0,.43-.22l.22-.32-.22-.11-.21-.21.21-.11c.11,0,.22,0,.22-.11s0-.21.21-.32.44-.22.33-.43a.6.6,0,0,1,.21-.54,8.6,8.6,0,0,0,1.19-3,8.05,8.05,0,0,1,.43-1.51c.1-.32.21-1.08.43-1.83a29.29,29.29,0,0,1,1.61-4.73,3.14,3.14,0,0,0,.32-1,.4.4,0,0,1,.11-.33,10.84,10.84,0,0,0,.86-1.5,11.59,11.59,0,0,1,.86-1.51,1.33,1.33,0,0,0,.43-.75,6.23,6.23,0,0,1,.76-1.72c.1-.11.21-.11.21-.22a3.06,3.06,0,0,1,.54-1c.54-.75.86-1.07,1.18-1.18.11,0,.22-.22.22-.32s-.11-.22-.22-.11-.1,0-.1-.11,0-.11-.22.11-.21.11-.21,0,.32-.32.53-.43a3.15,3.15,0,0,0,1.08-.76,6.66,6.66,0,0,1,2.48-1.5,5.06,5.06,0,0,1,3.33,0c.32.11.86.21,1.08.32s.53.22.75.32a8.43,8.43,0,0,0,1,.54,1.84,1.84,0,0,1,.64.32c.11.11.22.22.33.11s0-.43-.11-.75-.11-1.29-.11-2a10.09,10.09,0,0,0,0-2.58,7,7,0,0,1,.22-3.34,6.79,6.79,0,0,0,.21-2.36c0-2.37-.1-3.12-.54-3.77a8.16,8.16,0,0,0-.64-1l-.43-.43-.43.22a2.83,2.83,0,0,1-.86.32c-.11,0-.76.22-1.08.32a4.18,4.18,0,0,1-.75.22,11.67,11.67,0,0,0-2.58.86,1.83,1.83,0,0,1-.54.22c-.11-.11-.22.1-.43.32a1,1,0,0,1-.54.32c-.11,0-.22.11-.32.32s-.11.33-.43.33-.33.1-.54.43-.22.32-.33.32-.1,0-.1.11-.33.32-.65.64-.64.65-.64.76-.22.1-.43.21c-.54.11-1.08.54-.76.54.11,0,.22,0,.22.11s-.22.32-.33.11,0-.11-.1.1-.11.22,0,.32,0,.22-.43.43-.65.33-.76.33a3.49,3.49,0,0,0-1,1.18c0,.11-1.07,1.4-1.29,1.4a.84.84,0,0,0-.43.22c-.21.21-.21.21-.54.1a1.94,1.94,0,0,1-.53-.32c-.11-.11-.22,0-.65.43-.21.32-.54.65-.65.65s-.21,0-.21.1a.7.7,0,0,1-.21.54c-.33.33-.44.65-.22.65s.22.11.32.32.22.32.32.32.22,0,0,.43a2.11,2.11,0,0,1-.42.54.4.4,0,0,0-.11.33c.11.1-.43.75-1.4,1.72l-.86.86.1.54a1.19,1.19,0,0,1-.21.86c-.32.43-.65,1.29-.54,1.29s.11.11.11.21-.22.22-.54.33-.54.32-.54.43a2,2,0,0,1-.32.75,3.51,3.51,0,0,0-.64,1.08c-.11.43-.11.53.1.75s.54.32.86.54c.76.32,1.19.75,1.08,1.07,0,.11-.11.22,0,.33a.22.22,0,0,1,.21.21c.11.11,0,.22-.21.22s-.22,0-.32.53c0,.33-.22.65-.33.65a22,22,0,0,0-2.26,1.08c-.21.1-.75.43-1.18.64-.75.32-.86.43-.86.65s0,.32-.32.43-.33.11-.22.21.22.22,0,.54-.32.32-.54.11-.1-.22,0-.43.22-.22.22-.32-.11-.11-.65.53a3.79,3.79,0,0,1-.86,1l-.32.22-.43-.22a1.19,1.19,0,0,0-.76-.21c-.21,0-1,.11-1.61.11a3,3,0,0,0-1.83.32c-.32.21-.64.43-.64.54,0,.32-.54.1-1.19-.33a3,3,0,0,0-1.83-.53,5.94,5.94,0,0,1-3.44-1.3c-.22-.21-.65-.43-.75-.53s-.76-.44-1.4-.87c-.86-.53-1.19-.75-1.19-1a.62.62,0,0,1,.11-.43c.22-.22-.11-.76-.64-1.08s-.43-.22-.43-.65a1.67,1.67,0,0,1,.32-1,11,11,0,0,1,2.37-2.69,8.14,8.14,0,0,0,1-1,3.46,3.46,0,0,1,1.19-1.3c.32-.21.43-.42.43-.53s.1-.11.32-.22a2.49,2.49,0,0,0,1.29-1.07c.11-.22.11-.54.22-.86a8.34,8.34,0,0,1,.54-1.19,14.78,14.78,0,0,1,.86-1.4,3.18,3.18,0,0,1,.86-.86,8.11,8.11,0,0,0,1.93-2.15,6.74,6.74,0,0,1,1.19-1.29,1.43,1.43,0,0,1,1.18-.32h.65l1-1a13.83,13.83,0,0,1,2.9-2.37,7.41,7.41,0,0,0,2.05-1.94,7.06,7.06,0,0,1,3-2.47,4.11,4.11,0,0,1,1.51-.54,3.53,3.53,0,0,0,1.5-.86.84.84,0,0,1,.43-.22,8.84,8.84,0,0,0,1.62-1.18c.75-.65,1.5-1.18,1.61-1.29s.54-.32.86-.54a9.09,9.09,0,0,1,1.19-.75c.43-.22.86-.43.86-.54s.1-.11.21-.11.11.11.22,0,.21-.21.43-.32a4.2,4.2,0,0,0,.64-.32c.11-.11.22-.33.33-.22s.21,0,.43-.11a1.76,1.76,0,0,1,.75-.11c.21,0,.32-.1.32-.21s.76-.43.76-.32-.11.1-.22.21c-.43.22,0,.11.54-.11a3.05,3.05,0,0,0,.86-.53,4.25,4.25,0,0,1,.75-.43,22.16,22.16,0,0,0,2.48-1.73,1.86,1.86,0,0,1,.75-.43.54.54,0,0,0,.43-.21c.11-.11.11-.11.22,0a6.35,6.35,0,0,0,2,0c.11-.11.22-.11.43-.11s.54,0,.65-.32.86-1.19,1.5-2c1.08-1.4,1.19-1.61,1.19-1.93a19.33,19.33,0,0,1,.43-2.8c.11-.54.32-1.29.43-1.72a8.71,8.71,0,0,1,1.51-3.23c.21-.32.53-1,.86-1.4l.53-.86-.1-1.18a5.07,5.07,0,0,0-.33-1.4c-.21-.33.11-.65,1-1.51s3.34-2.69,4-2.8A7.8,7.8,0,0,1,324.84,870.62Zm-19.69,54c-.44.22-.54.32-.54.65A8.84,8.84,0,0,1,303.1,929a7.73,7.73,0,0,0-1.18,2.58,12.73,12.73,0,0,1-1,2.9c-.54,1.3-.86,4.09-.54,4.31a21,21,0,0,0,2.15-.32,28.54,28.54,0,0,0,8-2.91c2.7-1.4,2.8-1.51,2.91-2a2.43,2.43,0,0,0,.11-.76c0-.1.11-.21,0-.32a3.9,3.9,0,0,1,.11-2.48l.32-.75-.54-.86c-.32-.54-.54-1-.64-1.08a4.2,4.2,0,0,0-1.73-.64,15.67,15.67,0,0,1-2-.65,8.05,8.05,0,0,0-1.19-.43,14.28,14.28,0,0,1-1.39-.64C305.68,924.43,305.58,924.43,305.15,924.64Z" transform="translate(-258 -272.77)"/></svg>
