<svg id="レイヤー_1" data-name="レイヤー 1" xmlns="http://www.w3.org/2000/svg" viewBox="0 0 173.38 759.02"><defs><style>.cls-1{fill:#c1272d;}</style></defs><path class="cls-1" d="M428.73,290.5c2.13,1.55,4.45,4.85,4.45,6,0,.19.39.58.78,1.16,1.35,1.74,1.55,3.1.19,5.42l-.77,1.16.58.59c.58.77.77,1.55.38,1.93a1.2,1.2,0,0,0-.19.78c0,.19.19.38,0,.38-.39,0-1.16,1-1,1.36s-.77.78-1.93.78h-2.13a6.38,6.38,0,0,1-2.13-.2,1.9,1.9,0,0,0-1.75.2c-.39.19-1,.58-1.35.77-.59.39-.59.58-.39,1,.39.77,4.07,2.13,7,2.52,1,.19,1.94.19,2.52.38a5.27,5.27,0,0,0,1.55.2,1.07,1.07,0,0,1,1,.58,5.55,5.55,0,0,0,1.55,1,6.59,6.59,0,0,1,3.48,5c.2.58.2,1.16.39,1.36.39.39.58,2.32.39,3.68a3.4,3.4,0,0,1-1.16,2.32,4.63,4.63,0,0,1-3.88,1.36,5.68,5.68,0,0,1-3.68-1.36,8.94,8.94,0,0,1-1.74-2.71c0-.19-.2-.39-4.07-.77a9.63,9.63,0,0,0-1.94-.2c0-.19-.38-.39-.77-.77a8.56,8.56,0,0,0-4.65-1.94c-2.71-.39-3.1-.19-4.07.39s-1.35,1-3.09,3.29c-2.91,4.07-3.1,4.26-3.88,4.45-.19,0-.58.39-1,.78a51.39,51.39,0,0,1-3.48,4.45c-.39.39-.78.59-.78.78s1.55,0,3.29,0a22.66,22.66,0,0,0,5.23-.78,24.92,24.92,0,0,1,3.1-.77,6.46,6.46,0,0,0,1.94-.77c.39-.2.39-.2.58,0s.39,0,.78-.2c.77-.39,1.16-.39,2.32.39.58.39,1.55.77,2.32,1.16a18.42,18.42,0,0,1,3.3,2.13c2.51,1.94,3.29,2.52,5,2.91s2.52,1,2.91,1.74a22.26,22.26,0,0,1,1.35,4.26,4.52,4.52,0,0,0,1,1.36c1.16,1.35,1.16,1.55,1.16,4.26a5.3,5.3,0,0,0,.2,1.55,11.21,11.21,0,0,1,.19,4.26c0,.19-.19.19-.39.19a.37.37,0,0,0-.19.58,2.56,2.56,0,0,1,.19,1.36c0,1.16,0,1.16-.58,1.35-.38,0-.77.39-1.16.78s-.58.39-.58.19,0,0-.19.2c-.39,1-.78,1.16-1.55,1.16a3.87,3.87,0,0,0-2.72,1.16,17.41,17.41,0,0,0-1.54,1,4.09,4.09,0,0,0-1.36,1.16c-.19.39-.39.78-.77.78a1.18,1.18,0,0,0-.78.19c-.19,0-1,.39-1.74.58a13.73,13.73,0,0,0-4.46,2.13c-.39.39-.39.39,1.36,2.52,1,1.16,2.71,2.9,3.48,3.87a18.8,18.8,0,0,1,2.14,2.52l.38,1-.58.77a2.88,2.88,0,0,0-.77,1.17c0,.38,0,.58-1.36.58a3.31,3.31,0,0,0-1.74.38,1.65,1.65,0,0,1-1.94.2.85.85,0,0,0-1,0h-1a1.37,1.37,0,0,0-1.16.58,2.86,2.86,0,0,1-1.55.77,24.28,24.28,0,0,1-5.42,0,.37.37,0,0,0-.58,0c-.2.2-.39.2-.39,0-.19-.38-2.13-.19-3.29.39a2.76,2.76,0,0,1-2.13.19c-.78-.19-1-.38-1.36-.19a2.16,2.16,0,0,0-1.35,1.55c0,.77,1.55,1.94,3.1,2.32a1.4,1.4,0,0,1,1.16.58c.58.59.77.59,1.55.39a7.29,7.29,0,0,1,4.45.78,17,17,0,0,1,5,3.48c1.55,1.55,3.87,4.65,3.87,5.23a8.75,8.75,0,0,1,.19,1c0,.39,0,.58-1,1a6.34,6.34,0,0,1-1.55.39,3.66,3.66,0,0,0-1.36.38,3.79,3.79,0,0,1-2.13,0,10.58,10.58,0,0,0-4.65-.38,8.66,8.66,0,0,0-3.29,1c-1.94,1-4.65,1.75-5,1.55s-.77.59-.77,1.17a3.19,3.19,0,0,1-.39,1c-.58,1.16-.39,1.35.78,1.35a8.08,8.08,0,0,1,4.26,1,22.24,22.24,0,0,0,2.51,1.16,14.53,14.53,0,0,1,4.65,2.33,4.56,4.56,0,0,1,1.94,3.29,2.59,2.59,0,0,1-.39,1.74c-.19.39-.58.78-.58,1a10.51,10.51,0,0,0,3.1,1.74c1.74.78,4.26,2.13,5.81,2.91,2.33,1.16,2.52,1.16,2.52,1s0-.58-.19-.58c-.39-.2.19-1.75.58-1.55.19,0,.19,0,.19-.2s-.58-.39-1.16-.77-2.33-1.17-3.68-2.13a16.92,16.92,0,0,0-3.29-1.94l-.78-.39h.58c.39,0,.78,0,1,.2a1.47,1.47,0,0,0,.77.38c.78,0,9.3,4.07,10.46,5a5.21,5.21,0,0,0,1.75,1,11.6,11.6,0,0,1,2.13,1.55,10.49,10.49,0,0,0,2.52,1.35,21.64,21.64,0,0,1,4.06,2.33,4.6,4.6,0,0,0,2.33.77,5.78,5.78,0,0,1,2.9,1.36,43.39,43.39,0,0,1,5.23,5.81,11.31,11.31,0,0,1,.58,2.13,5.91,5.91,0,0,0,.39,1.94,4,4,0,0,1,.39,1.16c0,.19-.58.77-1.16,1.35L450,444.29l.39,1.54c.39,1,.58,1.55.39,1.75v.77c.19.39,0,.78-.39.78a3,3,0,0,0-1.16.58c-1,.58-1,.58-1.75.39a9.16,9.16,0,0,0-2.9-.39,11.24,11.24,0,0,1-5-1.55,9.41,9.41,0,0,0-2.51-.58,7.69,7.69,0,0,1-4.85-1.94,9.2,9.2,0,0,0-4.06-2.13c-.58-.19-3.1-.58-5.43-1.36a44.93,44.93,0,0,0-9.49-2.32c-4.45-.58-8.32-.58-15.1-.58a110.05,110.05,0,0,0-15.69.77,8.38,8.38,0,0,1-2.52.39c-1.16.2-1.55,0-1.74-.19s-.39-.2-1.75,0a9.55,9.55,0,0,1-3.29,0,9,9,0,0,0-3.1.39,19.23,19.23,0,0,1-4.06.58,54.37,54.37,0,0,0-5.82.77,27.21,27.21,0,0,0-5.61,2.52,25.28,25.28,0,0,1-2.33,1.16,23.83,23.83,0,0,0-2.13,1.16,26.75,26.75,0,0,1-2.51,1.55c-1.36.78-1.55.78-3.49.78H342l-.58-.58a6,6,0,0,0-1-1.36c-.19-.39-.39-.77-.19-.77s.19-.2.19-.39,0-.39.19-.39.39-.19.2-.77c0-.58-.2-.78,0-.78s.38-.19.19-.58-.19-.58.19-1.55.78-1.35,1.36-1.55a1.23,1.23,0,0,1,1.16,0,3.51,3.51,0,0,0,1.17-.19,3.15,3.15,0,0,1,1.35-.2,49.83,49.83,0,0,0,8.91-3.29,19.53,19.53,0,0,1,3.1-1.16c1.55-.39,6.78-3.1,16.46-8.14,4.46-2.32,4.65-2.51,2.71-4.06l-1.16-1.16-1,.38c-.58.2-1.35.39-1.74.58a7.89,7.89,0,0,1-4.26,0,3.37,3.37,0,0,0-1.36-.19,13.59,13.59,0,0,1-3.68-.39,5.74,5.74,0,0,1-1.55-.77,2.09,2.09,0,0,0-1.16-.58c-.19,0-.58-.39-1-.58-.39-.39-.58-.78-1.16-2.91-.39-2.32-.39-2.52-.19-2.52.38,0,.58,0,.77-1a2.28,2.28,0,0,1,.58-1.16c.39-.38.58-.58.58-.77,0-.39,2.72-.58,3.3-.2.38.2.58.2,1-.19.39-.19,1-.39,1.36-.58a2.06,2.06,0,0,0,1-.58c.19-.39.39-.58.77-.39.39,0,.58,0,.78-.19.39-.58,1.16-.78,2.9-1,1.55-.19,1.75-.19,2.52.19a3,3,0,0,0,3.29-.19,6.5,6.5,0,0,1,1.17-.58,2.31,2.31,0,0,0,1.93-1.36,2.9,2.9,0,0,0,.39-1.55c-.19-.58-.39-.77-1.16-1.16-1.36-.58-2.13-.58-4.07,0-1.16.39-1.74.39-1.94.19s-.77-.19-1.93,0a19.39,19.39,0,0,0-2.13.2,8.31,8.31,0,0,1-1.17-.39c-.77-.19-1-.19-1.35.19-.58.39-1.36.39-2.91,0s-4.26-1.55-4.65-2.13c-1.93-2.71-2.13-3.68-.77-5.23a2.43,2.43,0,0,0,.77-1.35,5.9,5.9,0,0,1,1.94-1.74,6.18,6.18,0,0,0,1.16-.59,2,2,0,0,1,2.33-.19,3.37,3.37,0,0,0,1,.39,9.74,9.74,0,0,0,3.48-1.74c.58-.59.78-.39.39.38-.19.2-.19.39,0,.2h.77c.39,0,.59-.39.78-.58l.58-.59c1.36-1.16,2.13-1.93,2.91-2.51s.77-.78.38-.58a4.88,4.88,0,0,1-3.29,0,2.53,2.53,0,0,0-1.74,0c-.39.58-3.49.38-3.88-.2a9.26,9.26,0,0,0-2.9-1.94,10,10,0,0,0-1.94-.77,8.22,8.22,0,0,1-2.32-1,11.65,11.65,0,0,1-3.68-3.87,4.51,4.51,0,0,0-1.55-1.75c-2.33-1.93-3.49-4.26-2.91-7,.2-.58,0-1-.58-2.13a9.81,9.81,0,0,1-1.35-5,7.32,7.32,0,0,1,1-3.49c.59-1.16,1-2.32,1.17-2.52a10,10,0,0,0,2.32-3.29,9.42,9.42,0,0,1,1.74-2.52c1.75-1.55,3.88-3.1,4.46-3.1.39,0,.58,0,.77-.19.39-.39,2.91-2.52,3.68-3.1a4.15,4.15,0,0,1,1.17-.39,4.94,4.94,0,0,1,2.51,1.75c1.36,1.55,1.36,2.71,0,3.1-.77.19-1.74,1.16-1.74,1.74,0,.19,0,.39-.19.39a2.35,2.35,0,0,0-2.52.19c-.39.39-1.16,1-1.55,1.35a13.52,13.52,0,0,1-1.74,1.55,13.69,13.69,0,0,0-1.55,1.17l-.39.19.39,1a4.15,4.15,0,0,1,.19,3.68c-.58,1.16-.39,1.35.58,1.74,2.71,1,4.84,3.49,4.84,5.62,0,.77,0,.77-.58,1-.38.19-.77.77-1,1-.38.58-.38.58.59,1.35,1.16,1.16,1.93,1.16,3.87.39,1-.39,1.35-.39,1.55-.2s0,.39-.2.78c-.58,1-.77,1.55-.58,1.74a14.9,14.9,0,0,0,4.26.2l.78-.2-.58-1.55-.39-1.55.39-.38a1.52,1.52,0,0,0,.39-.78c0-.19.58-.58,1.35-1.16,1.16-.78,1.36-1.16,1.36-1.55a2.58,2.58,0,0,1,1-1.74,9.54,9.54,0,0,1,3.29-1.94,9.14,9.14,0,0,1,2.71-1l.58-.19v-3.29c0-1.75.19-3.3,0-3.3-.19-.19-3.1,3.1-3.49,4.26s-2.13,1.94-2.71,1.36c-.19-.19-.19-.19-.38,0s-.39.19-.78-.19-.58-.59-1.16-.39h-1c-.39-.2-1-2.52-1.16-3.49-.2-1.55.58-3.1,3.1-5.42a6.08,6.08,0,0,0,1.74-2.32,5.51,5.51,0,0,1,1.16-1.75,9.93,9.93,0,0,0,1.36-1.55,3.53,3.53,0,0,1,1.55-1.35l1-.39-1-.39c-.58-.19-1.55-.77-2.71-1.16-2.91-1.16-6.78-3.1-8.72-5-.39-.38-1.55-1.35-2.32-1.93a34.4,34.4,0,0,1-2.91-2.52l-1.55-1.36-2.32,2.13c-3.68,3.49-3.88,3.68-4.65,3.88h-1.16c-.39-.2-.58,0-1,.77a5.73,5.73,0,0,1-1,1.36c-.39.39-.58.58-.58.77s0,.58-.19.58c-.2.2,0,1,.38,1.55l.39.39-.39.19c-.19.2-.58.2-1,.2s-.38.19-.19.19.39,0,.39.2-.39.58-1,1.16l-1.16,1-.58-.58c-.39-.39-.58-.59-.58-.78s-.2-.39-.78-.39a2.56,2.56,0,0,1-1.36-.19c-.38-.39-.38-.39-.58,0-.19.58-1,.77-1.16.39a2.19,2.19,0,0,0-1.35-.39c-.58,0-1.36-.19-1.55-.19-1-.39-5,.77-6,1.74a1.49,1.49,0,0,1-1,.39,2.08,2.08,0,0,0-1.35.58,10.69,10.69,0,0,1-2.13,1.55,35.38,35.38,0,0,0-7.94,6.19,27.21,27.21,0,0,0-3.1,3.3c0,.19.39,0,1-.2s1.55-.38,2.13-.58a4.3,4.3,0,0,0,1.35-.58,3.85,3.85,0,0,1,2.71-1,8,8,0,0,1,6.2,2.33A6.11,6.11,0,0,0,336,361c2.91,1.55,6.4,4.84,6.78,6.59a3.5,3.5,0,0,0,.78,1,3.22,3.22,0,0,1,1.16,1.16c.58.77,1.16,1.94,1,1.94s-.19,0-.39.19-.19.19,0,.39.2.38-.19.58a1.49,1.49,0,0,0-.39.77c0,.2,0,.39.39.2a1.12,1.12,0,0,1,.77-.2c.39,0,.39,0-.19.58-.39.39-.58.39-1,.2-.19-.2-.39-.2-1,.19-1.16,1-1.93,1.16-2.52,1a3.38,3.38,0,0,0-2.51.58c-.58.39-.78.39-.58,0s0-.39-.59-.39c-.38,0-2.32.2-4.26.2-2.71,0-3.68,0-4.06-.2a.88.88,0,0,0-1,0,27.12,27.12,0,0,1-3.29,1.55c-.59.2-1.75.78-2.52,1.16a9.45,9.45,0,0,1-1.94.78c-1,.19-4.45,2.9-5.42,4.07l-.78,1.16,1,1c.78.58,1,.58,1.36.58a12.88,12.88,0,0,0,3.29-1.55,5,5,0,0,1,1.36-.78,16.57,16.57,0,0,0,2.13-1.93,10,10,0,0,1,1.74-1.36,1,1,0,0,0,.77-.58,1.33,1.33,0,0,1,1-.58c.78,0,1.55-.39,1.36-.78,0-.19.19-.19.39-.19a3.31,3.31,0,0,1,2.13,1.36,11.37,11.37,0,0,0,4.64,2.32,13.82,13.82,0,0,1,4.07,2.13c.78.58,1.94,1.16,2.71,1.74,2.52,1.55,5.43,5.62,5,6.59,0,.19-.2.19-.2.39a8.66,8.66,0,0,1-2.51,1.93c-.58,0-.58.39-.2.58s.39.2.2.39,0,.39,0,.58c.19.2-1.75,1.36-2.52,1.55-.39,0-.58,0-.78-.19s-.38-.2-.77.19a1.42,1.42,0,0,1-.77.39c-.2,0-.39.19-.78.39s-.58.58-.77.38-.39,0-.78.2l-1.55.77a3.1,3.1,0,0,1-1,.39,8.56,8.56,0,0,1-1.74.39c-.77.19-1.74.19-2.13.38a4.75,4.75,0,0,1-1.94.39,4.87,4.87,0,0,0-1.93.39c-.59.19-4.27,3.49-7.94,6.78A21.59,21.59,0,0,1,316.2,411a17.61,17.61,0,0,0-1.74,1.36c-.39.39-.78,1.16-1.17,1.55a3,3,0,0,0-.58,3.48,4.1,4.1,0,0,1,1,2.52,47.18,47.18,0,0,0,1,6.2c.58,1.55,2.13,4.65,3.87,7.94a30,30,0,0,1,1.55,2.71c.2.2.2.2.39.2.58,0,6.78-7.95,7.75-9.88a7.55,7.55,0,0,0,.77-5.23c-.19-.78-.58-.78-1.55-.39a29.13,29.13,0,0,1-4.65,1.36c-.38,0-.77.19-1.35.77a2.59,2.59,0,0,1-1.74,1,4.56,4.56,0,0,0-1.75.39,3.18,3.18,0,0,1-1,.38,3.15,3.15,0,0,1-1.74-4.84,5.34,5.34,0,0,0,.78-1.35c0-.2.19-.2.38-.2s0-.19,0-.38.2-.2.39-.2a.42.42,0,0,0,.39-.39c0-.19,0-.19.19-.19s.39,0,.78-.39,1-1,1.16-1,.19-.39,0-.78-.39-.39-.19-.58.58-.19,1.16-.58c1.35-.78,3.1-2.33,3.1-2.71,0-.58,4.26-2.91,6.39-3.3a11,11,0,0,0,1.93-.38,26.57,26.57,0,0,1,5-1.55l1.74-.2.78.39a13,13,0,0,0,1.74,1,12.43,12.43,0,0,1,1.74,1,17.64,17.64,0,0,1,2.14,1c.77.38,1.74.77,2.51,1.16a7.8,7.8,0,0,1,2.71,1.94c2.52,2.51,2.72,2.9,2.72,3.48a5.52,5.52,0,0,0,.58,1.74,13.1,13.1,0,0,1,1,2.33c.19.58.38,1.55.58,1.94.38.58.38.77,0,1.74a6.87,6.87,0,0,0-.39,1.74c0,.39-.19.78-1.36,1.94a8.26,8.26,0,0,1-3.87,2.32c-.39.2-1,.39-1.36.58a3,3,0,0,1-1,.39,4,4,0,0,0-1.54.58,5.83,5.83,0,0,1-2.13.58,11,11,0,0,0-3.88.58c-.58.2-.77.39-1,.2a2.19,2.19,0,0,0-1.35-.39,5.17,5.17,0,0,0-2.33.78l-1.93,1a1.56,1.56,0,0,0-.78.78,6.69,6.69,0,0,1-1.16,1.35l-.58.78,1.94.77c2.9,1.17,5.22,2.52,5,2.72a11.24,11.24,0,0,1-2.71,1c-.19,0-.58.39-1.16.58a8.68,8.68,0,0,1-4.46.78c-1.16-.19-2.13-.58-2.13-.78a16.74,16.74,0,0,0-4.26-1.74c-.19.2,5.62,7.75,7.56,10.27a15.94,15.94,0,0,0,5.22,4.64,8.62,8.62,0,0,1,1.75,1.17,6.15,6.15,0,0,0,1.74.58c.78.19,1.55.39,1.55.58s0,.19-.19.19c-.58,0-.39.39.58,1.16a5.41,5.41,0,0,0,1.55.78c.19,0,.38.39.38.58s-.19.39-2.32.19c-2.32-.19-2.52-.19-2.52.2s-.19.39-.39.39a8.11,8.11,0,0,0-1-.2c-.78-.19-.59-.58.19-.58.19,0,.39,0-.19-.19-1-.39-1-.39-.78,0,.19.19,0,.19-4.26-1.55-3.1-1.36-5-2.13-6.2-2.52a6.74,6.74,0,0,1-2.71-2.52c-.19-.39-.58-.58-1.35-1a6.38,6.38,0,0,1-1.94-1.16,13,13,0,0,0-1.74-1.35,14,14,0,0,1-4.46-5,21.66,21.66,0,0,0-2.71-4.07,18.22,18.22,0,0,1-3.68-5.23,8.6,8.6,0,0,1-.77-4.64l.19-1-1-1a4.53,4.53,0,0,1-1.36-2.13,25,25,0,0,0-2.9-5.43c-1.16-1.74-1.55-3.48-.58-4.26a4.15,4.15,0,0,0,1-1.35c.38-.78.58-1,.77-1a1.09,1.09,0,0,0,1.16-1,3,3,0,0,1,.78-1.16c.39-.39.58-.58.58-.78s0-.19.19-.19.39-.19.58-.39.39-.38.59-.38a2,2,0,0,0,1.16-1c0-.2.19-.2.77,0a3.72,3.72,0,0,0,1.55.38c1,.2,1.16.2,2.13-.77a9.1,9.1,0,0,1,1.74-1.36c1-.58,3.3-4.06,4.85-7l1-1.93h-1.36a11.49,11.49,0,0,1-7-2.91q-4.65-4.06-4.65-4.65a6.82,6.82,0,0,1,.58-1.16,3.48,3.48,0,0,0,.39-1,17.15,17.15,0,0,1,1.74-2.13,6.27,6.27,0,0,0,.78-1.36,12.72,12.72,0,0,1,4.06-5,85.29,85.29,0,0,0,6-7.94c0-.2-.39-.39-1-.58a14.49,14.49,0,0,1-4.65-2.91c-1.55-1.55-2.13-2.32-1.94-3.1,0-.38.2-.38.39-.38a.43.43,0,0,0,.39-.39.41.41,0,0,1,.38-.39,29.59,29.59,0,0,0,2.91-3.87c1.36-1.94,3.87-5.62,5.62-8.14s3.48-4.65,3.29-4.84-1,.19-2.13.58-2.52.78-3.29,1c-1.36.19-1.94.39-1.94.58s-.39.2-1,.39-1.16.39-1.16.58-.19.19-.39.19c-.39,0-5,3.68-7.36,5.81-.77.78-1.35,1.36-1.35,1.75s-.39.77-.78,1.35c-.58,1-.58,1-1.35.78s-1,0-1.75.77a5.28,5.28,0,0,1-1.74,1c-1.74.19-3.29-.39-5-2.13a42.45,42.45,0,0,1-6.39-8.52c-1.16-1.94-1.16-3.49-.39-6.2.78-2.9,1.36-3.68,1.94-3.87.39,0,.78-.2.78-.39.19-.39.38-.39,1.35,0a5.57,5.57,0,0,1,2.13,1.74c.78.78,1.17,1.16,1.17,1s.77-.39,1.54-.58a7,7,0,0,0,2.72-1.36,12.72,12.72,0,0,1,7-2.71l1.16-.19,2.71-2.52c4.26-3.87,5.23-4.84,5.42-5.62.39-1.35.2-2.13-.58-4.45a19.42,19.42,0,0,1-1-4.84,22.08,22.08,0,0,0-.39-3.1,11.64,11.64,0,0,0-3.68-3.87,3.76,3.76,0,0,1-1.74-2.14,4.22,4.22,0,0,0-.59-1c-.38-.39,0-1.17.78-1.94a5.94,5.94,0,0,0,1.35-1.74c.39-.58.58-1.17.78-1.17s.19-.38.19-.58a1.79,1.79,0,0,1,.58-1,11.64,11.64,0,0,0,1.55-3.1c0-.78,5.62-5,7-5.43,1.74-.58,2.51-.58,3.29.2,1,1,1.55,1,2.52.38a7.46,7.46,0,0,1,1.16-.38,6.3,6.3,0,0,1,1.94.58,22.76,22.76,0,0,1,2.71,1,13.14,13.14,0,0,1,4.64,1.93c.78.39,2.14,1.17,3.3,1.75,2.52,1.16,4.07,2.71,4.26,3.87a5.23,5.23,0,0,0,1.93,2.52,23.67,23.67,0,0,1,3.49,4.26c0,.19.19.19.39.39.58.58.19,1.74-1,3.48-.58.78-1.16,2.13-1.55,2.71a7,7,0,0,1-2.9,3.3c-1,.58-1.36,1-1.36,1.55a20.88,20.88,0,0,1-.58,2.32c-.19.77-.58,2.52-.78,3.49a8,8,0,0,1-.38,1.93c0,.2-.2.39-.2.58,0,.39.39.39,1.94,0,.78-.19,1.16-.38,1.36-.19.19,0,.38.19.58.19a3.34,3.34,0,0,1,1,.39,6,6,0,0,0,2.33,1c.19,0,.58-.58,1-1.36a16.26,16.26,0,0,1,5.81-5.61l2.32-1.16v-1.75c-.19-2.13-.39-2.71-1.55-4.07-1.93-2.32-2.51-4.84-1.74-6.77.19-.59.77-1.55,1-2.33a11.53,11.53,0,0,1,3.29-5.23,4.29,4.29,0,0,1,2.91-1.55c.19,0,.77-.38,1.35-.58l1-.39,3.1.2c3.1.19,2.9.19,4.65,1a7.77,7.77,0,0,1,2.9,1.93,7.22,7.22,0,0,1,1.75,3.1c.38,1,.77,2.52,1.16,3.49a25.14,25.14,0,0,1,1,2.71c0,1,.38,1,2.13-.19a38.75,38.75,0,0,0,6.39-6.2c1-1.16,3.1-2.52,3.1-2.13,0,.19-.39.39-.78,1-1.74,1.93-3.87,5.42-3.68,6,0,.19.39,0,.58-.39.58-1,.58-1,.58,0,0,.39.2,1,.2,1.36.19.58.19.58.77.58a69.65,69.65,0,0,0,8.33-1.74,18.66,18.66,0,0,1,3.68-.78c1.55-.19,3.1-.39,3.29-.39a1,1,0,0,0,.39-.77,26.26,26.26,0,0,1,1-2.52c1-2.13,1.16-3.29.77-4.45a2.77,2.77,0,0,0-2.71-1.55,4.66,4.66,0,0,1-1.74-.2c-.58-.19-1.36-1-1.36-1.35s-.19-.39-1-.19-.77-.2.39-1.36c1-1.16,2.13-2.13,2.71-2.13.39,0,1-.39.59-.39-.2,0,0-.19.19-.39a1,1,0,0,0,.58-.77c0-.19.19-.58,3.49-3.68a9.15,9.15,0,0,1,2.51-1.94,12.89,12.89,0,0,1,1.36-.38,3.72,3.72,0,0,0,1.55-.39,15.54,15.54,0,0,1,1.74-.78c1.55-.38,2.13-.58,4.65-2.32a4.7,4.7,0,0,1,1.74-.58C423.5,287.21,425.24,287.79,428.73,290.5Zm-52.1,139.07a26.2,26.2,0,0,0-5,2.71c-.58.38-.77.58-.39.58.2,0,1.36-.39,2.33-.58a6,6,0,0,0,1.94-.58c.19-.2,1-1,1-1.17C376.82,430,376.82,429.57,376.63,429.57Zm-1.55-51.91c-.2,0-.39.19-.58.58-.58.58-.78,1.55-.39,1.55.19,0,.19,0,.19.39,0,.58,0,.77,1.36.19,1-.39,1.16-.39,1.16-.19s.39.58.58,1.16a3.89,3.89,0,0,1,.58,2.13c0,1,.2,1.16.59,1.36s.38.19,0,1c-.59,1.36-.39,1.36.77.39a8.59,8.59,0,0,1,1.74-1.35,1.31,1.31,0,0,0,.78-1.36v-1l-1.75-.77a9.5,9.5,0,0,1-3.29-2.52C375.85,378.24,375.27,377.66,375.08,377.66Zm26.53-54.81h-.77a15.79,15.79,0,0,0-7.75,2.32,26,26,0,0,1-6.2,2.33l-2.13.77v1c0,1,0,1.16,1.16,2.9a19.36,19.36,0,0,1,1.36,2.33c.19.19.39.58.58.77s.39.39.39.58a.74.74,0,0,0,.19.59,2.13,2.13,0,0,1,.58,1.16,1.54,1.54,0,0,0,.39,1,1.48,1.48,0,0,1,.39,1c0,.59,0,.59.58.59.39,0,.77-.39,1.16-.59a3.38,3.38,0,0,1,1-.38,2.09,2.09,0,0,0,1.55-1.75c0-.38,0-.77.19-.58.2,0,.2,0,.39-.38a33.87,33.87,0,0,1,2.71-5.23,18.17,18.17,0,0,0,1.74-3.1,32.88,32.88,0,0,1,1.36-3.3Zm-10.84-.58a8.28,8.28,0,0,0-2.13.77,7.45,7.45,0,0,0,1.35-.39C390.57,322.46,391,322.27,390.77,322.27Zm9.29-2.52a10.25,10.25,0,0,0-3.68,1c-.77.38-1.16.58-1,.58s2.14-.58,3.88-1,3.29-.58,3.29-.77S402.58,319.36,400.06,319.75Zm13.17,101.49a8.06,8.06,0,0,0-1.35.38,3.9,3.9,0,0,1-1.16.39c-5.62.78-7.56,1.16-9.11,1.75-.77.19-1.55.77-1.93.77s-.39.19-.39.39a10.44,10.44,0,0,1,.19,1.55c0,1.16,0,1.16,1,2.13.19.19,1.55,1.16,2.13,1.55a5.85,5.85,0,0,0,2.71.38,69.8,69.8,0,0,1,9.69.59c4.06.58,6.58.38,6.58-.2,0-.19,0-.39-.19-.39s-.39-.38-.58-.58c-.2-.38,0-.58.19-.38.19,0,.19.19.19,0a29,29,0,0,0-2.51-3.1c-.78-.58-.39-.58,2.71.77,1.55.58,2.71,1.36,2.9,1.16s-.38-.58-1-1.35l-1-1.55-4.26-2.13A40.21,40.21,0,0,0,413.23,421.24ZM401,345.12c-.77.39-1.16.58-1,.58.39.2,1.94,3.49,2.52,5.23.39,1.16.39,1.36,0,1.94s-.19,1,.39.58c.19,0,.39,0,.77.39s.58.58.39,1.16c0,.39-.19,3.29-.19,6.39V367l.38.58a1.33,1.33,0,0,0,1,.58,6.46,6.46,0,0,0,1.94-1.16c0-.2.77-.78,1.35-1.55s1.17-1.75,1.36-1.94a15.61,15.61,0,0,1,1.74-2.52,2,2,0,0,0,.78-1.74,10.65,10.65,0,0,1,.19-1.55,1.9,1.9,0,0,0,.58-1.55,13.76,13.76,0,0,1,.39-2.52c.58-1.93.58-3.29.39-3.29s-.2-.19,0-.39a1.17,1.17,0,0,0,.19-.77,6.69,6.69,0,0,0-1.74-2.33,5.72,5.72,0,0,1-1.55-1.55c0-.19-.39-.38-.58-.38a5.7,5.7,0,0,0-2.52,1c-.39.58-1.16.38-2.52-.39a4.41,4.41,0,0,0-1.74-.58c-.19,0-.19,0-.39-.2C403,344.35,402.19,344.54,401,345.12Z" transform="translate(-288.31 -287.49)"/><path class="cls-1" d="M378.57,478.45a4.61,4.61,0,0,0,2.32.78c.39,0,1-.39,1.35-.39a2.53,2.53,0,0,1,1.17.19c.19.2.38.39.58.39.38,0,3.48,2.13,7.16,5.42,1.17,1,2.52,1.94,3.3,2.52a5.1,5.1,0,0,1,2.51,3.3c.2.77.2.77-.58,1.54-.38.39-1,1-1.16,1s-.39.58-.58,1.17-1,1.35-2.71,3.09a37.18,37.18,0,0,0-2.91,3.1,2,2,0,0,1-1.35,1c-.39,0-1.16.78-2.13,1.74a11.83,11.83,0,0,1-5,3.1c-1.16.39-2.13.78-2.32.78s.19.39,1.16,1.35a8.74,8.74,0,0,1,2.32,3.1,24.55,24.55,0,0,0,1.94,2.91,7.75,7.75,0,0,1,1.16,2.13,5.81,5.81,0,0,0,.78,1.16,1.46,1.46,0,0,1,.38.78c0,.77,1.17-.39,1.36-1.17a12.43,12.43,0,0,1,1.36-1.93,4.16,4.16,0,0,0,1.16-1.75c0-.38,1-1.16,1.74-1.74.58-.39.78-.39.78,0,0,.19.19.19.77.19h.58c-.39-.19-.19-.38.2-.38.19,0,.58,0,.38-.2,0-.19,0,0,.2,0s.38,0,.38-.19c0-.39,0-.39.58,0a1.46,1.46,0,0,1,.59.39c.19.19,0,.19-.2.38-.58.59-1,3.1-.58,3.68l.19.39.78-.39a6.88,6.88,0,0,0,1.55-1c1.16-1,9.3-6.59,11.23-7.75a18.07,18.07,0,0,1,2.33-1.36l.77-.19-1-1.74a9,9,0,0,0-1.16-2.13l-.39-.39.58-.58A12.69,12.69,0,0,1,414,498.6a5.75,5.75,0,0,0,2.52-1.55c.19-.58,2.9-1.75,4.64-1.94,2.72-.39,3.3-.39,6,1a30.35,30.35,0,0,1,9.3,6.78,22.77,22.77,0,0,1,2.71,2.9c0,.2,1,1,1.93,2.13a19.19,19.19,0,0,1,3.3,4.46,38.21,38.21,0,0,1,1.93,3.48,8.22,8.22,0,0,1,.39,4.85,8.36,8.36,0,0,1-2.71,4.45,25.2,25.2,0,0,1-5.23,2.71c-1.55.58-3.49.78-3.87.39,0-.19-.59-.19-1-.19-.78,0-.78,0-.78.38.2.58-.39.58-1.55,0a7.82,7.82,0,0,0-1.16-.38,7.33,7.33,0,0,1-2.52-1.17c-.38-.38-.58-.38-.77-.19a1.18,1.18,0,0,1-.78.19c-.19,0-.19-.19-.19,0s1.74,1.75,3.68,3.68c3.29,3.1,3.68,3.68,3.87,4.65.2.58.39,1,.2,1.16v2.72c0,2.51-.2,2.51-.58,2.51a3.44,3.44,0,0,0-1.36.58,2.93,2.93,0,0,1-1.55.78,7.13,7.13,0,0,0-1.35.58c-.59.39-1.55.58-5,1.16a15.76,15.76,0,0,0-4.07,1.16,6.16,6.16,0,0,1-2.71.59c-2.9,0-3.1.19-4.26,1.35s-1.36,1.36-1.74,1.16c-1-.38-1.75-.19-6.39,1.55-.39.2-1,.2-1,.39a8.91,8.91,0,0,0,2.32,1.36,75,75,0,0,1,8.72,5,24.81,24.81,0,0,1,2.51,2.33c1.75,1.55,1.94,1.93,1.94,4.64a2.89,2.89,0,0,1-.39,1.94,3.38,3.38,0,0,0-.38,1,3.48,3.48,0,0,1-.39,1,20.38,20.38,0,0,0-.19,2.13c.19.77,0,1.16-.2,1.35s0,.58,0,.78a14.44,14.44,0,0,1,.2,1.93c.19,1.17.58,2.33.58,2.52a9.56,9.56,0,0,1,.19,5.81,18.56,18.56,0,0,0-.39,2.72c0,.77.2,2.9.39,5,.19,3.29.39,3.68.77,4.65.59,1.16.59,1.74,0,2.32-.38.39-.58.58-.77,2.71a5.62,5.62,0,0,0,.58,3.3l.58,1.16-1.16,1.16a3.92,3.92,0,0,1-2.13,1.36c-.58.19-1.55.58-2.13.77-1,.2-1.16.39-1.74,1.36-.39.58-1.36,1.93-1.55,2.13a3.4,3.4,0,0,1-2.13,1.16,9.84,9.84,0,0,0-2.13,1,3,3,0,0,1-1.17.58c-.19,0-.38,0-.38.19-.2.39-2.71.78-3.1.58-.2-.19-.39,0-.58.39a7.93,7.93,0,0,1-2.33,2.13c-.39.2-1.55.39-2.71.78-3.68,1.16-5.42,1-7.94-1.17-1.55-1.35-3.29-3.87-3.29-4.45a3.38,3.38,0,0,1,.38-1l.2-.58-3.29-3.49c-3.1-3.09-3.68-3.68-3.68-4.26-.2-1.16-.39-1.35-1-1a11.67,11.67,0,0,1-3.68,1,3.82,3.82,0,0,1-2.33-1.16,6,6,0,0,0-3.29-1.74c-1-.2-1.55,0-2.9,1.35a4.53,4.53,0,0,1-1.94,1,25.15,25.15,0,0,0-2.52,1.16,18.86,18.86,0,0,1-2.32,1,4.22,4.22,0,0,0-1.55,1c-.58.39-.58.58-.39,1.16s.19.58,3.68-.19c1.55-.39,3.68-.78,4.45-1a3.79,3.79,0,0,0,2.14-.77c1-1,1.54-1,5,.77,2.91,1.36,3.1,1.55,3.68,2.52a17.15,17.15,0,0,0,1.74,2.13c.78,1,1,1.36,1,1.94a1.48,1.48,0,0,1-.38,1c-.2.2-.2.39,0,.78s.19.39-.39.77a2.85,2.85,0,0,0-1,1.17,2.35,2.35,0,0,1-2.33,1.16c-.58,0-.58.19-.58.77a3,3,0,0,1-1.55,2.52c-.38.19-1.93,1.16-3.68,2.13-3.48,1.94-6.58,3.68-7.55,4.65a6.94,6.94,0,0,1-1.55,1c-.58.19-1,.58-1.94,1.74-2.32,2.91-5,5.81-5.81,6.2a50.6,50.6,0,0,0-4.26,3.1c-1,.77-1.35,1-1.74,1a4.25,4.25,0,0,0-3.1,1.74c-.39.58-.58,1.74-.39,1.55.2,0,.2-.2.2,0s0,.19-.2.19-.38,0-.38.2-.39.38-1,.58c-2.52,1-6.59,2.9-6.39,3.29.19.19-.39.39-1.94.77a22.34,22.34,0,0,0-2.52.78,5.83,5.83,0,0,1-2.13.58,11.49,11.49,0,0,1-4.65-1.16c-1-.58-1.35-1-1.35-1.36-.2-.38-.2-1.16-.39-1.35a6.15,6.15,0,0,1-.39-1.36,1.52,1.52,0,0,0-.58-1.36c-.38-.38-.38-.58-.19-1,.19-.2.39-.39.58-.39.39,0,.19-.19,0-.19-.39-.2-.39-.39,0-.39.19,0,.19-.2.39-.39s.19-.58.38-.58.2-.19.2-.39,0-.39.19-.39a28.39,28.39,0,0,0,4.84-4.84c0-.19.2-.58,0-.77-.19-.39-.19-.58.2-1.36s.38-1,.19-1.16c-.39-.19,0-.58,1-1.36a10.69,10.69,0,0,0,2.52-2.9c.19-.39.19-.77.38-.58.39.19,1-.39,1.55-1.74a13,13,0,0,1,1.55-3.3c.39,0,.39,1-.19,2.52A8.08,8.08,0,0,0,334,626a3.51,3.51,0,0,1-1,1.35,18.78,18.78,0,0,0-2.13,2.91l-1,1.55.2,1.35c0,.78,0,1.17-.39,1.55a2.69,2.69,0,0,0,2.71,4.26c1-.19,1-.19,1-.58-.2-.38,1-.77,1.35-.38.2.19.39,0,1.75-1.36,1.55-1.36,1.74-1.55,2.32-1.55a3,3,0,0,0,2.52-1.55,2.27,2.27,0,0,1,1.35-1c.78-.19,2.52-1.55,4.46-3.29a20.92,20.92,0,0,1,2.32-1.94c.58-.38,1.16-.58,1.16-.77s0-.19.2-.19.39-.2.58-.39l.39-.39h-.39c-.39,0-.39,0-.19-.19a1.12,1.12,0,0,1,.77-.2,1.35,1.35,0,0,0,.78-1c.19-.38.19-1,.38-.77a97.59,97.59,0,0,0,7.94-5.81c3.3-3.1,3.88-3.87,3.68-3.87a8.19,8.19,0,0,0-1.93.58c-1.36.38-1.75.58-1.55.77.19.39-.2.58-.58.2s-.39-.39-2.13.38a9.68,9.68,0,0,1-1.94.78,1.77,1.77,0,0,0-1,.58,2,2,0,0,1-1.94.77,3.31,3.31,0,0,1-3.1-1.55,21.4,21.4,0,0,0-2.32-2.71c-1.36-1.74-1.55-2.32-1.55-2.52.19-1-.39-3.48-1.35-5.81-.39-1.16-.78-2.51-1-3.09a15.3,15.3,0,0,1,.39-5.23,3.51,3.51,0,0,0,.19-1.17c0-.19,0-.38.19-.38.39,0,.2-9.3-.38-11.43a44.79,44.79,0,0,1-.78-7c.19-1.75,1-3.3,4.26-7.94a49.78,49.78,0,0,0,2.71-4.27A29.14,29.14,0,0,1,355.9,560a16,16,0,0,0,1.55-1,2.69,2.69,0,0,1,2.33-.77c1.16,0,1.35,0,1.74.58.58.58.39,1.55-.19,2.52a5.88,5.88,0,0,0-.78,2.52c.2,0-.39.58-1,1.16a9.44,9.44,0,0,0-2.32,3.87c-.39,1.55-.19,1.75,1.74,1.75a9.33,9.33,0,0,0,3.49-.59c.77-.19,2.13-.77,2.9-1a11.87,11.87,0,0,0,1.94-.59l.58-.38,1.94.58a21.68,21.68,0,0,1,10.65,7.16c.58.78,1.16,1.55,1.36,1.75a5.64,5.64,0,0,1,1.35,3.1,1.65,1.65,0,0,1-.38,1.35c-.2.2-.59.58-.59.78s-.19.19-.38.38c-.58.2-.78.59-.39,1.55.19.59.39.59,0,.78-.19.19-.39.39-.39.58,0,.39-1,.58-2.51.39h-2.52a5.81,5.81,0,0,1-3.3-1.55,8.11,8.11,0,0,0-1.35-.58c-.39-.2-.58-.39-.78-.39-.19-.19-1.16-.39-5.61-1.36-2.13-.38-6.39-.38-7,0a1.12,1.12,0,0,1-.77.2c-.19,0-.77.58-1.36,1.16a4.27,4.27,0,0,0-1,2.52,10.75,10.75,0,0,1-.39,1.93c0,.39,0,.39,1,.39s1.93-.58,3.48-1.55a11.34,11.34,0,0,1,1.75-.77,1.13,1.13,0,0,1,1.35.19c.39.19.58.39.78.39s.38-.2.77-.58l1-.58,1.16.38a11.84,11.84,0,0,1,2.13,1.17c.58.38,1.75,1,2.52,1.35a25.86,25.86,0,0,1,6.2,4.65,8.31,8.31,0,0,1,2.32,3.87c.2.78,2.13.58,3.29-.38a6,6,0,0,1,3.1-1.17c1.17-.19,2.52-.38,2.72-.38.58,0,2.13-1.36,4.64-4.46l1.36-1.74-.39-4.84c-.19-4.46-.58-11.82-.77-16.85,0-3.3-.2-3.88-.58-4.85-.58-1.16-.78-1.35-1.75-1.54-2.51-.39-3.87-.78-4.65-1.55-1.35-1.36-2.13-1.36-5-.39a17.37,17.37,0,0,0-5.62,3.1c-.77.58-1.74,1.55-2.32,1.93a14,14,0,0,0-1.75,1.36l-.77.58-.39-.39a1.91,1.91,0,0,1-.58-1.55,8.85,8.85,0,0,1,2.13-5.61c1.36-1.75,6-5,9.49-7.17.78-.39,1.36-.77,1.36-1s0-.38.19-.38c.2-.2.58-.2.78-.39,0-.2.38-.2.58-.2s.58-.38,1-.58c.58-.38.77-.38,1.74-.38,1.36,0,2.13-.2,2.13-.59,0-.19.39-.38.58-.58s.39-.19.39-.38.19-.2.39-.2c2.71-.38,2.71-.38,4.45.58,3.29,1.55,4.45,1.94,4.84,1.75s4.07-1.36,4.26-1.36c.39,0,6.2-4.07,9.69-6.78a24.27,24.27,0,0,1,2.32-1.55,4.12,4.12,0,0,0,2.13-2.71c0-.58,0-.77-.58-1a2.4,2.4,0,0,1-.77-.58c-.2-.19-.58-.58-1-.58-2.13-.39-5.81-3.1-7.56-5.81a5.87,5.87,0,0,1-1.35-3.87c.19-1.75.77-3.1,2.9-5.81,1-1.36,3.68-5.23,4.46-6.39l2.52-3.88-.39-.39a13,13,0,0,0-3.29-1.55c-.39,0-.78,0-2.33,1.17-1,.58-2.32,1.74-3.1,2.32a56,56,0,0,0-5.81,6,10.09,10.09,0,0,0-1.55,6.78,3.5,3.5,0,0,1,.39,1.36c0,.39.19,1,.19,1.36s.39.77.59,1.16c1.35,1.55,1.55,1.93,1.35,3.29,0,1,0,1.36.2,1.55s.38.39.38.58c0,.58.39,1,1,1.36,1.16.58,2.71,3.87,2.52,5a7.93,7.93,0,0,1-.2,1c0,.58-.38.77-.77.58-.19-.19-.19-.19-.19.19,0,.2.19.59.19.78.19.58-.39,1.74-1.36,2.71a7,7,0,0,1-5.61,1.74,2.51,2.51,0,0,0-1.16-.19,1.06,1.06,0,0,1-1-.39,1.67,1.67,0,0,0-1.36-.38c-1,0-2.13-.59-3.68-1.94a26.67,26.67,0,0,1-3.68-3.87c0-.2-.58-.78-1.35-1.55a9.91,9.91,0,0,1-1.94-2.52c-.78-1.55-2.91-3.68-3.68-3.68-.58,0-1,.77-1.55,2.71a8.44,8.44,0,0,1-1.55,2.91,7.55,7.55,0,0,1-1.74,1.74c-.2.19-.78.58-.78,1a2.42,2.42,0,0,1-1.55,1.55,2.19,2.19,0,0,0-1.35,1.55,4.83,4.83,0,0,1-.58,1.35,3.1,3.1,0,0,0-.59,1.16,5.3,5.3,0,0,1-1.35,1.75,32.58,32.58,0,0,0-3.68,3.68,9.59,9.59,0,0,1-2.71,2.13,3.5,3.5,0,0,1-2.52.77H359a7.17,7.17,0,0,1-3.48-.77c-.58-.39-.78-.39-1.16-.2-.59.39-1,.2-1.75-.58l-1.55-1.55c-.39-.38-1.35-.77-1.74-1.16-.78-.77-.78-.77-2.13-.77a10,10,0,0,1-2.52-.39,10.31,10.31,0,0,1-3.68-2.52l-.19-.39-.78.58a22.36,22.36,0,0,0-4.26,4.27c-1.35,1.74-6.39,8.13-7,8.71-.19.19-1,1.16-1.55,1.94s-2.13,2.52-3.29,3.87c-2.13,2.33-2.91,3.29-2.91,3.87a1,1,0,0,1-.58.78c-.39.19-.58.39-.58.58a1.48,1.48,0,0,1-.39.78c-.19.19-.58.38-.58.58s-.19.19-.39.38-.38.2-.19.2.19.19,0,.58a1.48,1.48,0,0,0-.19.77c0,.2-.2.39-.58.58a1.93,1.93,0,0,0-.78,1,3,3,0,0,1-1.55,1.55c-.19.2-.39.2-.39.39s0,.19.2,0c.19,0,.19,0,.19.19s-.19.2-.58.39a13,13,0,0,0-2.71,3.1.7.7,0,0,1-.2.58c-.19.19-.38.39-.38.58s-.2.39-.39.58a1,1,0,0,0-.39.78,4.69,4.69,0,0,1-1.74,2.9c-.39.2-.58.78-.77,1a6.34,6.34,0,0,1-1.17,1c-.38.19-1.16.77-1.74,1.16l-.77.78v1.74c0,1.35.19,1.74.58,1.94s.38.38,0,.58c-.2.19-.58,0-1.17,0-.58-.2-.77,0-1.16.38s-.39.59-.39,1.17c.2.77-.38,1-1.16.58-.38-.2-.58-.2-1,.19a1.49,1.49,0,0,1-.77.39c-.19,0-.39,0-.39.19a1.44,1.44,0,0,1-.39.78,1.47,1.47,0,0,0-.38.77c0,.19-.39.58-.78,1-.58.58-.77.77-1.55.58-1.35-.19-3.1-1.16-3.29-1.94a12.3,12.3,0,0,0-1.16-1.93,11.41,11.41,0,0,1-1.94-3.88.41.41,0,0,0-.39-.38c-.19,0-.19-.2-.19-.58,0-.2.19-.39,0-.39-.39,0-.19-.39.39-.58l.39-.2-.59-.58c-.58-.39-.77-.58-.77-1.16.19-.77,1-1.55,1.36-1.55s.38-.39,0-.58-.2-.39.19-.39c.77,0,1.55-.58,2.13-2.13.39-.77,1.16-2.13,1.55-2.71a5,5,0,0,0,.77-1.36c0-.19.39-.38.59-.77a2.2,2.2,0,0,0,.58-1.16c0-.2-.2-.2,0-.2a2.55,2.55,0,0,0,1.16-1.35,5.89,5.89,0,0,1,.77-1.55,1.77,1.77,0,0,0,.58-1,3.56,3.56,0,0,1,.58-1.36,5.34,5.34,0,0,0,.78-1.35,11.07,11.07,0,0,1,.77-1.55,11,11,0,0,0,.78-1.55c0-.19,0-.19.19,0s.2.39,0,1a4.35,4.35,0,0,0-.19,1.55,5.16,5.16,0,0,1-.58,1.55c-.58,1-1.16,3.68-.78,3.87.2.19.2.19,0,.58a9,9,0,0,0-.19,2.71l-.19,2.33.77.38c1,.59,1.16.39,1.55,0s.39-.38,0-1.16-.39-1.35-.19-1.55c.19,0,.19,0,.19.2s0,0,.19,0a.41.41,0,0,1,.39.38c0,.2,0,.59.19.59a2.34,2.34,0,0,0,1.36-1.36c0-.19.58-.58,1-1,.58-.58.77-1,.77-1.35,0-.2,0-.39-.19-.39s.78-1,1.94-2.13a22.57,22.57,0,0,0,3.1-3.68,13.42,13.42,0,0,1,1.93-2.33,5.49,5.49,0,0,0,1-1.35,1.89,1.89,0,0,1,.78-1,2.48,2.48,0,0,0,1-1.36c.39-.77.59-1.35,1.36-2.71a.71.71,0,0,0,.19-.58.89.89,0,0,1,.58-.58c.2-.19.78-.39,1-.77.39-.59.58-.78,1.17-.59a2.83,2.83,0,0,1,1.35.39l.39.2-.39.58a3.26,3.26,0,0,0-.39,1,.73.73,0,0,1-.19.58c-.19.19-.39.19-.39.38,0,.39-1,1.36-1.35,1.17s-.58-.2-.2.38c.2.39.2.39-.38,1.16a7.77,7.77,0,0,0-1.17,2.33c0,.19,2.91-3.49,7.36-9.88,3.1-4.45,3.1-4.45,2.71-4.26-.19,0-.38.19-.58,0s-.19-.19-.58.19a2.11,2.11,0,0,0-.38,1c0,.58-.2.39-.59-.19-.19-.58,0-1.55.59-3.87a8.84,8.84,0,0,1,1.74-2.91,6.46,6.46,0,0,0,1.16-1.16,19.7,19.7,0,0,1,1.94-2.13c1.93-1.94,3.87-4.26,3.68-4.46,0-.19,0-.38.19-.19.39.19,1.16-.58,1.16-1.16,0-.2,0-.39.2-.39s.19.19.19,0-.19-.19-.39-.19a36.1,36.1,0,0,1-6-2.33,4.66,4.66,0,0,0-2.52-.77c-1.16.19-1.55.58-1.94,1.74-.19.39-.38,1.36-.58,1.74-.38.58-.38.78-.19,1.17a.88.88,0,0,1,0,1c-.19.2-.39,0-1.16-.38a2.53,2.53,0,0,1-1.36-1c-.38-.58-.58-.58-1.74-.58a6.83,6.83,0,0,1-4.26-1.36c-.78-.58-1.55-1.16-1.55-1.35a16.1,16.1,0,0,0-1.94-2.14,12,12,0,0,1-1.74-2.51,5.21,5.21,0,0,0-2.13-1.94,8.1,8.1,0,0,1-2.13-2.9c0-.39-.2-.59.19-1,.2-.2.58-.58.58-.78a1.08,1.08,0,0,1,.58-1c.58-.38.78-.38.58-.58s-.19-.19,0-.38.39-.39.59-.39.58-.39.77-.58c.39-.2.39-.39.58-.39s.2-.19.39-.39.58-.19,1.35,0,1,0,1.17-.19a9.17,9.17,0,0,1,2.71-1.74,15,15,0,0,0,3.1-2.72,10.89,10.89,0,0,1,3.1-2.51c.58-.2,1.35-.58,1.93-.78a8.1,8.1,0,0,0,2.33-1.74,7.13,7.13,0,0,0,1.74-2.33c.39-1,.58-1.35,1.16-1.55a2.69,2.69,0,0,1,2.13-.38l1.16.19,2.33-1.55a22.22,22.22,0,0,1,4.65-2.52,37.85,37.85,0,0,0,6.58-3.1,11.42,11.42,0,0,1,5.23-1.93,29.2,29.2,0,0,1,5.62-.39l2.71-.19,1-1a23.49,23.49,0,0,1,2.9-1.94c1.55-1,2.91-2.13,6.78-5.61a21.55,21.55,0,0,0,2.13-2.33,4.43,4.43,0,0,1,1.16-1.36,1.66,1.66,0,0,0,.59-1.16c0-.77.38-1,1.16-.77.38.19,1-.2.58-.39s.19-1.16.77-1.74c.39-.39.58-.58.58-.78s.39-.19.78-.19c.58,0,.58,0,.58-.39a1.42,1.42,0,0,1,.39-.77C378.37,478.45,378.37,478.45,378.57,478.45Zm-73.8,93.36c0,.77-.19,1.16-.19,1s0-.2-.19-.2-.2.39,0,.58.38.39,0,.2c-.2,0-.59-.2-.78,0-.58.58-.39-.78.19-1.36.2-.19.39-.39.39-.58s.2-.58.2-.77C304.77,569.87,305,570.45,304.77,571.81Zm1.36-2.91a1.44,1.44,0,0,1-.39.78c-.19.19-.39.38-.19.58s0,.19-.2.19c-.38,0-.38-.39.2-1,.19-.38.39-.38.39-.58S306.13,568.71,306.13,568.9Zm36.41-45.51c-.39-.2-.58-.2-.58,0-.78,2.71-1.94,4.84-3.1,5.42a13.4,13.4,0,0,1-2.32.58c-2.52.39-2.91.78-3.49,1.94a5.26,5.26,0,0,1-1,1.55l-.58.58h.58a21,21,0,0,0,2.91.39h2.51l.59-.59a7.43,7.43,0,0,0,2.13-2.71c0-.19.19-.38.19-.58a10.67,10.67,0,0,0,.77-1.16c.39-.58.59-.77.78-.77.39.19,2.91-2.52,3.87-3.88l.58-1-.58.2h-3.29Zm21.11-3.68a9.27,9.27,0,0,0-2.13,1.55c-1.16,1-2.32,2.13-2.9,2.51a8.32,8.32,0,0,0-1.94,1.75,11.82,11.82,0,0,1-2.13,2.32c-2.52,2.52-3.29,3.29-3.49,3.88a3.42,3.42,0,0,1-1,1.35,6,6,0,0,0-1.55,1.55c-.77,1-.77,1-.38,1.55a5.23,5.23,0,0,0,2.9,1.74,10.74,10.74,0,0,0,7-.58A51.27,51.27,0,0,0,365.2,530a18.46,18.46,0,0,1,1.74-2.32,11.35,11.35,0,0,0,2.33-3.1,3.47,3.47,0,0,1,.19-1.16c.39-1.75.39-2.33,0-2.33a6.14,6.14,0,0,1-1.16-.58c-.77-.58-1-.58-1.36-.19-.19.19-.38.39-1.35.19a4.76,4.76,0,0,1-1.36-.58A.71.71,0,0,0,363.65,519.71ZM360.75,616c.19,0,0,0-.2.19-.19,0-.19.19-.39.19s-.19-.19,0-.19A.74.74,0,0,1,360.75,616Zm37,6c.77.19,1.16.19,1.35,0s1-.19,3.1-.19a15.58,15.58,0,0,1,4.65.38l3.88.78a18.64,18.64,0,0,1,7,1.94c2.71,1.16,7.55,3.29,8.71,4.06a28.38,28.38,0,0,1,4.46,4.07c.77,1,2.32,2.71,3.29,3.87,4.65,5.23,5.23,6.78,5.23,12.59,0,3.88-.19,4.65-1.55,5.23-.77.39-3.29.58-3.87.2a25.54,25.54,0,0,0-5.81-1.17,16.48,16.48,0,0,1-6.78-1.93,5.25,5.25,0,0,0-2.52-.78,13,13,0,0,1-2.71-.19,11.9,11.9,0,0,0-2.33-.39c-.77-.19-.77-.19-.77-.58.19-.39-.39-1.16-.58-.77-.19.19,0,.19-.19,0-.2-.39-1.17-.39-1.17,0,0,.19,0,.19-.19,0s-.39-.2-.39-.39-.19-.39-.39-.78c-.38-.58-.58-.58-1.35-.38a2.94,2.94,0,0,1-1.16.19c-.58,0-.78.39-.39.77.19.2.19.39,0,.39s-.58-.39-1.16-1c-1-1-1.16-1.16-.78-1.55.2-.19.39-.38.39-.58a2.12,2.12,0,0,1,.58-1.16,2.61,2.61,0,0,0,0-3.29,3.47,3.47,0,0,0-2.32-1.75,9.3,9.3,0,0,1-3.88-2.71,14.25,14.25,0,0,0-3.48-2.32c-1.55-.78-3.49-1.94-4.26-2.32a11,11,0,0,0-1.55-.78c-.78,0-3.1-2.71-2.91-3.29,0-.2.2-.39,0-.39s-6.2-1.74-6.39-1.74c-.19-.2,0-.2.19-.2.2-.19.2-.19.2-.38s0-.39.38-.2h1c.2-.19.39-.19.2-.19-.39,0,1.16-1,1.55-1a7.08,7.08,0,0,0,2.9-1c-.19-.58.78-1.16,2.71-1.35A39.55,39.55,0,0,1,397.74,622Z" transform="translate(-288.31 -287.49)"/><path class="cls-1" d="M340,672.23a3.36,3.36,0,0,0,1.75.38,31.8,31.8,0,0,1,7.94,2.33,9.25,9.25,0,0,1,4.26,3.87,13.61,13.61,0,0,0,1,1.36,16.09,16.09,0,0,1,2.13,3.29,5.62,5.62,0,0,1-.78,2.13l-.77,1.55.77.58a2.12,2.12,0,0,1,.58,1.16c0,.58.2,1.55.39,3.88v1.93l2.9.78c2.33.58,2.91.77,3.88,1.55,2.32,1.74,5.42,5.42,5.42,6.39a2.14,2.14,0,0,0,.39,1c.39.58.19,2.13,0,2.9a8.58,8.58,0,0,1-1.74,1.36c-.78.39-1.36,1-1.55,1a3.92,3.92,0,0,0-1.55,1.16,17.32,17.32,0,0,1-5.81,3.29,14.67,14.67,0,0,1-3.1.39c-2.33-.19-2.91,0-5.43,1.74a38.56,38.56,0,0,1-3.87,2.33c-1.74,1-2.9,1.93-5.23,3.48a5.94,5.94,0,0,1-1.93,1,12.32,12.32,0,0,0-1.55.58,5.37,5.37,0,0,0-1.55,2.33A3,3,0,0,1,336,727a15.19,15.19,0,0,0-1.93,2.9c-1.36,2.33-1.36,3.1-.58,3.88,1,.77,1,1.35.19,2.32a11.19,11.19,0,0,1-.77,1.36l-.39.77.77.58a6.72,6.72,0,0,1,1.55,1l.58.58,1.55-1.16c4.07-3.49,9.11-8.52,10.46-10.65,1.16-1.55,1.36-2.33,1-3.49-.39-.77-.39-.77-1.16-.58s-1,0-1.16-1.36a1.45,1.45,0,0,1,.19-1c.19-.2.19-.58,0-.58-.39-.2-.19-.39.19-.39a1.52,1.52,0,0,0,.78-.39c.19-.39.39-.58.77-.58s.58,0,.58-.19.39-.2,1.17-.2c.58,0,1,0,1.16-.19a6.11,6.11,0,0,1,1.55-.58,4.83,4.83,0,0,0,1.35-.58,1.44,1.44,0,0,1,1-.2c.39,0,.78.2,1,0,1-.58,6.39,2.13,10.27,5.23.38.39,1.74,3.88,1.55,4.46,0,.19-.39.38-.78.38s-.58,0-.77.78a3.9,3.9,0,0,0-.39,1.16c-.2.19-.2.19,0,.39.19.39.19.58-.2.58-1,0-1.93.77-4.26,2.9-2.51,2.33-4.06,3.68-4.84,4.27-.19.19-.58.38-.39.58a19,19,0,0,0,3.1,1.35,12.88,12.88,0,0,1,4.65,2.33c1,.58,1.55,1.16,1.55,1.35a6.81,6.81,0,0,0,.39,1.16,7,7,0,0,1,.77,2.14v1.16l-1,.58a9,9,0,0,1-3.87,1.55c-.58.19-1.36.19-1.55.38a4.59,4.59,0,0,1-1.94.78A5.52,5.52,0,0,0,355.9,753c-.38.19-1,.78-1.35,1a9.23,9.23,0,0,0-2.33,2.52c-.19.58,0,1,1.36,1.74,1.74,1.16,5.42,3.68,7,5,1.36,1.16,1.36,1.16,1.94,3.1a7.57,7.57,0,0,0,1.16,2.51l.58.58,1-.38c1.94-1,3.87-3.88,6.2-8.72l2.13-4.26c1.94-3.68,2.13-4.45,2.13-8.91,0-3.29,0-3.87-.39-5.42a16.39,16.39,0,0,0-2.32-5.62,6,6,0,0,1-1.36-2.71,4.42,4.42,0,0,0-.39-1.55,6.62,6.62,0,0,1,.39-4.65c.78-1.55,1-1.74,3.29-3.48,3.49-2.52,5.23-4.27,12.21-11.24,7.36-7.55,15.49-14.91,22.66-20.92a21.94,21.94,0,0,1,5.42-3.67c1.16-.59,2.52-1.36,2.91-1.55a6.81,6.81,0,0,1,1.16-.39c.19,0,.38-.39.58-.58a2.63,2.63,0,0,1,2.52-1.16c.38,0,.77,0,1-.2s.39-.19,1.17.39,2.71,1.74,6.78,4.45c2.71,1.75,3.48,2.52,6.39,6.2,2.52,3.1,2.9,3.87,2.52,5.42a3.88,3.88,0,0,0,.19,2.52c.58,2.13.39,2.71-1,4.07a15.21,15.21,0,0,0-1.74,1.94c-.58,1-1.75,1.74-4.07,3.29a3.13,3.13,0,0,1-2.13.77,1.4,1.4,0,0,0-1.16.39,1.51,1.51,0,0,1-1,.39c-.39,0-.58.39-.78.58s-.38.19-.77.19a4.2,4.2,0,0,0-2.71,1.16c-.58.59-.78.78-.58,1s.19.2-.39.58c-.39.2-1,.59-1.55,1a8.75,8.75,0,0,1-4.45,1.55c-1.17,0-1.36,0-3.1,1.16a43.67,43.67,0,0,1-4.65,2.52c-.2,0-1.36.39-1.36.58s0,.2-.19,0-.39-.19-.39.2c0,.58-.19.58-1.35.58a2.2,2.2,0,0,0-1.36.39,4.48,4.48,0,0,1-1,.58l-.39.19.39-.58c.58-.58.58-1,0-.58a1.13,1.13,0,0,1-1.55-.2c-.19-.38-1.35,0-2.52.78-.77.58-.77.58-1.16.39s-.58-.2-1.35,0a20.48,20.48,0,0,1-5.81.58,8.32,8.32,0,0,0-2.72.19c-.38.39.2,2.32,2.33,7.55,1,2.72,2.13,5.62,2.32,6.59l.39,1.74-.39.58a2.64,2.64,0,0,0-.19,2.91c.58,1.36.77,1.36,1,1.36.77-.2,10.46-3.69,11.23-4.27a20.84,20.84,0,0,0,4.07-4.26c.39-.77,3.1-3.1,5.81-5,1.16-.78,1.94-1.36,1.94-1.55a1,1,0,0,1,.58-.78c.38-.19.77-.38.77-.58s.58-.19,1.36-.39c2.51-.58,7-.38,8.13.39a5.47,5.47,0,0,0,3.49.78,6.92,6.92,0,0,1,2.52.38,6.52,6.52,0,0,0,2.51.39,18.51,18.51,0,0,1,6,1.55,13.36,13.36,0,0,0,3.68.78,14,14,0,0,1,3.1.77c2.32,1,6.78,4.65,8.91,7.55a22.93,22.93,0,0,1,1.74,2.33,2.2,2.2,0,0,1,.58,1.16c0,.39.19,1.16.19,1.94a5.07,5.07,0,0,1-1.74,4.45,2.91,2.91,0,0,1-2.13,1.16,10.53,10.53,0,0,1-1.94.39,3.33,3.33,0,0,0-1.35.19,1.2,1.2,0,0,1-1.17,0c-.38-.19-.77-.19-2.32.2a32.69,32.69,0,0,1-6.2,1,9.86,9.86,0,0,0-2.32.38c-1.16.39-7,.39-10.46.39h-1.16l-1.94,1.74L427,760.35v1.55a9.65,9.65,0,0,0,.19,2.52c.39.77.39.77,0,1.55a10.36,10.36,0,0,0-1.16,4.45,5.55,5.55,0,0,1-.58,2.91l-.59,1,1.17,2.13,1.16,1.93-.78,2.52a24.87,24.87,0,0,0-1.35,6.78c0,1.16,0,1.55-.58,2.13-.39.39-.78.78-.78,1-.19.58.78,2.52,1.55,3.49.58.77.58.77-.19,1.35a2.93,2.93,0,0,0-1.16,2.33.63.63,0,0,1-.59.58c-.38.19-.19.77.59,2.13.58,1,.77,1.35.58,1.55a.69.69,0,0,0-.2.58,9.2,9.2,0,0,1-.77,1.74,5.78,5.78,0,0,0-.58,3.1c.19,5.81.19,7-.39,8.91l-.58,1.74.39,1.16a6.58,6.58,0,0,1,.58,2.91c0,1.55.19,1.74.38,1.94,1.36.77,2.14,2.9,1.55,3.87-.19.39-.19.58,0,.77a14.25,14.25,0,0,1,.59,3.68,4.12,4.12,0,0,1-.2,1.55c0,.2-.39,1.75-.58,2.71-.19,1.94-.77,3.3-1.55,3.88-.58.39-.58.58-.58,1,.19.58.19.58-.19,1.16a2.08,2.08,0,0,0-.39,1.55,2.52,2.52,0,0,1-.58,1.35,2.08,2.08,0,0,0-.39,1.36c0,.39,0,.58-.77,1.36s-.78.77-.78,1.35A1.4,1.4,0,0,1,419,851c-.19.2-.38.39-.38.58a2.34,2.34,0,0,1-1.36,1.36,3.9,3.9,0,0,0-1.16.39l-.58.39-.2-.59c-.38-.58-.58-.58-1.74-.19-1.74.58-3.1.19-3.68-1-.19-.39-.19-.58-.39-.58a3.8,3.8,0,0,1-2.51-1,2.76,2.76,0,0,1-1-1.16c-.2-.58-.39-.77-.78-.77-.77,0-3.1-1-3.29-1.55-.19-.2-.58-.78-1.16-1.36-.39-.58-1.16-1.74-1.75-2.52-.77-1.16-1.16-1.74-1.93-1.93a8.51,8.51,0,0,1-2.71-1.75c0-.19-.2-.38-.39-.58s-1.55-.77-2.91-1.74c-5.61-3.87-12.2-9.88-12.2-10.85,0-.19.58.39,1.16,1,2.52,2.13,4.65,3.68,5.43,3.49.38,0,.77.19,1.35.77,1,1,2.33,1.94,3.1,1.94a2.72,2.72,0,0,0,1.75-1c.58-.39.58-.39.58,0s0,.19.19-.19c0-.2.39-.2.77,0A1.41,1.41,0,0,0,395,832c.38-.38.58-.38.77-.19a.73.73,0,0,0,.58.19c.2,0,1.55-.19,2.71-.38a16.11,16.11,0,0,0,6.78-1.75,14.9,14.9,0,0,1,2.71-1.55c.2,0,0,.2-.19.39-.19.39-.19.39.39.39.19,0,.58-.2,1.35-1.36a7.47,7.47,0,0,0,1.75-4.26c.19-1.74-.2-3.48-1.75-10.07-.19-1-.38-2.91-.58-4.26a60.9,60.9,0,0,0-1-7.36,23.65,23.65,0,0,1,0-3.68,17,17,0,0,0-.19-3.29c-.19-.78-.19-1.94-.39-2.72a22.59,22.59,0,0,0-.58-2.71c-.38-1-.58-1.55-.38-1.93a68,68,0,0,0,.19-9.11,12.15,12.15,0,0,1,.19-2.9,12.93,12.93,0,0,0,.39-3.49,8.86,8.86,0,0,1,.39-3.1c.58-1.55.19-3.68-1.16-7.16-.39-1-.59-1.36-1-1.16a16.47,16.47,0,0,0-1.94.38,10.35,10.35,0,0,0-3.1.78,9.82,9.82,0,0,1-3.1.58,3.79,3.79,0,0,0-1.74.39c-.39.38-1.16,1.54-1,1.54a18.72,18.72,0,0,1-2.71,2.52L390,769.45l.2.39c.19.2.38.58.19.58-.39,0-1.55,1.94-1.74,2.91a2.6,2.6,0,0,0,0,1.74c.19.78.38,1,0,1s-.78.77-2.52,4.07c-1.55,3.1-1.94,3.87-1.36,5a1.59,1.59,0,0,1,.2,1.36,7.25,7.25,0,0,0,.19,4.07c.19.77.58,1.35.39,1.54s0,.2,0,.59,0,1-.2,1.16c-.38,1-2.9,2.52-4.45,3.1a5.45,5.45,0,0,1-3.68.58c-.78-.2-.78-.2-1,.19-.19.2-.19.39-.39.39s-.58-.58-1.16-1.36l-1-1.35H371.4V796c0,.77.39,1.16,1.16,1.94.58.38.58.77.58,1.35a1.8,1.8,0,0,0,.58,1.36c1,1,.78,2.32-.77,3.29-1,.58-1,.58-1,1.74s0,1.16-1,1.94a6.76,6.76,0,0,1-3.87,1.94,6,6,0,0,1-2.13-.39,6.31,6.31,0,0,0-1.75-.58,2.14,2.14,0,0,1-1.16-.39,1.49,1.49,0,0,0-1-.39c-.58,0-.77,0-1.16-.38-.19-.2-.39-.39-.58-.39a9.49,9.49,0,0,1-1.74-.78,6.75,6.75,0,0,0-1.94-.77,1.07,1.07,0,0,1-1-.58,2.8,2.8,0,0,0-4.07-.58c-1,.77-2.51,1.16-4.84,1.35-2.71.2-2.51,0-.58-1.93,3.29-3.3,4.26-5,4.26-7.75,0-2.33-.77-5.42-1.74-6-.39-.19-.78-1-1.16-1.35-.39-.78-.39-1-.2-1.16a.7.7,0,0,0,.2-.58c0-.39,0-.2.77-.2.58,0,.78,0,.58-.19s0-.2.58-.2c1.17,0,1.75-.19,1.75-.58,0-.19.19-.19.77,0,.39,0,1.16.2,1.75.2s1.55.38,5.22,2.13c2.33,1.16,4.85,2.32,5.62,2.71a23.37,23.37,0,0,1,5.81,3.87c1,.78,1.16.78,1.16.58,0-.77-.38-1.55-2.13-3.48a40,40,0,0,1-2.9-3.49c-1.16-1.74-3.1-4.45-3.1-4.84a2.92,2.92,0,0,0-.78-1.16A20,20,0,0,1,360,780.3c-.58-.77-1.16-1.55-1.35-1.55a2,2,0,0,1-1-.39c-.2-.19-.2-.38.19-.77.19-.2.19-.39,0-.39s.19-.19.39-.39c.39-.19.39-.38.39-.58s-.2-.38,0-.38.19-.39.38-.78c.39-.58.39-.58,0-.77a36,36,0,0,0-6.58,0l-1,.19.39.77a6.62,6.62,0,0,1,.38,4.27c-.19.19-.38.58-.58.77-2.32,1-3.68,1.74-5,3.68a6.65,6.65,0,0,0-1.36,3.68,1.67,1.67,0,0,1-.38,1.36c-.2.19-.59.58-.59.77a42.24,42.24,0,0,0-.77,6,14.44,14.44,0,0,1-.39,2.9,8.68,8.68,0,0,0-.19,1.74c.19.2,0,2.52,0,5.62,0,4.65,0,7.17.19,11a27,27,0,0,1-.19,5.81c-.2,2.52-.2,2.9.77,3.68,1.17,1,1.75,3.68,1.55,5.62-.19,1.35-.38,1.93-1.16,2.32-.39.19-1.74,1-2.13,1.16a11.36,11.36,0,0,1-2.52,1.36,4.55,4.55,0,0,0-1.35.58c-.78.39-2.33.19-3.88-1-.58-.39-1-.77-1.16-.77a8.14,8.14,0,0,1-3.49-1.36c-.77-.39-1.55-1-1.74-1a1.47,1.47,0,0,1-.77-.38,1.4,1.4,0,0,0-1.17-.59c-.58,0-.77-.19-1.35-1.55a5.8,5.8,0,0,1-.39-1.93,1.5,1.5,0,0,0-.39-1.94c-.58-.77-1-.77-1.16-.19a.41.41,0,0,1-.39.38c-.77,0-2.13-.38-2.32-.77-.19-.19-.39-.39-.58-.39a.62.62,0,0,1-.58-.58,2.8,2.8,0,0,0-.2-1.16c-.38-.78-.38-1.55,0-1.74.59-.2,0-.58-1-.78a4.88,4.88,0,0,0-3.3.58,2,2,0,0,1-1,.39,2.47,2.47,0,0,0-1.74.77c0,.2-.58,0-2.52-1.54s-2.13-1.55-2.51-1.36a1.52,1.52,0,0,1-.78.39c-.19,0-.58,0-.58.19-.39.78-1.55.19-2.91-1.16a7.21,7.21,0,0,1-1.35-2.33c-.58-1.93-.58-2.32-.19-3.09.19-.39.58-.78.58-1s.38-.58.77-1,.78-.78.78-1,.19-.58.38-.58a3.65,3.65,0,0,0,1.55-1c.58-.58,1.55-1.35,1.94-1.74,1-.78,8.33-5,10.07-6a6.47,6.47,0,0,0,2.13-1.35c.58-.58,1-1,1-.78-.19.39.39.78,1.16.39s.78-.39.58,0c-.19.19-.38.19-.19.39s.58-.2,1.35-.78c1.75-1.35,1.94-1.35,1,.2-.38.58-.77,1.55-1.16,2.13s-.58,1.35-.77,1.35-.58.39-.78,1a6.45,6.45,0,0,0,0,4.26,4.23,4.23,0,0,1,.2,1.36,2.16,2.16,0,0,0,.19,1,1.46,1.46,0,0,1,0,1.93,4.76,4.76,0,0,0-.58,1.36,3.84,3.84,0,0,0-.19,1.35c-.2.39-.2.39.19.59s.39.19-.19.19-.59.19-.59.39a3.35,3.35,0,0,0,1.55,2.52l.78.38.38-.38a2.7,2.7,0,0,0,.39-1.17l-.19-.58.77.2c.39,0,2.13.38,3.49.38,2.32.2,2.71,0,3.29-.38a1.05,1.05,0,0,0,.58-.78.7.7,0,0,1,.2-.58c.19-.19.19-.39,0-1.16a31.48,31.48,0,0,1-.78-4.65,27.84,27.84,0,0,0-1.16-5.62,13.93,13.93,0,0,1-.39-6.78c.2-.77.39-2.32.58-3.09l.2-1.55-.58-1c-.78-1.17-1-1.17-1.75-.78a3.76,3.76,0,0,1-1.74.39,7.41,7.41,0,0,0-3.49,1.74,3.06,3.06,0,0,1-1,.39,3.1,3.1,0,0,0-1,.39,1.52,1.52,0,0,1-.78.39c-.19,0-.38,0-.38.19a7.86,7.86,0,0,1-3.1,1.55c-.2-.2-1.55.58-4.85,2.32-.58.39-1.35.39-6.39.39H298a3,3,0,0,1-2.32-.78c-.77-.58-1.74-1.35-2.32-1.74a3.16,3.16,0,0,0-1.75-.77,2.07,2.07,0,0,1-1-.2c-.58-.19-.58-.38-.58-1.74a2.94,2.94,0,0,1,.58-1.94,45.54,45.54,0,0,0,3.1-5.42,13.88,13.88,0,0,1,2.91-4.07,5,5,0,0,1,2.71-1.55,2.21,2.21,0,0,0,1.36-.58c.58-.38.58-.38,1.35,0l.78.39.38-.58c3.3-4.26,10.85-12.59,14.53-16.46a19,19,0,0,0,2.71-2.91c-.19,0-.39.19-.77.39a4.11,4.11,0,0,1-3.68,0,4.85,4.85,0,0,0-2.52-.58c-1,0-3.68-.39-5-.58-.58-.2-.58,0-.58.19.2.39-.39.58-1.55,0a4.2,4.2,0,0,1-2.13-1.94,6.69,6.69,0,0,1-.39-3.29c0-.19.2-.39,0-.58s0-.58.39-.58c.2,0,.58-.2.58-.39s.2-.39.2-.58a1.18,1.18,0,0,0,.19-.78c0-.77.78-1.35,1.94-1.54A21.82,21.82,0,0,0,315,748c.19-.2,1.55-1.17,2.13-1.55s1-.78,1-1-.39-.39-1-1c-1.74-1.74-1.74-3.1-1.16-7,.58-3.68.38-4.07,1.16-6.39.39-1.36,1-2.33,1-2.52s0-.2-.78-.2a8.66,8.66,0,0,0-1.93.39,11.45,11.45,0,0,1-4.65-.58,10.25,10.25,0,0,1-4.07-2.13c-1.36-1.16-1.94-2.52-1-2.32.39,0,.39-.2.39-.59,0-1,0-1.35.19-1.35.39,0,1.36-1.16,1.36-1.55s.19-.39.39-.39.58,0,.38-.19.39-.58,1-.58c.2,0,.39-.2.58-.78a2.24,2.24,0,0,1,1-1.35c.39-.39,1.74-1.55,2.91-2.52a22.47,22.47,0,0,1,3.09-2.13c.2,0,1.75-.39,2.91-.58a9.39,9.39,0,0,0,3.68-1,8,8,0,0,0,2.9-1.94c.2-.38,1.55-5.42,1.94-7.36a14.27,14.27,0,0,0,.2-3.29c0-3.1-.2-3.49-4.65-8.13a9.05,9.05,0,0,1-1.94-2.52,3.29,3.29,0,0,0-.58-1.36,3.82,3.82,0,0,1-.39-1.55c.2-.19.2-.38.39-.38s.19-.2.19-.39-.19-.39,0-.58a74.06,74.06,0,0,1,8.14-6,12.8,12.8,0,0,0,1.74-1.16,2.9,2.9,0,0,1,1.55-.77,3.13,3.13,0,0,0,1.94-1,5.05,5.05,0,0,1,2.13-1.36,5.81,5.81,0,0,0,1.55-.77C339.05,671.84,339.44,671.84,340,672.23Zm-14.91,88.9a42.38,42.38,0,0,0-3.68,3.09c-1.74,1.55-3.49,3.49-4.07,3.88-1.35,1.35-6.39,6.58-8.71,9.29-2.33,2.91-2.71,3.88-2.71,5.23a10.29,10.29,0,0,1-.39,2.14c-.2.58-.58,1.16-.39,1.35.39.39,7.17-3.29,10.65-5.62a62.82,62.82,0,0,0,8.52-7c.2-.39.59-.39,1-.58.58-.19,3.49-3.1,4.85-4.65l1-1.16-.38-1a17.58,17.58,0,0,1-.58-2.13c-.2-.77-.39-1.35-.78-1.55a5.41,5.41,0,0,0-1.74-1.16C326.27,760.74,325.69,760.74,325.11,761.13Z" transform="translate(-288.31 -287.49)"/><path class="cls-1" d="M364.43,864.64c.19,0,.38.59.77,1.36a8.42,8.42,0,0,0,1.55,1.94c1.55,1.35,4.07,7,4.45,10.07.2,1,.39,1.55.39,1.74a51,51,0,0,1,.58,6.78c0,1.55,2.33,2.32,4.65,1.55a4.31,4.31,0,0,0,2.52-2.32,1.29,1.29,0,0,1,.77-1,5.46,5.46,0,0,0,1.17-1.55c.19-.58.58-1.16.77-1.16a1.84,1.84,0,0,0,1-.58c.19,0,1.74-1,2.52-1.36l1.55-.58,1.55.39c.77.19,2.51.38,3.68.58,2.32.38,2.71.58,5.42,1.93a37.74,37.74,0,0,1,5,3.3,5.7,5.7,0,0,0,1.54.77,2.93,2.93,0,0,1,1.17.78c.38.19,1.35,1,2.13,1.54a16,16,0,0,1,4.06,3.68c.39.59.2,2.52,0,3.49a17.82,17.82,0,0,1-1,1.55,15.51,15.51,0,0,1-1,1.36,23,23,0,0,1-3.68,3.29,38.48,38.48,0,0,0-3.29,2.9c-1.55,1.36-2.14,1.75-2.52,1.75a3.66,3.66,0,0,0-1.36.38,13,13,0,0,1-1.74,1,11.7,11.7,0,0,0-1.55.78,6.47,6.47,0,0,1-1.16.77,2.33,2.33,0,0,0-1,1,1.55,1.55,0,0,1-1.55,1c-.39,0-.58.19-1,.77a3.27,3.27,0,0,0,.19,3.49,6.31,6.31,0,0,1,.59,1.16c.19,1,1,1,2.51,1h1.55l.2.78c.38.77.58,1,1.93,1.55,2.71,1.16,3.49,1.35,4.65,1.35a4.75,4.75,0,0,1,3.29,1,5.86,5.86,0,0,0,2.13.58c1.36.19,1.55.39,3.49,1.74a39.26,39.26,0,0,1,5,3.88c-.2,0,.19,0,.38.19a.86.86,0,0,1,.58.58.42.42,0,0,0,.39.39c.2,0,.2,0,.2.39,0,.19.38,1,.58,1.55.38.77.38,1.16.19,1.35s-.39,0-.77-.39c-.39-.58-.59-.58-.78-.38s-.19.19-.19-.2c0-.58-.58-.58-1.16-.19-.78.58-1,.77-1,1.74,0,.39.19,1,0,1s-.2.39-.2.58-.19.2-.77.2c-.78-.2-1,0-.78.19.2.58-1,.77-2.13.39-1-.39-1.16-.39-2.71,0-1.74.38-2.32.19-2.71-.2,0-.19-.39-.19-.77-.19-.78,0-2.52-.58-2.33-1,0-.19.2-.39,0-.58s-.58,0-1.55.39a10.55,10.55,0,0,1-4.26,1,25.6,25.6,0,0,1-3.1-.2c-3.87-.39-4.45-.39-4.45,0a21.86,21.86,0,0,0-.58,3.1,7.05,7.05,0,0,1-.2,1.94c-.19.58-.38,1.74-.58,2.32a4.76,4.76,0,0,1-.58,1.36,6.82,6.82,0,0,0-.77,3.29,3.68,3.68,0,0,1-.2,1.55,18.55,18.55,0,0,0-.77,5.23c0,.77,0,1.16-.2,1-.19-.39-.19-.39-.38,0a3.87,3.87,0,0,0-.39,2.13,27,27,0,0,1-.39,3.68,21.66,21.66,0,0,0,.39,6.78v.58h3.68c2.13,0,6.2,0,9.1.19,11.82.58,17.43.78,19.18.58a29.34,29.34,0,0,0,7-2.32c.58-.39.77-1,1-1.94a2.39,2.39,0,0,1,.77-1.35l.58-.78-1.35-1a50.76,50.76,0,0,1-4.85-4.26c-.19-.19.2,0,.78.58a3.44,3.44,0,0,0,1.36,1,58.11,58.11,0,0,0-5.62-5.23c-2.33-1.94-3.29-2.9-3.29-3.29,0-.19-.2-.39-.58-.58-.78-.39-2.14-1.36-1.94-1.55.39-.2,8.13,5.23,11.43,7.94.77.58,1.35,1.16,1.35,1a4.78,4.78,0,0,0-1-1.55c-.38-.39-.38-.58.2-.2.77.39.77.2,0-.58l-.39-.38a1.17,1.17,0,0,0,.77.19,5.69,5.69,0,0,1,1.94,1.16c2.52,2.13,7.36,5.62,6,4.46-1.16-1.17-1-1.17.39,0a15.84,15.84,0,0,1,1.74,1.55,4.77,4.77,0,0,0,1.75,1.55c.58.19-.2-.78-2.71-3.1-1.55-1.55-2.91-2.72-2.71-2.91s-.2-.19-.39-.39a37.15,37.15,0,0,1-3.29-4.06c.19-.2-1.55-1.75-3.1-2.91-.78-.58-2.91-1.94-4.65-3.1a18.71,18.71,0,0,1-2.91-2.13c.2-.19,0-.38-.58-1l-.77-.58.77.39a58.7,58.7,0,0,1,9.1,5.81,99,99,0,0,1,10.08,8.72c1.93,1.93,4.26,4.26,5,4.84,1.16,1,1.55,1.16,1.94,1.16a4.86,4.86,0,0,1,1.74-.19c.58,0,1,.19,2.71,1.55a33.77,33.77,0,0,1,2.52,2.32,7,7,0,0,0,1.36,1.16c1,.39,2.52,2.33,3.29,3.49a51.83,51.83,0,0,1,2.71,7.75,2.12,2.12,0,0,0,.58,1.16c.78.77.78.77.39,1.16a10.24,10.24,0,0,1-1.36,1.16c-.77.58-1,.78-1,1s0,.39-.77.77c-.58.2-1.74.39-2.32.59a22.29,22.29,0,0,0-2.72.58c-1.35.38-1.35.38-2.32,0a9.32,9.32,0,0,0-2.52-.58,15.19,15.19,0,0,1-2.9-.39,13.31,13.31,0,0,0-2.71-.2,21.33,21.33,0,0,1-4.85-.58,17.06,17.06,0,0,0-2.9-.77c-.58,0-3.68-.78-4.65-1s-2.71-1-3.87-1.36c-3.3-1.16-5.23-1.54-15.69-1.93a49.74,49.74,0,0,1-7-.78h-.78c-.19,0-.58,0-.58-.19,0-.39,0-.39-.58,0a2.32,2.32,0,0,1-1.94.19c-.38-.38,0-.58.58-.38.39,0,.78,0,1-.2s.2-.38-.77-.38a4.76,4.76,0,0,0-1.75.38c-.58.2-.58.2-.38.2.38,0,.58-.2.58,0s-.58.38-1.94.58c-1.16.19-1.35.19-1.16-.2a.73.73,0,0,1,.19-.58c.2-.19.2-.19,0-.19-.38,0-.77.39-.58.58s0,0-.19,0-.2,0-.39.19a8.41,8.41,0,0,0-1.35.39,8.74,8.74,0,0,1-1.36.39c-.19,0-.19,0-.19-.2.19-.38,1.55-.77,2.32-.77.19,0,.39,0,.39-.19a6.85,6.85,0,0,0-2.91,0c-.39.19-.58.19-.58.38s0,.2-.19.2-.2,0-.2.19c0,.39-1.35,1-1.93.78h-.78a19.12,19.12,0,0,0-1.16,4.26,8.49,8.49,0,0,1-.39,1.55,8.7,8.7,0,0,0-.38,1.55,18.52,18.52,0,0,1-.39,2.13,30.24,30.24,0,0,0-.58,5,50.82,50.82,0,0,1-1,9.1,13,13,0,0,0-.58,3.49,17.3,17.3,0,0,1-.39,3.1c-.39,1.74-.19,4.84.19,5.42a5.87,5.87,0,0,1,.59,1.75c.19,1.16.38,1.35.19,1.93-.19.39-.19.78,0,.78s.19.38.19,1c0,1,.2,1.74.58,1.74s1.55,2.71,1.36,3.1a26.6,26.6,0,0,0-1,4.26c-.19,1.74-.19,1.74.19,2.52s.39,1,.39,4.06c0,2.52,0,3.49-.19,3.49s-.2.19-.2.39a2.11,2.11,0,0,1-.38,1,2,2,0,0,0-.39,1.16c0,.38,0,1-.39,1.16a8.58,8.58,0,0,0-1,1.36c-.19.38-.58.58-1.93.77-1,0-1.36,0-1.55-.19a1.15,1.15,0,0,0-.78-.2c-.77,0-1.74-1-3.1-2.71-.77-1-1.74-2.13-2.32-2.71a4.55,4.55,0,0,1-1-5.23c.39-.77.58-1,1-1s.58.39.77.58c.39.58.78.58,1.75,0A5.56,5.56,0,0,0,373,1033c.58-1.16.39-3.48-.39-6.19a82,82,0,0,1-2.32-10.85,9.63,9.63,0,0,1-.2-1.94c0-.19-.38-.77-.58-1.55a54.38,54.38,0,0,1-.19-7,73.54,73.54,0,0,0-.39-7.75c-.19-1.55-.19-4.26-.19-8.32V982l-.2-1.35h-1a15.53,15.53,0,0,0-4.46.77,11.07,11.07,0,0,0-1.36.58,6.18,6.18,0,0,1-1.16.59c-.58.38-.58.38-.58.19.19-.39-1.35-.19-2.13.39-.39.19-.58.38-.58.19s-.58,0-1.16.19c-.78.39-1.16.59-1.16.39s-.39-.19-1,0c-.39.2-.78.2-.78,0s-.19-.19-.38-.19-.59,0-.39.19-.39.58-.78.39c-.19-.19-1.93.39-4.84,1.16-.58.19-2.13.78-3.1,1.16a33,33,0,0,1-3.1,1.17c-2.13.58-5.61,2.13-10.45,5-1,.58-2.14,1.16-2.33,1.36s-1.16,1-2.13,1.74a7.86,7.86,0,0,1-2.32,1.55.63.63,0,0,0-.59.58c0,.19-.19.39-.38.19s-.39-.19-.78,0c-.38,0-1,.2-1.35.2a3.37,3.37,0,0,0-1.36.19,4.14,4.14,0,0,1-1.55.2c-.39,0-1.55-.2-2.71-.39-1-.2-2.52-.39-3.29-.58s-1.55-.39-2.13-.58A36,36,0,0,1,304,996c-.58-.19-2.13-.58-3.1-.78-1.94-.38-3.49-1.16-3.49-1.74a1.3,1.3,0,0,1,.78-1c.19,0,0-.38-.2-.77l-.19-.39h.39c.38,0,.58.2.58,0s0-.19-.2-.19a.42.42,0,0,1-.38-.39c0-.19-.2-.39,0-.39.77,0,1.16-.19,1-.38,0-.2,0-.2.19-.2s.58,0,.58-.19.19-.19.39-.19c.58.19.58-.2,0-.59-.39-.38-.39-.38,0-.58a1.47,1.47,0,0,0,.77-.19,4.35,4.35,0,0,1,1.55-.19c1.36,0,2.52-.39,4.84-2.14l5.23-3.48c6-3.87,7.75-5.23,9.3-6.59a37.79,37.79,0,0,0,5.62-6.19,19.44,19.44,0,0,0,2.71-7.95v-1.16l-.58.2a5,5,0,0,0-1.36.38,3.9,3.9,0,0,1-1.16.39,6,6,0,0,1-1.36.39,3.69,3.69,0,0,0-1.93.58,20.09,20.09,0,0,1-5.81,2.71c-3.1.78-7.17.78-8.72.2a12.64,12.64,0,0,1-3.48-3.1,6.49,6.49,0,0,0-1.75-1.55c-1-.78-1.16-1.55-.77-1.75.19,0,.19-.19,0-.38s0-.39.38-.78c.2-.19.39-.39.2-.39-.39,0,.58-1.35,1.35-1.93.39-.39.78-.39.59-.58s0-.2.19-.2.19-.19.19-.38a.63.63,0,0,1,.58-.59c.39,0,.78,0,.78-.19a4.21,4.21,0,0,1,2.32-1,2.58,2.58,0,0,0,1.74-1,12.13,12.13,0,0,1,2.52-1.74l1.75-.77.38.58c.39.38.39.38,1.17.19,1.16-.39,10.07-4.45,20.33-9.68,5-2.52,9.3-4.65,9.49-4.65s.58,0,.58-.2.78-.58,1.36-.77,2.13-1,3.29-1.55c1.94-1,5.23-2.13,13.17-4.65l1.16-.39v-1.54c-.19-2.14-.58-3.49-1.74-4.07a2.57,2.57,0,0,0-2.13-.2,63.82,63.82,0,0,0-9.1,3.1,6.59,6.59,0,0,1-2.91.39c-2.9,0-5.23-1-7.94-3.29a42.8,42.8,0,0,1-4.84-5.81,2.76,2.76,0,0,0-1-1.16c-.39-.2-1.16-1.94-2.13-3.68a21,21,0,0,0-3.1-4.85,13.54,13.54,0,0,1-1.74-2.71c-.19-.77,0-4.84.19-4.65s.2-.38.2-.77a3.44,3.44,0,0,1,.77-1.74c.39-.58.78-1.36,1-1.55.19-.39.39-.58.58-.58s.19-.2.39-.59.58-1.35,1-2.13a17.13,17.13,0,0,0,1.16-2.71c.77-1.93,1.16-2.71,3.68-5.81,3.87-4.84,5.23-6.2,11.81-12,4.84-4.26,5.43-4.64,6.78-4.84a4.19,4.19,0,0,0,1.74-.58,2.57,2.57,0,0,1,1.75-.58c1.16-.19,1.35-.19,1.35-.39s.2-.19.39.2c.39.58.78.38,1-.2C364.23,864.84,364.23,864.64,364.43,864.64Zm-7.56,81c-.19.2-.38.39-.58.39a11.73,11.73,0,0,0-1.93,1.36,5.33,5.33,0,0,1-1.75,1,40.41,40.41,0,0,0-7,2.52,19,19,0,0,0-5,3.1l-.38.58h1c.59,0,1.94.39,3.1.58l2.33.39,2.9,1.74c3.3,1.94,5.23,3.68,6.2,5.23a12.27,12.27,0,0,1,.78,1.17,12.77,12.77,0,0,1,1.16,1.93c.58,1.16.58,1.36.38,1.55s-.38.2-.77,0c-.19,0-.39,0-.39.39,0,.19.39.77.39,1,.19.38,0,.38-.39.38a1,1,0,0,0-.77.59,6.46,6.46,0,0,1-.78,1.16c-.19.19-.38.38-.19.58a14.89,14.89,0,0,0,4.45-.58,4.71,4.71,0,0,1,1.75-.2,41.06,41.06,0,0,0,5.42-.77c.39-.19.39-.39.39-4.84,0-2.71-.39-6-.39-7.36a15,15,0,0,1,.19-3.29,2.56,2.56,0,0,0-.19-2.14,4.87,4.87,0,0,1-.39-2.51c0-1.36-.19-1.75-.58-2.13-.58-.59-1.16-.78-4.84-1.36C356.87,945.41,357.26,945.22,356.87,945.6ZM408,947c1,.58,1.94,1.16,1.75,1.16a3.29,3.29,0,0,1-1.36-.58,16,16,0,0,0-1.55-1,2.56,2.56,0,0,1-.77-.58C405.68,945.6,405.87,945.8,408,947Zm3.1-4.65c1,.39,1.94.78,1.75,1s-5.62-2.32-5.62-2.52S408.78,941.34,411.1,942.31Z" transform="translate(-288.31 -287.49)"/></svg>
