<svg id="レイヤー_1" data-name="レイヤー 1" xmlns="http://www.w3.org/2000/svg" viewBox="0 0 630.12 133.79"><defs><style>.cls-1{fill:#ff9ff5;}.cls-2{fill:#5fd400;}</style></defs><path class="cls-1" d="M102.81,655.62c3.68-4.63,5.37-8.6,5.44-12.35v-1a9.06,9.06,0,0,0-.44-3.24c-8.82,12.8-19,19.2-28.38,20.67a35.66,35.66,0,0,1-5.3.44c-9.26,0-14.12-4.71-14.19-14.05v-.14c0-9,5.37-17.36,14.93-22.06l-.37-6.25L63,618.05l-.52-9.78L74,607.83c-.14-2.87-.22-5.23-.22-7.06l11.18-.37c0,1.84.07,4.12.15,7l28.16-1,.52,9.77-28.24,1.11.15,3.53a36.52,36.52,0,0,1,5-.3,37.92,37.92,0,0,1,14.26,2.5l1.25-2.86,9.49,4.19a49,49,0,0,1-2.21,4.41c4.12,4.12,5.22,9,5.22,15.22a28.3,28.3,0,0,1-5.44,15.81Zm-25.59-7.43c-.59-4-1-8.45-1.47-13.82a13.11,13.11,0,0,0-5.15,10.07c0,4,1.62,5.67,5.15,5.67h.66a26.34,26.34,0,0,0,10.15-3.39Zm13.31-18.6a24.53,24.53,0,0,0-4.19.3c.44,5.73,1,11.1,1.69,15.58,4.48-3.08,8.68-7.79,12.5-14A25.78,25.78,0,0,0,90.53,629.59Z" transform="translate(-59.94 -600.1)"/><path class="cls-1" d="M136.71,654.52v-3.6c0-15.59.81-35.08,1.84-47.51l11.83.67c-1.17,11.76-2,29.63-2,44.63,0,2.13.07,4.19.07,6.18Zm22.06-1.69c12.13-6.33,14.85-9.86,14.85-18.75a67.92,67.92,0,0,0-.73-8.53L156,626.8,155,616.28,171,615.11c-.95-4.86-1.91-9.05-3-13.17l11.1-1.84c1.25,4.34,2.06,8.9,3.09,14.12l11.18-.88.81,10.52-10.22.8a93.44,93.44,0,0,1,.88,9.78v.89c0,12.28-4.56,18.31-17.72,25.95Z" transform="translate(-59.94 -600.1)"/><path class="cls-1" d="M244.36,654.74c3-2.65,5.66-5.66,6.25-8.75a15.6,15.6,0,0,0,.29-3.09c0-5.81-3.75-9-11.39-9h-.67c0,1,.08,1.84.08,2.72,0,18.75-6,22.65-14.27,22.65-.88,0-1.76-.08-2.65-.15a14.88,14.88,0,0,1-13.89-13.9v-.66c0-9.12,7.42-15.73,19.7-18.38-.22-2.35-.44-4.85-.66-6.55l-16.91.89-.66-9.78,16.25-.81c-.44-2.94-1-5.74-1.55-8.31l11.48-1.32c.44,2.72.88,5.8,1.25,9l24-1.25.51,9.71-3.67.14,9.41,6.47-5.81,7.5-11.33-9,4.56-4.85-16.61,1c.14,1.47.29,3.6.36,5.73h1.33c14.92,0,22.86,7.43,22.86,17.5a19.65,19.65,0,0,1-.44,4.05c-1,5.14-3.89,9.92-8.16,14.19ZM223.18,649c3.09,0,4.86-2.94,5-13.31-7.2,1.77-9.63,5.59-9.63,8.46v.22A4.77,4.77,0,0,0,223,649Z" transform="translate(-59.94 -600.1)"/><path class="cls-1" d="M320.32,652.09c6.1-5.73,8.38-11.69,8.38-16.84,0-4.11-.37-8.09-3.24-11-4.77,10.81-10.73,21-16.25,26.1-5.07,4.78-10.51,7-15.29,7-7.57,0-13.6-5.67-14-16.77v-1.25c0-7.94,3.3-16.18,10.29-21.32l-2.65-11.18,10.74-2.35,1.69,7.64A38.25,38.25,0,0,1,313.48,610h2.06c1.17.08,2.35.15,3.45.3.74-2.21,1.92-5.59,2.36-7.65l10.88,3.9c-.66,2.13-1.91,5.44-2.72,7.64,6.69,4.19,10.15,11.55,10.15,20.22a32.31,32.31,0,0,1-9.49,23.24Zm-24.19-9.34-3.17-13a12.8,12.8,0,0,0-2.94,8.31,6.57,6.57,0,0,0,.08,1.25c.36,4.63,2,7.2,4.63,7.2,2.28,0,5.29-1.76,9-5.58Zm16.32-22.94a26.12,26.12,0,0,0-10.15,2.06l3.83,16.32c3.08-4.11,6.54-10.8,9.33-18.23a18.84,18.84,0,0,0-2-.15Z" transform="translate(-59.94 -600.1)"/><path class="cls-1" d="M410.39,634.59c-5-.15-10.44-.29-16-.29-13.08,0-26.83.51-36.76,1.32l-.88-11c14.78-.15,35.07-.22,53.67-.22Z" transform="translate(-59.94 -600.1)"/><path class="cls-1" d="M445.84,657.83c-3.53,0-7.94-2.28-7.94-6.55,0-3.6,3.89-7.13,7.72-7.13a5.86,5.86,0,0,1,1.17.15c2.87.59,4.86,4,4.86,7.28a6.25,6.25,0,0,1-3.17,5.73A7.21,7.21,0,0,1,445.84,657.83Zm.07-19,17.35-33.24,11.7,5.74-20.89,31.83Z" transform="translate(-59.94 -600.1)"/><path class="cls-2" d="M151.93,717.42c-9.2,3.31-22.21,5.22-33.9,5.22-2.87,0-5.59-.14-8.24-.36-9-.74-13.31-4.49-13.31-10.59q0-6.29,6-15.66l9.93,3.75c-3,4.33-4.49,7.2-4.49,8.89,0,1.47,1,2.14,3.16,2.36a67.17,67.17,0,0,0,6.84.29c10.29,0,22.65-1.84,30.74-4.93ZM144.06,684a291.07,291.07,0,0,0-39.19-2.94l.66-11A358.09,358.09,0,0,1,145.31,673Z" transform="translate(-59.94 -600.1)"/><path class="cls-2" d="M221.19,723.75c-4.34.44-9.26.66-14.19.66a100.4,100.4,0,0,1-17.57-1.32c-10.81-2-16.55-7.5-16.55-14.2,0-5.44,3.83-11.54,11.62-17.2,1-.66,2.06-1.4,3.09-2l-8.68-19.34,11.25-4.56L198,684a133.79,133.79,0,0,1,19.19-6.62l3.9,10.29a107.81,107.81,0,0,0-18.76,6.4l3,6.91-10.81,4.27-2.43-5.44a19.83,19.83,0,0,0-2.57,1.76c-3.16,2.57-4.63,4.78-4.63,6.47,0,2.13,2.2,3.53,5.88,4.41a62.42,62.42,0,0,0,13.82,1.25,123.62,123.62,0,0,0,16.62-1.17Z" transform="translate(-59.94 -600.1)"/><path class="cls-2" d="M292.59,716.84a46.74,46.74,0,0,0-12.72-7.43c-.95,11.69-7.72,16.18-18.09,16.18-11.25,0-18.31-6-18.31-14.78,0-9,6.18-15,17.72-15.45h1.55a34.31,34.31,0,0,1,5.44.37,114.1,114.1,0,0,0-5.74-27.94l12.14-2.35c.88,3.09,2.13,7.72,2.64,10.59L294,674.7l.88,10.66-15.95,1.11a95.85,95.85,0,0,1,1,11.76,63.08,63.08,0,0,1,18.67,8.24Zm-30.51-11.48a7.43,7.43,0,0,0-1.33.08c-4.56.44-6,2.65-6,5.59,0,2.64,2.65,4.48,6.92,4.48,3.38,0,6.91-2.13,6.91-9.34A29.5,29.5,0,0,0,262.08,705.36Z" transform="translate(-59.94 -600.1)"/><path class="cls-2" d="M357.82,703.89c0-4.55-4.2-5.51-8.61-5.66h-1.47a41,41,0,0,0-22.06,6.47l-5.14-9.19A75.9,75.9,0,0,0,345.09,679a1.57,1.57,0,0,0,.52-.88c0-.37-.37-.59-1.18-.66h-1.32a92.67,92.67,0,0,0-18.6,2.5l-1.77-10.22a121.22,121.22,0,0,1,21.55-2.06c1.54,0,3.08.07,4.48.14,6.69.37,10.66,3.31,10.66,7.5,0,2.06-.95,4.49-3.09,7a29.34,29.34,0,0,1-7.72,6.69c.59,0,1.11-.07,1.7-.07,10,0,19.92,4.41,19.92,15.73,0,15.3-20.66,21.18-37.5,21.18l-2.57-10.22c14.48,0,27.57-4.12,27.65-11.62Z" transform="translate(-59.94 -600.1)"/><path class="cls-2" d="M420.83,733.9c-9-6.33-16.69-17-16.69-31.11,0-14,5-27.5,15.3-41.18l8.38,5c-10.44,13.75-14.12,25.15-14.12,36.18,0,10.22,5.37,18.6,14.05,24.34Z" transform="translate(-59.94 -600.1)"/><path class="cls-2" d="M456.22,712.84a6.12,6.12,0,0,1-4.42,1.61,6.4,6.4,0,0,1-6.32-6.31,6.15,6.15,0,0,1,1.85-4.49,6,6,0,0,1,4.47-1.87h.29a7.68,7.68,0,0,1,6,2.86A10.84,10.84,0,0,1,460.6,712a10.39,10.39,0,0,1-3.32,7.74,11.74,11.74,0,0,1-8.5,3.21,15.7,15.7,0,0,1-11.18-4.39A14.26,14.26,0,0,1,433,707.81,15,15,0,0,1,438.66,696a22.57,22.57,0,0,1,28.31.14,16.12,16.12,0,0,1,5.69,12.53,18.45,18.45,0,0,1-1.81,7.65,20.19,20.19,0,0,1-4.65,6.6l-4.13-2.33q4.64-6,4.63-11.92a11,11,0,0,0-3.88-8.65q-3.87-3.42-10.16-3.41a14.65,14.65,0,0,0-9.84,3.32,10.34,10.34,0,0,0-1,15.29,9.48,9.48,0,0,0,7,2.93,8.75,8.75,0,0,0,4.87-1.45A5.49,5.49,0,0,0,456.22,712.84Zm-4.42-2.51a2.28,2.28,0,0,0,2.19-2.19,2.17,2.17,0,0,0-.66-1.57,2.22,2.22,0,0,0-3.76,1.57,2.07,2.07,0,0,0,.67,1.52A2.1,2.1,0,0,0,451.8,710.33Z" transform="translate(-59.94 -600.1)"/><path class="cls-2" d="M483.71,715.44c7.06-3.24,14.86-7.13,19.05-10.08,1.83-1.25,2.79-2.05,2.79-2.79s-1.18-1.47-3.68-2.65a103.2,103.2,0,0,0-16.1-5.81l4.19-8.6a77.08,77.08,0,0,1,18.83,7.8c6,3.6,9,6.39,9,9.33,0,2.36-2,4.86-5.89,8-5.14,4-15.36,9.63-21.91,12.94Z" transform="translate(-59.94 -600.1)"/><path class="cls-2" d="M529.67,695h2.72a13.09,13.09,0,0,0,26.18,0h2.73a15.82,15.82,0,1,1-31.63,0Z" transform="translate(-59.94 -600.1)"/><path class="cls-2" d="M601,723.38a74.29,74.29,0,0,1-18.82-7.72c-6-3.6-9-6.4-9-9.34,0-2.35,2-4.85,5.88-7.94,5.15-4,15.37-9.63,21.91-13l6.25,8.17c-7.06,3.23-14.85,7.13-19,10.07-1.84,1.25-2.8,2.06-2.8,2.79s1.18,1.47,3.68,2.65a101.19,101.19,0,0,0,16.1,5.81Z" transform="translate(-59.94 -600.1)"/><path class="cls-2" d="M641.53,712.84a6.08,6.08,0,0,1-4.41,1.61,6,6,0,0,1-4.45-1.88,6.32,6.32,0,0,1,4.45-10.79h.28a7.7,7.7,0,0,1,6,2.86,10.84,10.84,0,0,1,2.47,7.37,10.35,10.35,0,0,1-3.32,7.74A11.7,11.7,0,0,1,634.1,723a15.7,15.7,0,0,1-11.18-4.39,14.26,14.26,0,0,1-4.65-10.76A15,15,0,0,1,624,696a22.57,22.57,0,0,1,28.31.14A16.12,16.12,0,0,1,658,708.71a18.47,18.47,0,0,1-1.82,7.65,19.9,19.9,0,0,1-4.65,6.6l-4.12-2.33q4.62-6,4.63-11.92a11,11,0,0,0-3.88-8.65q-3.89-3.42-10.16-3.41a14.65,14.65,0,0,0-9.84,3.32,10.34,10.34,0,0,0-1,15.29,9.48,9.48,0,0,0,7,2.93,8.77,8.77,0,0,0,4.87-1.45A5.48,5.48,0,0,0,641.53,712.84Zm-4.41-2.51a2.3,2.3,0,0,0,2.19-2.19,2.14,2.14,0,0,0-.67-1.57,2.09,2.09,0,0,0-1.52-.66,2.27,2.27,0,0,0-2.23,2.23,2.07,2.07,0,0,0,.67,1.52A2.1,2.1,0,0,0,637.12,710.33Z" transform="translate(-59.94 -600.1)"/><path class="cls-2" d="M666.38,722.94c10-12.21,14-21.55,14-32.28,0-8.9-6.91-17-13.45-21.77l6.91-6.47c9.12,6.33,16.25,16.77,16.25,28.24,0,14.26-5.66,24.93-15.74,37.13Z" transform="translate(-59.94 -600.1)"/></svg>
