<svg id="レイヤー_1" data-name="レイヤー 1" xmlns="http://www.w3.org/2000/svg" xmlns:xlink="http://www.w3.org/1999/xlink" viewBox="0 0 204.36 694.72"><defs><style>.cls-1{fill:url(#名称未設定グラデーション_15);}.cls-2{fill:none;stroke:#000;stroke-miterlimit:10;stroke-width:2px;}.cls-3{fill:#c1272d;}</style><linearGradient id="名称未設定グラデーション_15" x1="272.53" y1="398.07" x2="474.89" y2="398.07" gradientUnits="userSpaceOnUse"><stop offset="0" stop-color="#fcee21"/><stop offset="0.16" stop-color="#fffcdc"/><stop offset="0.28" stop-color="#fffac0"/><stop offset="1" stop-color="#fcee21"/></linearGradient></defs><path class="cls-1" d="M386.25,294.24a6.29,6.29,0,0,0,3.35,1.67,19.92,19.92,0,0,1,4.55,1.92c3.11,1.44,3.35,1.68,4.31,3.11a13,13,0,0,0,4.79,3.83c1.91,1,4.79,3.83,5.27,5,.71,1.2.24,1.91-1,2.15h-1v1.92c0,2.63-.72,4.31-2.15,5.51a14.73,14.73,0,0,1-4.31,2.87,6.5,6.5,0,0,0-1.92.72c-1.43.48-1.91.72-2.15,1.67-.48,1.2-.48,1.92.48,2.4.71.24,1.43,1.43,1.91,2.63s2.39,5,3.83,7.66c1,1.68,1.2,1.92,1.92,2.16l1,.24v5c0,5.27,0,5.51-2.15,3.36-1-1-1.2-1.2-1.68-.72-.23.24-.23.48.48,1.43a2.19,2.19,0,0,1,.72,1.2,45,45,0,0,0,3.35,7.18c1,1.44,1.2,1.68,1.68,1.68l.72-.24-.48-1a3.84,3.84,0,0,0-.72-1.43,13.28,13.28,0,0,1,3.59,1.67c.72.48,1,.72,1,1.2,0,.24.24.48.48.72a.88.88,0,0,0,.72.24,104.14,104.14,0,0,1,7.66,7.42c.72.72,2.63,2.87,4.31,4.55s4.55,4.31,6.22,6a27.32,27.32,0,0,0,4.07,3.35c2.87,1.44,4.79,3.84,6.7,6.47a11.38,11.38,0,0,0,1.44,1.67,2.63,2.63,0,0,0,1.92,0c0-.23.48-.47,1.19-.47,1-.24,1.68-.48,1.92-1,.48-.48.72-.72.72-.48.48.72.48,0,.48-1.92s0-2.39.48-2.39.47-.24.23-.72c-.23-1,0-1.2.72-.24a6.36,6.36,0,0,0,1.44,1.2c.48,0,.72.48,2.15,4.79.72,2.39,1.2,4.55,1.44,4.55s0-1.2,0-2.64c0-1.91,0-2.39.24-2.39s.24,0,0-.24-.24-1,0-.72c.24,0,.24,0,.48-.24s.24-.24.72.24a2,2,0,0,1,.72,1.2c.23,1,.47,1.43,1.67,1.43a3.64,3.64,0,0,1,1.92,1,4.17,4.17,0,0,0,1.91,1.2c.48,0,1,.48,2.16,1.91,2.63,3.6,2.87,4.31,3.35,7a14.63,14.63,0,0,1,.24,3.11c-.24,1.2.24,2.87,1.19,4.79.24.72.72,1.91,1,2.87a15.29,15.29,0,0,0,1.44,3.83c1.67,2.87,2.15,4.79,1.91,7.42a5.77,5.77,0,0,1-.47,2.64c-.24.48-.24.48,0,.71s-.48.72-2.16,1.68c-.48.24-.72.72-.24.72.24,0-.24.48-1.2,1l-1.67.71-2.4-.23c-9.09-1-14.84-2.88-19.15-6.23-1-.72-3.35-2.39-5.51-3.83a92.43,92.43,0,0,1-10.29-7.9l-1.2-1.2c-1.19-.48-15.8-14.12-19.39-17.95-2.63-2.88-7.42-8.86-18-22.75-2.63-3.35-5.26-6.94-6.22-7.9a131.8,131.8,0,0,1-14.36-18.19c-1.68-2.4-3.84-5.27-4.08-5.27-.47,0-2.63,2.15-3.11,3.35a13.4,13.4,0,0,1-1.2,1.92L363,346.19a7.64,7.64,0,0,1-1.44,1.92,5.16,5.16,0,0,0-1,1.19c-.24.48-.95,1.68-1.43,2.4s-1.2,1.43-1.44,1.91c-.72,1.2-1.44,2.16-2.63,4.07-2.64,3.59-4.07,5.75-4.79,6.95a17.33,17.33,0,0,1-1.92,2.39c-.95,1-1.43,1.2-1.91,1.2a1.44,1.44,0,0,0-1.44.71,54.59,54.59,0,0,0-5.26,7.19c-3.12,5.26-6.23,10.29-8.15,12.45a15.82,15.82,0,0,0-2.15,2.87c0,.24-.24.48-.48.72s-.24.24-.24,0c.24-.24,0-.48-.24-.24-.24,0-.24.48-.24.72-.48-.24-5.5,6.94-5.5,7.66,0,.24-.24.48-.72,1-.72.71-2.4,2.87-2.16,2.87s0,.48-.24,1-.71,1-.71,1.19a10,10,0,0,1-1.68,2.64,18.25,18.25,0,0,0-1.92,2.39,1.8,1.8,0,0,1-.47,1,12.85,12.85,0,0,0-2.4,3.83c0,.24-.48.72-.72,1-.24,0-.71.72-1,.95s-.72,1-1.2,1.44c-1,.72-1.92,2.16-1.44,2.16.24,0-.48.71-1.19,1.67-2.64,2.87-4.55,5.27-4.55,5.75a2.15,2.15,0,0,1-1.44,1.43c-.48,0-6,5-8.14,7.19a5.08,5.08,0,0,1-1.91,1.67c-.25,0-.25,0-.25.24s0,.24-.23.24-.72.24-1.2,1l-.72,1.2,1,.47a7.94,7.94,0,0,1,1.44,1.2c.47.48.47.72.23,1-.23.48-.48.48-.23.72.47.48.23.72-.25.72-.23,0-.71.24-.71.47-.24.48-1.68,1.2-3.59,1.44-.72,0-1,.24-1,.48a.52.52,0,0,1-.48.48c-.24,0-.24.24-.24.48,0,.48,0,.72-.48,0l-.48-.72-.72.48c-.95,1-1.19,1-2.15-1.2-.48-1-.72-1-1.2-1s-.72-.24-1.43-1.19a16.92,16.92,0,0,0-1.68-2.16c-.72-1-1-1-1.68-.72a1.68,1.68,0,0,1-2.39-1.67c0-.48,0-.72,1.2-2.88.72-1.43.72-1.43.24-1.67a2.57,2.57,0,0,1-.48-1.44c0-.72,0-1,.48-1,.48-.23.48-.47.24-.71a.45.45,0,0,1,0-.72,6.37,6.37,0,0,0,1.43-3.11,11.86,11.86,0,0,1,2.4-4.55c.48-.72,1.19-2.4.95-2.64a28.53,28.53,0,0,1,2.4-4.55,20.62,20.62,0,0,0,1.44-3.35c.47-1.67,2.63-6,2.39-4.79,0,.24-.48,1-.48,1.2-.24,1.2.72-1,1.2-2.87s4.07-9.34,4.55-9.58c.23-.24.48.24,0,.72-.48,1-2.88,6.22-2.88,6.94a3.41,3.41,0,0,1-.48,1.44,2.16,2.16,0,0,0-.24,1.2,1.77,1.77,0,0,1-.47,1.43,3.58,3.58,0,0,0-.72,2.4l.24,1.43.24-1.43a3.84,3.84,0,0,1,.71-1.68,5.24,5.24,0,0,0,1-1.2c.48-1.19,1.2-1.91,1.68-1.91.24,0,.24.24.48.48s.24.72.48.72.23.48.23.71a1.62,1.62,0,0,0,1,1.68c.48.24.72.24,1.92-1a41.53,41.53,0,0,1,3.35-2.87c1-.72,2.39-1.68,2.87-2.16s1-1.19,1.2-.95-.24.48-.48.95a5.73,5.73,0,0,0-.48,2.16,4.52,4.52,0,0,1-.48,1.92c-.72.95-.72.95.24.23l1-.71.48.48a2.62,2.62,0,0,0,1.2.47,1.16,1.16,0,0,0,.24-1.67c-.48-.48-.24-.24.71-2.16a24.3,24.3,0,0,0,1-3.59,16.17,16.17,0,0,1,.72-2.87c.24-.48.72-1.92,1.2-3.35a10,10,0,0,1,1.67-3.35c1.92-1.92,7.42-10.78,10.3-16.52.72-1.44,1.91-3.12,2.39-4.07a76.84,76.84,0,0,1,6.47-8.86c.47-.48,1.19-1.2,1.19-1.68v-.72l.48.72c.48.48.48.48.48,1.44,0,.48-.24,1,0,1.2.24,0,6.46-11.5,11-19.88,1-1.67,1.92-3.59,2.4-4.31s1-1.91,1.43-2.63l.72-1.44-1.19,1.2a36.4,36.4,0,0,0-2.16,3.11c-1.2,1.92-3.11,3.36-4.07,3.36-.24,0-.48.23-.48,0a21.12,21.12,0,0,1,1.2-3.6,14.17,14.17,0,0,0,1.2-2.63c.48-1.2,1.43-2.87,1.91-3.83s1-2.15,1.2-2.63a27.87,27.87,0,0,1,2.39-5.27c.24,0,.48-.72.48-1.2A43.05,43.05,0,0,1,350.1,316a9.08,9.08,0,0,0,1.68-5.26c0-1.68,0-1.68-.72-1.92a3.87,3.87,0,0,1-1.68-2.39c-.24-.72-.24-1.2.24-1.2a.77.77,0,0,0,.72-.72c.48-1.43,1.2-1.91,4.07-1.91h3.11c.24,0,1-1,1.44-1.68a15.88,15.88,0,0,1,6.94-5,4.14,4.14,0,0,0,2.63-1.67c.48-.72.72-1,.72-1.2s.48-.24.72-.24a.52.52,0,0,0,.48-.48c0-.24.24-.24.48-.24a1.44,1.44,0,0,0,1-.24c.24-.24.47-.24.95,0a4.56,4.56,0,0,0,3.12-.24C378.11,290.41,382.66,291.6,386.25,294.24ZM366.62,366.3c3.83.24,7.9,1.68,13.41,4.55,3.83,1.92,5.26,3.11,8.62,6.22,1.43,1.2,3.35,3.12,4.54,4.07,4.07,3.36,5.75,5.27,6.95,7.67,1,2.15,1,2.39-.72,5.5-1.92,3.35-2.4,3.83-5,5.27-1.2.72-2.87,1.68-3.59,2.15a14.7,14.7,0,0,1-1.44,1c-.48.24-.48.48,0,1a1.65,1.65,0,0,0,2.16.72,4.05,4.05,0,0,1,1.2-.48c.23-.24.95.48,2.15,1.67s1.92,2.16,2.15,2.16.72.48,1.2,1c.72.48,1.68,1.19,2.4,1.67a8.73,8.73,0,0,1,2.15,1.2,2.74,2.74,0,0,0,1.44.72,2.39,2.39,0,0,1,2.39,1.2c1.92,1.91,2.63,5,1.44,6.22-1.44,1.44-4.55,3.35-6.47,3.59-1.43.24-1.91.48-1.91,1.2,0,.24,0,.48-.24.48s-.24.48-.24.72c0,.71-.72.95-1.44.47-.24-.24-.48,0-.95.48a2.36,2.36,0,0,1-1.92.72A6.78,6.78,0,0,0,390.8,429a7,7,0,0,1-1.44,1c-3.59,1.92-4.55,3.12-5,9.34a29.28,29.28,0,0,1-.48,4.55c-.48,3.83-.24,8.38.24,8.38s5-3.83,7.9-6.7c1.91-1.92,3.11-3.35,3.35-4.07a26.64,26.64,0,0,1,2.63-4.07c1.92-2.88,2.4-3.35,3.12-3.59s1.19-.24,1.19-.48a1.81,1.81,0,0,0-.24-1c-.24-.72-.24-.72.48-1.92a3.63,3.63,0,0,0,.72-1.43c0-.48,1.44-1.68,1.68-1.68a.52.52,0,0,0,.47-.48c0-.24.72-1,1.44-1.43a14.21,14.21,0,0,0,1.44-1,6.76,6.76,0,0,1,1.19-1l1.2-.72-.24-1.43c0-1.44,0-1.44.24-1.2s.48.24.48-.48c0-.48.24-.48.48-.48s.24,0,.24-.24.48-.24,1-.24a1.24,1.24,0,0,0,.95-.48c0-.24.48-.24,4.31,1.92,2.88,1.68,3.35,2.15,8.62,6.7a36.44,36.44,0,0,1,4.31,4.55,28.55,28.55,0,0,1,3.59,7.18l.24,1.68-.72,1.44a14.16,14.16,0,0,1-1.67,1.91,2.36,2.36,0,0,0-.72,1.92c-.24,2.15-2.15,4.07-3.83,3.83-.72-.24-1,0-1.68.72s-1,.71-2.15.71c-1.44,0-2.16,0-2.87.48a1.83,1.83,0,0,1-2.16-.24c-1-.95-3.11-.71-5.75.72a32.11,32.11,0,0,0-2.87,1.44c-.48.24-1.44.48-2.15.72a4.45,4.45,0,0,1-1.68.48,6.28,6.28,0,0,0-2.15,1.43c-.72.72-1.44,1.44-1.68,1.44s-.24.24-.24.48,0,.24.24,0c.24,0,.24,0,.24.24.24.24,0,.48-.24.48a5.15,5.15,0,0,0-2.39,2.15,1.32,1.32,0,0,1-.72,1.2c-.48.24-.72.24-.48.24s.24,0,.24.24-.48,0-.72,0c-1-.24-5,2.39-6.7,4.31-.72.71-1.2,1.19-1.44,1.19s-.24.24,0,.48.24.48-.24,1c-.24.24-.48.48-.72.48s0,0,0,.24c.24.24-.48.72-1.19,1.19s-1.2.72-1.2,1,2.87.24,7.42.24a188.6,188.6,0,0,0,21.07-1.2c2.15-.23,4.31-.71,4.79-.71a2.76,2.76,0,0,0,1.67-.48,7.47,7.47,0,0,1,1.44-1c.72-.48,1-.72,1-1.2s.24-.48.48-.48.71-.24.95-.95.48-1,1.44-1.2h1l-3.83-3.83c-4.31-4.31-4.79-5-2.88-4.79a11.3,11.3,0,0,1,2.16.72c1.67.72,1.91.48.72-.48l-1-.72,1.2.72c2.63,1.44,6.94,4.31,8.38,6a14.34,14.34,0,0,0,2.87,2.16,21.63,21.63,0,0,1,2.15,1.2,12.81,12.81,0,0,0,2.64,1.19,6.25,6.25,0,0,1,2.15,1.2,6.18,6.18,0,0,0,3.83,1.68,7.42,7.42,0,0,1,1.92.48c.72.24,1.91.71,2.63.95a5.67,5.67,0,0,1,4.07,2.16c.24.48,1.2,2.63,2.16,4.79a40.88,40.88,0,0,0,2.63,5,7.41,7.41,0,0,1,1.2,2.4,9.15,9.15,0,0,0,.95,2.63,21.43,21.43,0,0,1,2.16,6.94c.24,1.44.24,1.44-.72,2.16-1,1-1.44,1.68-1,3.11.24,1.2.24,1.2-.48,1.92-.47.72-.71.72-2.15.72a6.81,6.81,0,0,1-4.55-1.2,7.89,7.89,0,0,0-1.44-.72,4.76,4.76,0,0,1-1.91-.72,12.16,12.16,0,0,0-3.59-1.43,60.94,60.94,0,0,1-6-2.4,44.32,44.32,0,0,0-4.79-2.15,7.34,7.34,0,0,0-2.15.24c-1.2.24-1.68.24-4.07-.24a18,18,0,0,1-3.59-1c-1-.48-1.44-.48-3.83-.48-2.64,0-7.66,0-9.58.24-.48,0-1.91.24-3.11.24a48.54,48.54,0,0,0-6.47,1,5.93,5.93,0,0,1-2.39.48,22.79,22.79,0,0,0-3.83.23,40.77,40.77,0,0,1-6.7.72c-6.71.24-12,.48-12.69,1a5.25,5.25,0,0,0-.72,1.2,4.75,4.75,0,0,1-2.63,2.63c-.24,0-.72.24-.72.48,0,.48-1.68.48-4.79.48l-2.63.24-1,1.43c-1.2,1.92-1.44,1.92-6.23-1.67a93.27,93.27,0,0,1-8.62-7.66l-5.5-5.27-1.2-.24a7.19,7.19,0,0,1-2.87-.72c-1.2-.48-1.44-1-2.16-2.39a11.5,11.5,0,0,1-.95-3.59V480l.95-1.19c.48-.72,1.2-1.68,1.44-2.16s.24-.72.48-.72.48-.24.72-.72a12,12,0,0,1,4.07-3.11c.48-.24,1.19-1,1.91-1.43,1.2-1,1.2-1,2.4-1L353,470l2.88-2.88h-1.44c-.72,0-3.83,1-6.94,1.68s-6.23,1.68-7,1.68c-1.67.24-2.63.71-2.87,1.67a11.57,11.57,0,0,1-2.39,4.07c-.48.72-1,1.2-.72,1.2s.24.24.48.48c.24.48.48,1.19-.24,3.59a20.73,20.73,0,0,0-.72,3.35c.24.48-.72,2.63-1.68,3.59a6.3,6.3,0,0,0-1.19,1.44c-1,2.15-3.6,2.87-9.58,2.87-1.68,0-1.92,0-3.11-.72l-1.2-.72-1.44.72a4.49,4.49,0,0,1-2.15.72c-1,.24-2.87-.48-4.79-1.67a105.93,105.93,0,0,1-9.82-7.43c-.71-.71-1.19-.95-1.43-.95a5.22,5.22,0,0,0-1.44.47c-1,.48-1,.48-1.2.24a4.59,4.59,0,0,1-.23-3.11,4.26,4.26,0,0,0,.47-1.2v-1.43A5.55,5.55,0,0,1,297,474c.72-.72,1.2-1.2,1.2-1.92a6.45,6.45,0,0,1,.71-1.91c.24-.48.72-.72.48-1,0-.24-.24-.24,0-.24a8.72,8.72,0,0,0,2.16-1.68c.48-.48.72-.24,1.67-.24,2.16.24,5-.47,8.86-2.39,3.59-1.68,4.55-2.39,5-2.87.24-.24.48-.24,1.2.24,1.2.71,1.67.48,3.35-.48,1-.48,3.59-1.68,6-2.88a43.16,43.16,0,0,0,4.79-2.63c.48-.48,2.16-.72,2.16-.48s-.24.24-.48.48a1.44,1.44,0,0,0-.24,1,1.55,1.55,0,0,1-.48,1.2l-.72.71h.48a3.24,3.24,0,0,0,1.68-.71,4.22,4.22,0,0,1,1.91-1.2c1.68-.24,1.92-1.2.24-1.68-2.15-.48-5.5-3.83-7.42-7.18a32.28,32.28,0,0,0-7.42-8.38c-2.16-1.67-2.4-2.15-1.68-2.87a.88.88,0,0,0,.24-.72c0-.48,3.35-4.79,4.55-5.51.48-.48.72-.48.48-.72s0-.47.24-.47.72-.72,1-1.44A71,71,0,0,1,341,407.72c2.64-2.87,3.83-3.59,1.92-1.2-2.64,3.35-6.71,9.58-7.42,11.73a14.15,14.15,0,0,0-1,6c0,.72.24,1.2,0,1.2s-.24,0-.24.24c0,.71.72.23,6.7-3.83a89.18,89.18,0,0,0,15.09-12.45l2.87-2.88.24-1.67a9.29,9.29,0,0,1,.72-2.88c.71-.71.71-1,.71-3.59v-2.87l-1.19-.72-1.44-.72-1.68,1.2c-.95.72-2.87,2.39-3.59,2.87-1,.72-3.11,2.16-3.35,2.4a13.82,13.82,0,0,0-2.87,2.39c-1.44,1.44-2.16,1.68-2.16,1.2s6-6.23,9.1-8.86a14.5,14.5,0,0,0,2.64-2.39c0-.48-1.2-1.2-1.92-1.2a1.8,1.8,0,0,1-1.2-.24,2.74,2.74,0,0,0-1.43-.72,7.28,7.28,0,0,1-2.64-.72,6.65,6.65,0,0,1-4.31-4.07c-.48-1.43-.48-1.43,0-1.43s.48-.24.24-.48-.24-.48-.24-1c0-.24.24-.72,0-1.2-.24-.72-.24-.95.24-1.43.24-.48.48-.48.72-.48s1,0,1.2-.24a4.05,4.05,0,0,1,1.2-.48,9.94,9.94,0,0,0,2.39-1.92c2.39-2.15,3.83-2.87,5.27-2.63.95,0,.95,0,1.67-.72a6.49,6.49,0,0,0,1.68-2.87,15.18,15.18,0,0,0,1.19-1.68,10.42,10.42,0,0,1,3.12-2.15A8,8,0,0,1,366.62,366.3Zm-39.26,1.44c-1.68,3.11-2.16,4.07-2.16,4.31s.72-1,1.68-2.64C328.79,365.82,329,364.86,327.36,367.74Zm30.16,86.67c-.24,0-.72.47-1.67,1.67a3.66,3.66,0,0,1-2.4,1.44,14.68,14.68,0,0,0-2.63.72,11.94,11.94,0,0,1-2.16.47c-.48,0-2.39-.47-4.07-.71s-3.35-.72-3.59-.72a15.23,15.23,0,0,0-2.87,2.87,2.37,2.37,0,0,0-.48,1.44,2.91,2.91,0,0,1-.48,1.67c-1.2,2.4-.72,3.59,1.92,3.83a10.81,10.81,0,0,0,3.35-.71c1-.24,4.31-1.44,7.18-2.4,5.75-1.91,5.75-1.91,6.94-4.55a10.19,10.19,0,0,0,1-3.35C357.52,455.12,357.76,454.17,357.52,454.41Zm52.19-92.9c-.24.48,4.07,6.71,5.75,8.14.48.48.48.48.24,0a18.29,18.29,0,0,0-2.16-3.59C411.15,362.23,410,361,409.71,361.51Z" transform="translate(-271.53 -290.14)"/><path class="cls-2" d="M386.25,294.24a6.29,6.29,0,0,0,3.35,1.67,19.92,19.92,0,0,1,4.55,1.92c3.11,1.44,3.35,1.68,4.31,3.11a13,13,0,0,0,4.79,3.83c1.91,1,4.79,3.83,5.27,5,.71,1.2.24,1.91-1,2.15h-1v1.92c0,2.63-.72,4.31-2.15,5.51a14.73,14.73,0,0,1-4.31,2.87,6.5,6.5,0,0,0-1.92.72c-1.43.48-1.91.72-2.15,1.67-.48,1.2-.48,1.92.48,2.4.71.24,1.43,1.43,1.91,2.63s2.39,5,3.83,7.66c1,1.68,1.2,1.92,1.92,2.16l1,.24v5c0,5.27,0,5.51-2.15,3.36-1-1-1.2-1.2-1.68-.72-.23.24-.23.48.48,1.43a2.19,2.19,0,0,1,.72,1.2,45,45,0,0,0,3.35,7.18c1,1.44,1.2,1.68,1.68,1.68l.72-.24-.48-1a3.84,3.84,0,0,0-.72-1.43,13.28,13.28,0,0,1,3.59,1.67c.72.48,1,.72,1,1.2,0,.24.24.48.48.72a.88.88,0,0,0,.72.24,104.14,104.14,0,0,1,7.66,7.42c.72.72,2.63,2.87,4.31,4.55s4.55,4.31,6.22,6a27.32,27.32,0,0,0,4.07,3.35c2.87,1.44,4.79,3.84,6.7,6.47a11.38,11.38,0,0,0,1.44,1.67,2.63,2.63,0,0,0,1.92,0c0-.23.48-.47,1.19-.47,1-.24,1.68-.48,1.92-1,.48-.48.72-.72.72-.48.48.72.48,0,.48-1.92s0-2.39.48-2.39.47-.24.23-.72c-.23-1,0-1.2.72-.24a6.36,6.36,0,0,0,1.44,1.2c.48,0,.72.48,2.15,4.79.72,2.39,1.2,4.55,1.44,4.55s0-1.2,0-2.64c0-1.91,0-2.39.24-2.39s.24,0,0-.24-.24-1,0-.72c.24,0,.24,0,.48-.24s.24-.24.72.24a2,2,0,0,1,.72,1.2c.23,1,.47,1.43,1.67,1.43a3.64,3.64,0,0,1,1.92,1,4.17,4.17,0,0,0,1.91,1.2c.48,0,1,.48,2.16,1.91,2.63,3.6,2.87,4.31,3.35,7a14.63,14.63,0,0,1,.24,3.11c-.24,1.2.24,2.87,1.19,4.79.24.72.72,1.91,1,2.87a15.29,15.29,0,0,0,1.44,3.83c1.67,2.87,2.15,4.79,1.91,7.42a5.77,5.77,0,0,1-.47,2.64c-.24.48-.24.48,0,.71s-.48.72-2.16,1.68c-.48.24-.72.72-.24.72.24,0-.24.48-1.2,1l-1.67.71-2.4-.23c-9.09-1-14.84-2.88-19.15-6.23-1-.72-3.35-2.39-5.51-3.83a92.43,92.43,0,0,1-10.29-7.9l-1.2-1.2c-1.19-.48-15.8-14.12-19.39-17.95-2.63-2.88-7.42-8.86-18-22.75-2.63-3.35-5.26-6.94-6.22-7.9a131.8,131.8,0,0,1-14.36-18.19c-1.68-2.4-3.84-5.27-4.08-5.27-.47,0-2.63,2.15-3.11,3.35a13.4,13.4,0,0,1-1.2,1.92L363,346.19a7.64,7.64,0,0,1-1.44,1.92,5.16,5.16,0,0,0-1,1.19c-.24.48-.95,1.68-1.43,2.4s-1.2,1.43-1.44,1.91c-.72,1.2-1.44,2.16-2.63,4.07-2.64,3.59-4.07,5.75-4.79,6.95a17.33,17.33,0,0,1-1.92,2.39c-.95,1-1.43,1.2-1.91,1.2a1.44,1.44,0,0,0-1.44.71,54.59,54.59,0,0,0-5.26,7.19c-3.12,5.26-6.23,10.29-8.15,12.45a15.82,15.82,0,0,0-2.15,2.87c0,.24-.24.48-.48.72s-.24.24-.24,0c.24-.24,0-.48-.24-.24-.24,0-.24.48-.24.72-.48-.24-5.5,6.94-5.5,7.66,0,.24-.24.48-.72,1-.72.71-2.4,2.87-2.16,2.87s0,.48-.24,1-.71,1-.71,1.19a10,10,0,0,1-1.68,2.64,18.25,18.25,0,0,0-1.92,2.39,1.8,1.8,0,0,1-.47,1,12.85,12.85,0,0,0-2.4,3.83c0,.24-.48.72-.72,1-.24,0-.71.72-1,.95s-.72,1-1.2,1.44c-1,.72-1.92,2.16-1.44,2.16.24,0-.48.71-1.19,1.67-2.64,2.87-4.55,5.27-4.55,5.75a2.15,2.15,0,0,1-1.44,1.43c-.48,0-6,5-8.14,7.19a5.08,5.08,0,0,1-1.91,1.67c-.25,0-.25,0-.25.24s0,.24-.23.24-.72.24-1.2,1l-.72,1.2,1,.47a7.94,7.94,0,0,1,1.44,1.2c.47.48.47.72.23,1-.23.48-.48.48-.23.72.47.48.23.72-.25.72-.23,0-.71.24-.71.47-.24.48-1.68,1.2-3.59,1.44-.72,0-1,.24-1,.48a.52.52,0,0,1-.48.48c-.24,0-.24.24-.24.48,0,.48,0,.72-.48,0l-.48-.72-.72.48c-.95,1-1.19,1-2.15-1.2-.48-1-.72-1-1.2-1s-.72-.24-1.43-1.19a16.92,16.92,0,0,0-1.68-2.16c-.72-1-1-1-1.68-.72a1.68,1.68,0,0,1-2.39-1.67c0-.48,0-.72,1.2-2.88.72-1.43.72-1.43.24-1.67a2.57,2.57,0,0,1-.48-1.44c0-.72,0-1,.48-1,.48-.23.48-.47.24-.71a.45.45,0,0,1,0-.72,6.37,6.37,0,0,0,1.43-3.11,11.86,11.86,0,0,1,2.4-4.55c.48-.72,1.19-2.4.95-2.64a28.53,28.53,0,0,1,2.4-4.55,20.62,20.62,0,0,0,1.44-3.35c.47-1.67,2.63-6,2.39-4.79,0,.24-.48,1-.48,1.2-.24,1.2.72-1,1.2-2.87s4.07-9.34,4.55-9.58c.23-.24.48.24,0,.72-.48,1-2.88,6.22-2.88,6.94a3.41,3.41,0,0,1-.48,1.44,2.16,2.16,0,0,0-.24,1.2,1.77,1.77,0,0,1-.47,1.43,3.58,3.58,0,0,0-.72,2.4l.24,1.43.24-1.43a3.84,3.84,0,0,1,.71-1.68,5.24,5.24,0,0,0,1-1.2c.48-1.19,1.2-1.91,1.68-1.91.24,0,.24.24.48.48s.24.72.48.72.23.48.23.71a1.62,1.62,0,0,0,1,1.68c.48.24.72.24,1.92-1a41.53,41.53,0,0,1,3.35-2.87c1-.72,2.39-1.68,2.87-2.16s1-1.19,1.2-.95-.24.48-.48.95a5.73,5.73,0,0,0-.48,2.16,4.52,4.52,0,0,1-.48,1.92c-.72.95-.72.95.24.23l1-.71.48.48a2.62,2.62,0,0,0,1.2.47,1.16,1.16,0,0,0,.24-1.67c-.48-.48-.24-.24.71-2.16a24.3,24.3,0,0,0,1-3.59,16.17,16.17,0,0,1,.72-2.87c.24-.48.72-1.92,1.2-3.35a10,10,0,0,1,1.67-3.35c1.92-1.92,7.42-10.78,10.3-16.52.72-1.44,1.91-3.12,2.39-4.07a76.84,76.84,0,0,1,6.47-8.86c.47-.48,1.19-1.2,1.19-1.68v-.72l.48.72c.48.48.48.48.48,1.44,0,.48-.24,1,0,1.2.24,0,6.46-11.5,11-19.88,1-1.67,1.92-3.59,2.4-4.31s1-1.91,1.43-2.63l.72-1.44-1.19,1.2a36.4,36.4,0,0,0-2.16,3.11c-1.2,1.92-3.11,3.36-4.07,3.36-.24,0-.48.23-.48,0a21.12,21.12,0,0,1,1.2-3.6,14.17,14.17,0,0,0,1.2-2.63c.48-1.2,1.43-2.87,1.91-3.83s1-2.15,1.2-2.63a27.87,27.87,0,0,1,2.39-5.27c.24,0,.48-.72.48-1.2A43.05,43.05,0,0,1,350.1,316a9.08,9.08,0,0,0,1.68-5.26c0-1.68,0-1.68-.72-1.92a3.87,3.87,0,0,1-1.68-2.39c-.24-.72-.24-1.2.24-1.2a.77.77,0,0,0,.72-.72c.48-1.43,1.2-1.91,4.07-1.91h3.11c.24,0,1-1,1.44-1.68a15.88,15.88,0,0,1,6.94-5,4.14,4.14,0,0,0,2.63-1.67c.48-.72.72-1,.72-1.2s.48-.24.72-.24a.52.52,0,0,0,.48-.48c0-.24.24-.24.48-.24a1.44,1.44,0,0,0,1-.24c.24-.24.47-.24.95,0a4.56,4.56,0,0,0,3.12-.24C378.11,290.41,382.66,291.6,386.25,294.24ZM366.62,366.3c3.83.24,7.9,1.68,13.41,4.55,3.83,1.92,5.26,3.11,8.62,6.22,1.43,1.2,3.35,3.12,4.54,4.07,4.07,3.36,5.75,5.27,6.95,7.67,1,2.15,1,2.39-.72,5.5-1.92,3.35-2.4,3.83-5,5.27-1.2.72-2.87,1.68-3.59,2.15a14.7,14.7,0,0,1-1.44,1c-.48.24-.48.48,0,1a1.65,1.65,0,0,0,2.16.72,4.05,4.05,0,0,1,1.2-.48c.23-.24.95.48,2.15,1.67s1.92,2.16,2.15,2.16.72.48,1.2,1c.72.48,1.68,1.19,2.4,1.67a8.73,8.73,0,0,1,2.15,1.2,2.74,2.74,0,0,0,1.44.72,2.39,2.39,0,0,1,2.39,1.2c1.92,1.91,2.63,5,1.44,6.22-1.44,1.44-4.55,3.35-6.47,3.59-1.43.24-1.91.48-1.91,1.2,0,.24,0,.48-.24.48s-.24.48-.24.72c0,.71-.72.95-1.44.47-.24-.24-.48,0-.95.48a2.36,2.36,0,0,1-1.92.72A6.78,6.78,0,0,0,390.8,429a7,7,0,0,1-1.44,1c-3.59,1.92-4.55,3.12-5,9.34a29.28,29.28,0,0,1-.48,4.55c-.48,3.83-.24,8.38.24,8.38s5-3.83,7.9-6.7c1.91-1.92,3.11-3.35,3.35-4.07a26.64,26.64,0,0,1,2.63-4.07c1.92-2.88,2.4-3.35,3.12-3.59s1.19-.24,1.19-.48a1.81,1.81,0,0,0-.24-1c-.24-.72-.24-.72.48-1.92a3.63,3.63,0,0,0,.72-1.43c0-.48,1.44-1.68,1.68-1.68a.52.52,0,0,0,.47-.48c0-.24.72-1,1.44-1.43a14.21,14.21,0,0,0,1.44-1,6.76,6.76,0,0,1,1.19-1l1.2-.72-.24-1.43c0-1.44,0-1.44.24-1.2s.48.24.48-.48c0-.48.24-.48.48-.48s.24,0,.24-.24.48-.24,1-.24a1.24,1.24,0,0,0,.95-.48c0-.24.48-.24,4.31,1.92,2.88,1.68,3.35,2.15,8.62,6.7a36.44,36.44,0,0,1,4.31,4.55,28.55,28.55,0,0,1,3.59,7.18l.24,1.68-.72,1.44a14.16,14.16,0,0,1-1.67,1.91,2.36,2.36,0,0,0-.72,1.92c-.24,2.15-2.15,4.07-3.83,3.83-.72-.24-1,0-1.68.72s-1,.71-2.15.71c-1.44,0-2.16,0-2.87.48a1.83,1.83,0,0,1-2.16-.24c-1-.95-3.11-.71-5.75.72a32.11,32.11,0,0,0-2.87,1.44c-.48.24-1.44.48-2.15.72a4.45,4.45,0,0,1-1.68.48,6.28,6.28,0,0,0-2.15,1.43c-.72.72-1.44,1.44-1.68,1.44s-.24.24-.24.48,0,.24.24,0c.24,0,.24,0,.24.24.24.24,0,.48-.24.48a5.15,5.15,0,0,0-2.39,2.15,1.32,1.32,0,0,1-.72,1.2c-.48.24-.72.24-.48.24s.24,0,.24.24-.48,0-.72,0c-1-.24-5,2.39-6.7,4.31-.72.71-1.2,1.19-1.44,1.19s-.24.24,0,.48.24.48-.24,1c-.24.24-.48.48-.72.48s0,0,0,.24c.24.24-.48.72-1.19,1.19s-1.2.72-1.2,1,2.87.24,7.42.24a188.6,188.6,0,0,0,21.07-1.2c2.15-.23,4.31-.71,4.79-.71a2.76,2.76,0,0,0,1.67-.48,7.47,7.47,0,0,1,1.44-1c.72-.48,1-.72,1-1.2s.24-.48.48-.48.71-.24.95-.95.48-1,1.44-1.2h1l-3.83-3.83c-4.31-4.31-4.79-5-2.88-4.79a11.3,11.3,0,0,1,2.16.72c1.67.72,1.91.48.72-.48l-1-.72,1.2.72c2.63,1.44,6.94,4.31,8.38,6a14.34,14.34,0,0,0,2.87,2.16,21.63,21.63,0,0,1,2.15,1.2,12.81,12.81,0,0,0,2.64,1.19,6.25,6.25,0,0,1,2.15,1.2,6.18,6.18,0,0,0,3.83,1.68,7.42,7.42,0,0,1,1.92.48c.72.24,1.91.71,2.63.95a5.67,5.67,0,0,1,4.07,2.16c.24.48,1.2,2.63,2.16,4.79a40.88,40.88,0,0,0,2.63,5,7.41,7.41,0,0,1,1.2,2.4,9.15,9.15,0,0,0,.95,2.63,21.43,21.43,0,0,1,2.16,6.94c.24,1.44.24,1.44-.72,2.16-1,1-1.44,1.68-1,3.11.24,1.2.24,1.2-.48,1.92-.47.72-.71.72-2.15.72a6.81,6.81,0,0,1-4.55-1.2,7.89,7.89,0,0,0-1.44-.72,4.76,4.76,0,0,1-1.91-.72,12.16,12.16,0,0,0-3.59-1.43,60.94,60.94,0,0,1-6-2.4,44.32,44.32,0,0,0-4.79-2.15,7.34,7.34,0,0,0-2.15.24c-1.2.24-1.68.24-4.07-.24a18,18,0,0,1-3.59-1c-1-.48-1.44-.48-3.83-.48-2.64,0-7.66,0-9.58.24-.48,0-1.91.24-3.11.24a48.54,48.54,0,0,0-6.47,1,5.93,5.93,0,0,1-2.39.48,22.79,22.79,0,0,0-3.83.23,40.77,40.77,0,0,1-6.7.72c-6.71.24-12,.48-12.69,1a5.25,5.25,0,0,0-.72,1.2,4.75,4.75,0,0,1-2.63,2.63c-.24,0-.72.24-.72.48,0,.48-1.68.48-4.79.48l-2.63.24-1,1.43c-1.2,1.92-1.44,1.92-6.23-1.67a93.27,93.27,0,0,1-8.62-7.66l-5.5-5.27-1.2-.24a7.19,7.19,0,0,1-2.87-.72c-1.2-.48-1.44-1-2.16-2.39a11.5,11.5,0,0,1-.95-3.59V480l.95-1.19c.48-.72,1.2-1.68,1.44-2.16s.24-.72.48-.72.48-.24.72-.72a12,12,0,0,1,4.07-3.11c.48-.24,1.19-1,1.91-1.43,1.2-1,1.2-1,2.4-1L353,470l2.88-2.88h-1.44c-.72,0-3.83,1-6.94,1.68s-6.23,1.68-7,1.68c-1.67.24-2.63.71-2.87,1.67a11.57,11.57,0,0,1-2.39,4.07c-.48.72-1,1.2-.72,1.2s.24.24.48.48c.24.48.48,1.19-.24,3.59a20.73,20.73,0,0,0-.72,3.35c.24.48-.72,2.63-1.68,3.59a6.3,6.3,0,0,0-1.19,1.44c-1,2.15-3.6,2.87-9.58,2.87-1.68,0-1.92,0-3.11-.72l-1.2-.72-1.44.72a4.49,4.49,0,0,1-2.15.72c-1,.24-2.87-.48-4.79-1.67a105.93,105.93,0,0,1-9.82-7.43c-.71-.71-1.19-.95-1.43-.95a5.22,5.22,0,0,0-1.44.47c-1,.48-1,.48-1.2.24a4.59,4.59,0,0,1-.23-3.11,4.26,4.26,0,0,0,.47-1.2v-1.43A5.55,5.55,0,0,1,297,474c.72-.72,1.2-1.2,1.2-1.92a6.45,6.45,0,0,1,.71-1.91c.24-.48.72-.72.48-1,0-.24-.24-.24,0-.24a8.72,8.72,0,0,0,2.16-1.68c.48-.48.72-.24,1.67-.24,2.16.24,5-.47,8.86-2.39,3.59-1.68,4.55-2.39,5-2.87.24-.24.48-.24,1.2.24,1.2.71,1.67.48,3.35-.48,1-.48,3.59-1.68,6-2.88a43.16,43.16,0,0,0,4.79-2.63c.48-.48,2.16-.72,2.16-.48s-.24.24-.48.48a1.44,1.44,0,0,0-.24,1,1.55,1.55,0,0,1-.48,1.2l-.72.71h.48a3.24,3.24,0,0,0,1.68-.71,4.22,4.22,0,0,1,1.91-1.2c1.68-.24,1.92-1.2.24-1.68-2.15-.48-5.5-3.83-7.42-7.18a32.28,32.28,0,0,0-7.42-8.38c-2.16-1.67-2.4-2.15-1.68-2.87a.88.88,0,0,0,.24-.72c0-.48,3.35-4.79,4.55-5.51.48-.48.72-.48.48-.72s0-.47.24-.47.72-.72,1-1.44A71,71,0,0,1,341,407.72c2.64-2.87,3.83-3.59,1.92-1.2-2.64,3.35-6.71,9.58-7.42,11.73a14.15,14.15,0,0,0-1,6c0,.72.24,1.2,0,1.2s-.24,0-.24.24c0,.71.72.23,6.7-3.83a89.18,89.18,0,0,0,15.09-12.45l2.87-2.88.24-1.67a9.29,9.29,0,0,1,.72-2.88c.71-.71.71-1,.71-3.59v-2.87l-1.19-.72-1.44-.72-1.68,1.2c-.95.72-2.87,2.39-3.59,2.87-1,.72-3.11,2.16-3.35,2.4a13.82,13.82,0,0,0-2.87,2.39c-1.44,1.44-2.16,1.68-2.16,1.2s6-6.23,9.1-8.86a14.5,14.5,0,0,0,2.64-2.39c0-.48-1.2-1.2-1.92-1.2a1.8,1.8,0,0,1-1.2-.24,2.74,2.74,0,0,0-1.43-.72,7.28,7.28,0,0,1-2.64-.72,6.65,6.65,0,0,1-4.31-4.07c-.48-1.43-.48-1.43,0-1.43s.48-.24.24-.48-.24-.48-.24-1c0-.24.24-.72,0-1.2-.24-.72-.24-.95.24-1.43.24-.48.48-.48.72-.48s1,0,1.2-.24a4.05,4.05,0,0,1,1.2-.48,9.94,9.94,0,0,0,2.39-1.92c2.39-2.15,3.83-2.87,5.27-2.63.95,0,.95,0,1.67-.72a6.49,6.49,0,0,0,1.68-2.87,15.18,15.18,0,0,0,1.19-1.68,10.42,10.42,0,0,1,3.12-2.15A8,8,0,0,1,366.62,366.3Zm-39.26,1.44c-1.68,3.11-2.16,4.07-2.16,4.31s.72-1,1.68-2.64C328.79,365.82,329,364.86,327.36,367.74Zm30.16,86.67c-.24,0-.72.47-1.67,1.67a3.66,3.66,0,0,1-2.4,1.44,14.68,14.68,0,0,0-2.63.72,11.94,11.94,0,0,1-2.16.47c-.48,0-2.39-.47-4.07-.71s-3.35-.72-3.59-.72a15.23,15.23,0,0,0-2.87,2.87,2.37,2.37,0,0,0-.48,1.44,2.91,2.91,0,0,1-.48,1.67c-1.2,2.4-.72,3.59,1.92,3.83a10.81,10.81,0,0,0,3.35-.71c1-.24,4.31-1.44,7.18-2.4,5.75-1.91,5.75-1.91,6.94-4.55a10.19,10.19,0,0,0,1-3.35C357.52,455.12,357.76,454.17,357.52,454.41Zm52.19-92.9c-.24.48,4.07,6.71,5.75,8.14.48.48.48.48.24,0a18.29,18.29,0,0,0-2.16-3.59C411.15,362.23,410,361,409.71,361.51Z" transform="translate(-271.53 -290.14)"/><path class="cls-3" d="M391.6,523.47a10,10,0,0,1,2.7,1.46.87.87,0,0,1,.22.56c0,.34.12.45,1.69,1.24,2.14,1.13,2.93,1.69,3.6,2.7,1,1.36,1.36,2,1.13,3.16-.11.56,0,.9.56,1.57a7.4,7.4,0,0,1,1.35,2A2.5,2.5,0,0,1,403,538a3.11,3.11,0,0,1-1.8,1.58,1.28,1.28,0,0,0-.68.33.64.64,0,0,1-.45.12,4.81,4.81,0,0,0-.79.22.94.94,0,0,1-1.12-.11.89.89,0,0,0-.57-.11c-1,0-3.6.79-3.49,1.12a.58.58,0,0,1-.34.45c-.33.23-.33.34-.11.45s.23,0,0,.12-.34.11-.45.11-.79.22-2.81,1.57a4.71,4.71,0,0,0-1.24,1c0,.22-.34.34-.68.34-.11,0-.33,0-.33.11s-.12.11,0,.11,0,.11-.12.23-.11.22-.22.11-.11-.11-.45.22-.45.34-.23.34.23.45-.11.79c-.11.11-.22.34-.11.34s0,.11,0,.22a3.09,3.09,0,0,0,.79,1.92c.22.22.9,1.12,1.46,1.91a11.42,11.42,0,0,0,1.24,1.46c.11,0,.34-.22.56-.33s.34-.34.45-.23.23,0,.56-.11a10.13,10.13,0,0,1,2.82-.68c.22,0,.45,0,.45-.11s-.11-.11-.23-.11c-.33,0-.56-.23-.22-.34h.34l-.34-.11c-.23-.11,0-.11.11-.11.34-.12.45-.12.56,0s.34.22,1.13.22a6.28,6.28,0,0,0,2.59-.68,2.31,2.31,0,0,1,.9-.33,2.21,2.21,0,0,0,.79-.23,12.37,12.37,0,0,1,1.57-.67l1.13-.45.9.45c.56.22,1.24.45,1.46.56a.94.94,0,0,1,.68.34,2.28,2.28,0,0,1,.45.56,9,9,0,0,0,2.93,1.69,10,10,0,0,1,3.82,2.36c3.38,3.38,5.63,6.08,6.76,8.22a7.53,7.53,0,0,0,.67,1.13,2.06,2.06,0,0,1,.57,1.24,4.66,4.66,0,0,1-.23.9,5,5,0,0,0-.22,1.12.83.83,0,0,1-.12.57,6.45,6.45,0,0,0-.11.78,14.39,14.39,0,0,1-.34,1.8,2.16,2.16,0,0,1-.56,1.36c-.45.45-.9.67-1,.56a5.63,5.63,0,0,0-2-.79,23.08,23.08,0,0,0-2.81-.11,2.71,2.71,0,0,1-1.35-.23,1.82,1.82,0,0,0-1-.34,4.46,4.46,0,0,1-1.8-.67,2.78,2.78,0,0,0-1.57-.68,2.08,2.08,0,0,1-.79-.22,1.27,1.27,0,0,0-.57-.11.92.92,0,0,1-.45-.23c-.11-.11-.33-.22-.33-.11s-.12,0-.23,0-.22.11-.34.22a.78.78,0,0,1-.45.23,7.26,7.26,0,0,1-1.23-1.13c-1.13-1.12-1.13-1.12-3-1.12a3.66,3.66,0,0,0-1.58.33c-.11,0-1,.46-1.58.68-1.57.56-1.46.45-1.12.23a17.39,17.39,0,0,1,3.37-1.69,8.53,8.53,0,0,0,1.81-.9,9.77,9.77,0,0,0,1.57-3.27,4.72,4.72,0,0,0,.34-2.14,4,4,0,0,0-.23-1.8,3,3,0,0,0-.67-.9c-.56-.56-2.37-1.13-4.5-1.46-.68-.12-1.36-.12-1.69-.23a11.9,11.9,0,0,0-2.7-.22h-2.14l.22.56a7.69,7.69,0,0,1,.68,3.83c0,1,.11,1.8.11,1.91a13,13,0,0,1,0,2.93,4.69,4.69,0,0,0,0,1.8,14.16,14.16,0,0,1,.11,1.91,6.71,6.71,0,0,0,.34,2L394,572l-.45,1.13c-.23.67-.68,1.46-.79,1.91l-.34.68.23.9a11,11,0,0,1,.22,3.6c-.11,1.35,0,2.7.34,3a4.09,4.09,0,0,1,.79,1.57c.11.23-.11.91-.56,2.14a11,11,0,0,1-1.8,3.83,12.43,12.43,0,0,0-1.24,1.58,5.71,5.71,0,0,1-1.92,2.25c-.11.11-.78.9-1.12,1.35a1.43,1.43,0,0,1-.9.79,1.22,1.22,0,0,0-.68.34,1.89,1.89,0,0,1-1.57.56,10.61,10.61,0,0,0-2.59.34c-.12.11-.23-.12-.45-.12a1.25,1.25,0,0,0-.68-.22c-.22,0-.45-.11-.34-.11.34-.12.12-.34-.34-.45-.22-.12-.45,0-.67.11-.45.22-.56.22-.68-.11s-.11-.23.12-.23.22,0,.22-.11-.11-.11-.34-.11-.22-.12-.33-.23c-.12-.34-.57-.56-.45-.22.11.11,0,.22-.23.22a.59.59,0,0,1-.45-.22c-.11-.23-.45-.23-.79,0s-.45,0-.45-.45c0-.23.11-.23.23-.23.33,0,.22-.22-.23-.45s-.67-.23-.56,0-.23.11-.56-.23a1.44,1.44,0,0,0-1.24-.45l-.9-.11-.34-.45a1.47,1.47,0,0,0-.56-.79c-.23-.11-.34-.56-.57-1a1.87,1.87,0,0,0-.78-1c-.46-.23-.57-.34-.91-1a10.65,10.65,0,0,0-.78-1.57c-.34-.57-.79-1.35-1-1.69s-1-1.8-1.8-3.15a22.91,22.91,0,0,0-1.69-3,.75.75,0,0,1-.22-.57c.11-.11-.23-.56-.34-.45s0,0,0-.11c.11-.45-.22-.45-.56,0s-.34.34-.23.11c.23-.67-.22-1.12-.67-.67a1.25,1.25,0,0,1-.68.22,3.11,3.11,0,0,0-1.69.79c-.22.11-.11,0-.33-.11s-.46-.11-.68.22l-.56.57c-.23.22-.34.45-.23.56s.11.34.23.68c.11.78.11,1.12-.68,2.25-.45.67-.45.9-.34,1.35a.73.73,0,0,1-.56.9c-.22,0-.45.11-.45.22s-.23.68-.34,1.24a15,15,0,0,1-1.12,2.82,2.52,2.52,0,0,1-1.13,1.24,2.19,2.19,0,0,1-1,.33c-.12,0-.34.12-.68.45-.67.79-.79,1-.79,1.58s0,.9-.22.9a8.73,8.73,0,0,0-2,1,3.08,3.08,0,0,0-.34.79,2.36,2.36,0,0,1-.9,1.69.51.51,0,0,0-.33.56,1.23,1.23,0,0,1-.34.79l-.34.68a4.26,4.26,0,0,1-.56.9,1.8,1.8,0,0,0-.57,1.12,3.64,3.64,0,0,1-1.57,2.82,1.29,1.29,0,0,0-.45,1.12c0,.45-.11.9-.23.9s-.22.23-.45.34a.83.83,0,0,0-.34.68c0,.56-.11.67-.67.79-.23,0-.56.11-.56.22a1,1,0,0,0,.33.56,1.61,1.61,0,0,1,.45,1.13c0,.67,0,.67-.22.67a2.25,2.25,0,0,1-1.46-.67c-.34-.23-1-.79-1.58-1.13s-1-.67-1-.78,0-.57.22-.57.23-.22,0-.34-.22-.11-.11-.33a1.35,1.35,0,0,0,.22-.79c0-.45,0-.56-.11-.56s0-.12.11-.12c.34,0,1.24-1.91,1.69-3.26a18.56,18.56,0,0,0,.79-3.94,2.6,2.6,0,0,1,.23-1,11.63,11.63,0,0,0,.33-1.35l.12-.9.22.79a6.93,6.93,0,0,1,.23,1.35,1,1,0,0,0,.22.68,5.14,5.14,0,0,1,.23,1c.11.79.33.79.56.68a1.57,1.57,0,0,0,.45-1.47c0-.34-.11-.45,0-.34s.34.12.45-.45a2.42,2.42,0,0,1,.45-.78.92.92,0,0,0,.23-.45,4.55,4.55,0,0,1,.22-.79,14.15,14.15,0,0,0,.45-1.58,4,4,0,0,1,.23-1.12c.56-.68,3.82-9.46,3.6-9.91a.42.42,0,0,1,.11-.34,19.92,19.92,0,0,0,1-2.81c.45-1.47,1-3.16,1.23-3.72s.9-2.25,1.13-2.93c.34-1,1-2.81,1.46-3.94a8.53,8.53,0,0,0,.79-2.13c-.11-.12,0-.12.11-.34s.34-1,.68-1.92l1.24-3.26.67-1.58-.22-.11c-.11-.11-.34-.34-.34-.45s-.11-.11-.22-.23-.34,0-1.24.91a6.06,6.06,0,0,1-1.13,1c-.11,0-.11.11-.22.34s-.12.33-.23.22-.22.11-.34.23-.33.22-.33.11-.34-.11-.68.22a3.07,3.07,0,0,0-.68,2.14c0,.34,0,.45-.22.34h-.11a.35.35,0,0,1,0,.45c-.12.23-.23.23-.23,0s0-.22-.11-.22-.34.33-.34.78,0,.34-.11.12-.23-.34-.45,0a.42.42,0,0,1-.34.11c-.11,0-.11,0-.11.11s-.23.34-.45.56a3.77,3.77,0,0,0-.68.57,2.69,2.69,0,0,1-1.46.56c-.11-.11-.23.11-.45.34a1.5,1.5,0,0,1-.79.45c-.45.11-.45.11-.56.67a2.92,2.92,0,0,1-.34.9,5.36,5.36,0,0,0-.9,1.81c-.11.45-.23.56-.56.56s-.45,0-.57.34-.45.67-.79.45a4.77,4.77,0,0,0-2.81.22c-.23.23-.23.23-.34.11s-.11-.11-.11-.22-.23-.11-.68.11c-.11.11-.45.11-.9,0a.93.93,0,0,0-.78,0c-.12.11-.34.11-.79.11a12.21,12.21,0,0,1-1.47-.22c-.33-.11-1.46-.45-2.47-.68-1.69-.45-2.48-.78-2.14-.9.11,0,.11-.11-.11-.33l-.23-.34.34-.34c.34-.34.45-.56.22-.56s-.22,0-.11-.12,0-.11-.11-.22c-.34-.23-.23-.34.22-.56s.34-.23.34-.34.11-.34.56-.68a13.16,13.16,0,0,0,2.48-2.59c1-1.23,2-2.47,2.25-2.81a5.37,5.37,0,0,1,1.92-1.69,2.45,2.45,0,0,0,.78-.67c.12-.23.57-.45.79-.57s.45-.22.34-.34a.72.72,0,0,1,.23-.56,1.48,1.48,0,0,0,.33-.79,2,2,0,0,1,.57-1.23,2.47,2.47,0,0,0,.22-.68c0-.23.11-.34.34-.45.45-.23.9-.68.9-.9s0-.11.11-.11.11-.12.23-.34a1.28,1.28,0,0,1,1-.68c.11,0,.23-.11.34-.22a.41.41,0,0,1,.34-.11c.33,0,.78-.46.67-.68s0-.23.23-.34a1.12,1.12,0,0,0,.67-.9,1.12,1.12,0,0,1,.23-.56.86.86,0,0,0,.22-.45.8.8,0,0,1,.23-.56.62.62,0,0,0,.22-.46c0-.22,0-.33.12-.33s.11-.12.11-.23-.11-.34.11-.34c.45-.11.68-.33.56-.67,0-.11,0-.23.9-.23s.9-.11,1.69-1.35c.45-.56,1-1.12,1.58-1.8a17.51,17.51,0,0,1,7.43-4.28c1.58-.45,1.8-.45,1.91-.11s.23.34,1,.11a7.52,7.52,0,0,1,3.15.12,5.17,5.17,0,0,0,1.24.11,1.92,1.92,0,0,1,1.35.11,2.28,2.28,0,0,0,2.25-.11,3,3,0,0,1,.79-.23A1.44,1.44,0,0,0,371,541a2.12,2.12,0,0,0,.9-.79c0-.45,3.94-5.4,6.76-8.44A19.2,19.2,0,0,0,380,530c0-.12.56-.68.68-.79s.33-.56.56-1a6.89,6.89,0,0,1,.56-1c.23-.22.34-.33.11-.45a.67.67,0,0,0-.45-.11c-.11,0-.11,0-.11-.11s.68-.57.79-.57,0-.22,0-.45c0-.45,0-.45.22-.45s.34,0,.23-.22.11-.45.68-.68c.22-.11.56-.33.78-.45s.45-.22,2.59-.33C390.92,523.24,390.92,523.24,391.6,523.47ZM374,554.77a2.44,2.44,0,0,0-.79.67,17,17,0,0,0-1,2.59c-.56,1.58-1,2.82-1.12,3a4.89,4.89,0,0,0-.68,1.35,6.35,6.35,0,0,1-.68,1.24,3.11,3.11,0,0,0-.78,1.46c0,.12.22.45.33.79a1.38,1.38,0,0,1,.23.79,3,3,0,0,1-1.58,1.24c-.45.11-1,.45-1,.67s.11.12.23,0,.11-.22.22-.22a3.66,3.66,0,0,1-.67,1.69,6.84,6.84,0,0,0-.68,1.35,6.69,6.69,0,0,1-.9,2.14c-.45.56-.45.78-.11,1.24.11.22.45.45.45.67a3.13,3.13,0,0,0,.45.9,5.12,5.12,0,0,1,1,1.8c0,.23.11.45.23.45s.11.12.22.23a2.49,2.49,0,0,0,.56.45.57.57,0,0,1,.45.56c0,.68.12.9.79,1s.68.23,1.24.79a23.38,23.38,0,0,0,3.6,3.38c.79.45,1.13.45,1.24,0,0-.23.23-.45.34-.68s.34-.33.45-.22.22.11.45,0a.62.62,0,0,0,.23-.56.41.41,0,0,1,.11-.34,2,2,0,0,0,.11-1.58c-.11-.22-.22-.22-.56-.11a4,4,0,0,1-1-.11c-.22-.12,1.13-.23,1.92-.23s.56-.22,0-.56c-.11,0,0-.11.11-.34a1.62,1.62,0,0,0,.23-.67,18.61,18.61,0,0,1,1.23-3.16,3,3,0,0,0,.34-1.8,12.88,12.88,0,0,0-.22-2.25c-.23-1-.23-1,0-1.46a4.1,4.1,0,0,0,.11-2.59,2.71,2.71,0,0,1,0-1.35,3,3,0,0,1,.34-1.13,3.56,3.56,0,0,0,.22-3.26c-.11-.34-.34-1.13-.45-1.69-.11-.9-.22-1.24-.45-1.47s-.34-.33-.34-1.23v-.91l-1-1.12a6.29,6.29,0,0,0-1.58-1.35A1.72,1.72,0,0,0,374,554.77Zm46.05-33.89a7.54,7.54,0,0,1,3.49,2c1.24,1,1.69,1.58,1.8,2.14a5.64,5.64,0,0,0,.11,1.24,2.42,2.42,0,0,1,0,1.35c-.11.23-.22.45-.33.45a.25.25,0,0,0-.23.23,2.12,2.12,0,0,1-.23.67,2.76,2.76,0,0,0-.22.9,1.91,1.91,0,0,1-1.13,1.24,5.57,5.57,0,0,1-1.68.12,4.09,4.09,0,0,0-2,.45,4,4,0,0,1-1.35.33c-.45,0-.45,0-.79.45a3.4,3.4,0,0,0-.56.79c-.34.45-.45.68,0,1.24l.79.79c.56.67,1.12.79,2.81.79a5.48,5.48,0,0,1,2.93.45,1.89,1.89,0,0,0,.56.22c.34,0,.67.34.79.79a1.11,1.11,0,0,1-.12,1,6.86,6.86,0,0,1-.67,1.24,1.73,1.73,0,0,1-1.24.9,10.37,10.37,0,0,0-1.91.9,3.86,3.86,0,0,1-1.35.57.67.67,0,0,0-.45.11c-.12,0-.23.11-.34,0s-.23-.11-.56.11a3.26,3.26,0,0,1-2.82-.34,13.06,13.06,0,0,1-5-4.39c-.57-.9-.57-.9-.57-1.46A9.08,9.08,0,0,1,411,533a10.2,10.2,0,0,1,1.91-2,12.79,12.79,0,0,1,1.81-1.46,5.6,5.6,0,0,0,1.46-1.69l.34-.45-.23-.34a2.49,2.49,0,0,0-.45-.56,8.48,8.48,0,0,0-1.35-1.13c-.9-.67-1.13-.79-1.46-.79a1,1,0,0,1-1-.9c0-.22,0-.45.12-.45s.11-.11.11-.22.34-.45.67-.57c.12,0,.23-.22.23-.45.11-.56.22-.9.45-.9a.51.51,0,0,0,.34-.33.76.76,0,0,1,.56-.45C415.69,520,417.49,520.2,420.08,520.88Z" transform="translate(-271.53 -290.14)"/><path class="cls-3" d="M400.12,627a13.77,13.77,0,0,1,5.23,1.75c1.75,1,7.36,6.78,9.69,9.88,3.48,4.64,5.62,8.32,5.62,9.49a3.21,3.21,0,0,1-.78,1.74,7,7,0,0,1-1,1.16c-.19,0,.2.39.39.78a5.91,5.91,0,0,1,.19,4.06,1.78,1.78,0,0,0-.19,1c0,.2,0,.58-.19.58-.39,0-.59,1.16-.78,2.52a17.1,17.1,0,0,1-.39,1.94c0,.38.2.77,1,1.74.58.77.78.77,1.36.58.39-.19,1.35-.39,2.51-.77a21,21,0,0,0,2.72-1.17,4.88,4.88,0,0,1,3.1-1c.77,0,1.16,0,1.16-.2s.58-.58.77-.77.39-.2.78.19c.38.19.58.19.77,0,.39-.39,1.16-.19,1.75.39a21.73,21.73,0,0,0,3.09,2.13,41,41,0,0,1,6.78,5.62c1.94,1.93,2.13,2.32,2.13,2.71a5.79,5.79,0,0,1-.38,1.74c-.39.77-.39.77-.2,1.36a2.58,2.58,0,0,1,0,1.74c-.38,1.55-.77,2.13-1.55,2.32a1.54,1.54,0,0,0-1,.39c-.19.19-.38.39-.58.39a1.17,1.17,0,0,0-.77.19c-.39.39-1.16.39-2.33,0a2.38,2.38,0,0,0-1.93-.39,4.58,4.58,0,0,1-2.33,0,7.84,7.84,0,0,0-3.1,0c-1.35.2-4.45.59-7.16.78-2.91.39-5.23.77-6,1a4.85,4.85,0,0,1-3.29.19,1.88,1.88,0,0,0-1.74.2,7.35,7.35,0,0,1-1.74.38A12.18,12.18,0,0,0,406.9,683a7.83,7.83,0,0,1-2.32.77,19.58,19.58,0,0,0-3.87,2.13c-.2.2-1,.58-1.55,1a8.76,8.76,0,0,0-2.71,2.71,18.77,18.77,0,0,0-2.52,4.26c0,.2,1.74-.77,2.52-1.55.58-.58.77-1,1-.77s1-.39,1.55-1c.39-.39.58-.58,1-.39a1.94,1.94,0,0,0,2.13-1.74c0-.39,1.36-1,2.33-1.16,1.16-.19,4.84,1,7.16,2.32a55.06,55.06,0,0,1,8.52,6.78c3.68,3.88,6.2,7.56,6.2,9.69v1.16h-.77a4.57,4.57,0,0,0-2.91,1.74c-.39.39-.77.78-1,.78a3.24,3.24,0,0,0-1,.38c-.59.2-.59.2-1.36-.38-.39-.39-.78-.78-1-.78a7.71,7.71,0,0,0-1.36.39,11,11,0,0,0-1.54.77c-.39.2-.78.39-.59,0s0-.38-1.35,0a24.52,24.52,0,0,1-4.84.39,10.55,10.55,0,0,0-3.68.39c-.2.19-.39,0-.58,0a6.3,6.3,0,0,0-1.55.19,9.69,9.69,0,0,1-2.13.39c-.59,0-2.13-.39-3.49-.58a6.21,6.21,0,0,0-3.1.19,19.09,19.09,0,0,1-2.71.58c-4.65,1-6.78,1.94-10.27,5.62a26.23,26.23,0,0,0-5.23,6.78,6.34,6.34,0,0,0-.19,3.29c.19.58.19.58.58.39a16.73,16.73,0,0,0,4.46-2.33,1.77,1.77,0,0,1,1-.58c.19,0,2.51-1.74,5.42-3.68s5.42-3.68,5.81-3.87a4.07,4.07,0,0,0,1-.78c.38-.58,1.16-1,2.71-1.16.77,0,1.35-.19,1.35-.38.39-.39-.19-.59-.77-.39-.39.19-.39.19-.19-.2a1.19,1.19,0,0,1,1.35-.58c.39,0,.58.2.78,0a1.86,1.86,0,0,1,1.35-.38,5,5,0,0,0,2.71-.78c.39-.39,1.75-.19,2.72.39.38.19,1.93,1.35,3.29,2.32s4.06,2.71,5.61,3.88c6,4.26,8.53,6.39,8.91,7.94.2.58.39.77.39,1a1.45,1.45,0,0,1,0,1.55,2.76,2.76,0,0,0-.39,1.16c0,1.16-.19,1.35-2.9,1.55-3.1.19-3.1.19-3.68-.39-.39-.39-.78-.39-1.55-.2-1.36.39-1,.2-4.46,2.33-2.9,1.74-3.87,2.52-4.26,2.52-.19,0-.38.19-.58.38-.38.39-.58.39-1.35.2a2.9,2.9,0,0,0-1.55.39,26.12,26.12,0,0,1-6,2.32,48.4,48.4,0,0,0-6,2.13,6.63,6.63,0,0,1-1.74.77c-1.17.2-5.43,2.52-7.36,3.88a34.45,34.45,0,0,0-5.23,4.07c-1.36,1.35-1.36,1.74-1.36,2.13a2.54,2.54,0,0,1-1.16,2.32c-.39,0-.58.39-.78,1.55a33.93,33.93,0,0,0-.58,7.17,15.35,15.35,0,0,0,3.1,7,10.93,10.93,0,0,1,1.55,1.94c.39.58.78,1.16,3.1,2.71,4.65,3.1,11,6.39,11.81,6.19.2,0,.39-.19.39,0s0,.39.2.39A12.48,12.48,0,0,0,397,782c.77-.2.77-.2.58.19-.39.39-.2.39.38,0,.39-.39,1.17-.39,1.17,0a3.37,3.37,0,0,1-.39,1c-.19.39-.39.58-.19.78a1.76,1.76,0,0,1-.59,1c-1.16,1.75-1.54,2.91-1.16,4.27a2.11,2.11,0,0,1-.77,2.32c-.39.39-.39.39-.2.77s.2.39-.19.58a1.12,1.12,0,0,1-.77.2c-.39,0-.39.19-.39.39.19.38,0,.58-.78.58a6.35,6.35,0,0,1-1.93-.2c-1-.19-1-.19-1.55.39a1.6,1.6,0,0,1-1.17.77,6.34,6.34,0,0,0-1.55.39c-1.35.39-2.71.2-4.84-.19a17,17,0,0,1-4.45-1.55,24.79,24.79,0,0,0-2.33-1.16c-1-.39-2.32-1-3.09-1.36s-2.13-1.35-3.1-1.74A15,15,0,0,1,366,786.6a26.57,26.57,0,0,0-3.1-2.71,15.51,15.51,0,0,1-1.36-1c-.19-.2-.38-.39-.58-.39-.39,0-2.9-1.94-6-5-3.1-2.9-3.1-3.09-4.65-3.68a7.71,7.71,0,0,1-1.74-.77,11.41,11.41,0,0,1-.78-3.87c0-1.75.39-2.72,1.94-4.85.77-1,2.13-2.71,2.32-3.1,1.36-1.93,2.33-3.09,4.07-3.87a9,9,0,0,1,1.94-.77c.19,0,.38-.2.58-.39.38-.39.38-.39,2.13.58,1.93,1.16,2.71,1.16,5.23.58a7.39,7.39,0,0,0,3.29-1.55c1.16-1,14.53-14.33,14.53-14.72,0-.19-.78-.19-1.75-.19-3.68,0-9.29-1.74-11-3.49a10,10,0,0,1-1.93-2.71c.19,0,.19-.39.19-.58a1.48,1.48,0,0,1,.39-.78c.19-.19.58-.38.58-.58a1.77,1.77,0,0,1,.58-1,6,6,0,0,0,1-1.93c.19-.58.19-1.36.39-1.16s.77-.58,1-1.17a2.48,2.48,0,0,1,.78-1.35,6.94,6.94,0,0,0,1-1.55c.77-2.71,1.55-3.87,8.71-12.59l2.33-2.71-.78-.2c-.39-.19-1-.58-1.35-.77a4.15,4.15,0,0,0-1.17-.39,11.63,11.63,0,0,1-3.48-1.74,1.77,1.77,0,0,0-1-.58c-.2,0-.78-1-1-1.55,0-.39,0-.58.19-.58.39,0,.39-.2,0-.58-.19-.58.39-1.36,1-1.16.39,0,.2-.2,0-.39-.19-.39-.19-.2.2-.2.19,0,.19-.19.38-.58.2-.58.39-.58.78-.58s.39,0,.39-.39.19-.58,1.16-.38c.19,0,.58-.2.58-.39s0-.39.19-.19a.42.42,0,0,0,.39-.39c0-.39.19-.39.39-.39s.38.19.38,0,.2-.19,1-.19c1.17.19,1.55-.2,2.52-1.55,3.87-5.23,11.62-12.2,17.24-15.88.58-.39,1-.78.77-.78a8.41,8.41,0,0,0-1.35.39,7.68,7.68,0,0,1-1.75.19,6.54,6.54,0,0,0-2.32.58c-1,.39-4.45,1.36-7.94,2.52-11.82,3.88-14.33,4.84-17.24,6.59a8.84,8.84,0,0,1-2.32,1.16,27.66,27.66,0,0,0-5.62,3.1c-.77.39-3.1,1.55-6.58,2.9a7.27,7.27,0,0,1-1.94.58,2.56,2.56,0,0,1-1.94-.58c-1.35-1-2.71-3.29-2.13-3.87.19-.19.19-.39,0-.78,0-.38,0-.58.39-.58.39-.19.39-.19.19-.38s-.19-.39,0-.39c.2-.19.39-.39-.19-1.16-.39-.58-.58-1-.78-1s-.19.19-.19.39a9,9,0,0,1-1,1.55,15.53,15.53,0,0,0-1.35,3.09,8,8,0,0,1-1.17,2.33,4.09,4.09,0,0,1-1.35.77,7.06,7.06,0,0,0-3.49,3.1,3.48,3.48,0,0,0-.39,1,4,4,0,0,1-.38,1.16,6.85,6.85,0,0,0-1.16,3.1c0,.58-1,2.13-2.33,3.49-.19.38-1,1.16-1.35,1.93s-1,1.75-1.17,2.13a16.47,16.47,0,0,0-2.13,4.85c-.58,1.74-.58,1.93-.19,1.93.19,0,.19.39-.19,1-.2.58-.59,1.55-.78,2.13a13.63,13.63,0,0,1-.58,1.55,1.2,1.2,0,0,0-.19.78,13.63,13.63,0,0,1-1.36,2.13,19.14,19.14,0,0,0-1.74,2.71,15.25,15.25,0,0,1-2.52,4.45,17,17,0,0,0-2.32,3.3,11.8,11.8,0,0,1-1.55,1.93c-1.17,1.16-2.52,3.49-4.85,7.56-.58,1.16-1.16,1.93-1,1.93a3,3,0,0,1,1.16.78,2.88,2.88,0,0,1,1.16,2.71c0,.58.19.77.77,1,.78.39,1.17.39,1.17.19a2.56,2.56,0,0,1,2.13-.58,3.94,3.94,0,0,0,2.71-1c.58-.39.58-.58.58-.19-.19.39.39.58,1,.39s1.74-1.75,5.81-6.78c1.35-1.75,3.1-3.68,3.48-4.07.59-.58,1-1.74,1.94-3.68.78-1.55,1.74-3.49,2.33-4.46s1.74-2.71,2.32-3.87c1.55-2.71,3.87-6.78,5.62-8.71.77-.78,1.55-1.75,1.74-1.94s1.35-1.74,2.52-3.29c3.48-4.46,11-11.82,12-11.82.19,0,0,.58-.59,1.16a1.84,1.84,0,0,0-.58,1c0,.2-.38.39-.77.78a6.69,6.69,0,0,0-1.16,1.35,6,6,0,0,1-1,1.36c-.39.39-.78.58-.78.77a23.22,23.22,0,0,1-2.51,3.1c-1.36,1.55-2.72,3.29-2.91,3.49-.39.58-1.16,1.55-2.71,3.48-2.13,2.72-2.52,3.1-2.71,3.1-.39,0-2.13,2.13-2.91,3.68-.38.78-.58,1.17-.38,1s.77-1,1.16-1.35a2.28,2.28,0,0,0,1-1.17c0-.19,0-.38.19-.38a10.12,10.12,0,0,0,1.94-1.75c1.93-1.93,2.51-2.32,2.71-1.93.19.19-.2.58-.78,1.16a9.36,9.36,0,0,0-2.71,4.84,17.07,17.07,0,0,1-1,2.71v.78c.2.19,0,.19-.19.19s-.39.19-.39.58c.2.39.2.58-.19.78-.2.19-.39,0-.58,0s-.2.19-.2.38,0,.2-.19,0c0-.19-.19,0-.39,0a.41.41,0,0,1-.38-.38c0-.2,0-.2-.2,0a.71.71,0,0,0-.19.58,1.49,1.49,0,0,1-.39.77c-.39.39-.39.39-.58,0,0-.19-.19,0-.78.78-.38.58-1,1-1,1.16a4.21,4.21,0,0,1-.2,1.35,8.85,8.85,0,0,0-.39,1.94c0,.78-.19,1.16-.77,1.16-.39,0-2.52,2.52-2.71,3.1,0,.2-.39.58-.78,1a2.1,2.1,0,0,0-.77,1.74c0,.58.19.58.39.58.38-.19.19.39-.2.59-.19.19-.38.19-.38,0s-.2-.2-.2,0a.41.41,0,0,1-.39.38c-.19,0-.19,0-.19.2a.41.41,0,0,1-.39.38c-.19,0-.38,0-.38.2s-.2.58-.2.77-.19.78-.19,1.17V751l.39-.58c.19-.39.38-.39.38-.19s-.19.38-.38.77a7.47,7.47,0,0,0-1,1.36,6.46,6.46,0,0,1-.78,1.16.72.72,0,0,0-.19.58,20.5,20.5,0,0,1-1.55,4.45,5,5,0,0,0-.58,2.13,13.75,13.75,0,0,1-1,4.27c-.19.38,0,1,0,1.54.19.58-.19,1.36-.39,2.52-.58,2.13-.58,7.36-.19,7.75.19.19.19.39-.78,2.13-.58,1.16-1,2.13-1.16,2.13s-.39,0-.19.19-.2.58-.58,1.55c-.58,1.17-.78,1.55-.58,1.75s.19.19,0,.19c-.39,0-.58.39-.58.77,0,.2.19.2.38.2.39,0,.39,0-.19,1.16-.78,2.13-1,2.13-1.74,2.13a6.58,6.58,0,0,1-3.49-1.74c-.39-.39-1-1-1.36-1a10.21,10.21,0,0,1-3.09-3.29,20.77,20.77,0,0,0-2.14-2.52,42.8,42.8,0,0,1-5.22-5.81,7.09,7.09,0,0,1-.2-1.94c.2-.58.39-1.35.58-1.74s.39-.58.39-.78.39-.38.58-.58.39-.38.39-.58.19-.19.39-.19c.38,0,1.55-1.16,1.93-1.94a43.91,43.91,0,0,0-.19-7.16c0-.2-.58-.2-1-.39l-1-.39L312,761.22a18.56,18.56,0,0,1-3.49,5.23c-.19.39-.77.78-.77,1a1.75,1.75,0,0,1-1.16,1.16,8.67,8.67,0,0,0-1.75,1.55c-1,1-1.55,1.36-1.93,1.36-.2,0-.39,0-.39.19s-.39.2-.77.2c-.78,0-1,.19-1.17.58-.38.77-1.93,1.16-3.29,1.16-1,0-1,0-1.74-.77-.58-.78-.78-.78-1.36-.59-.77.2-1.74-.58-2.52-1.93a4.28,4.28,0,0,1-.38-2.33,25.2,25.2,0,0,1,.38-3.29c.2-1.16.58-2.13.58-2.32a9,9,0,0,1,.39-1.55c.2-.58.78-2.91,1.36-5s1-4.26,1.16-4.84l.39-1v1.55c0,.78-.39,2.71-.58,4.07-.39,2.13-.39,2.52-.2,2.9.2.2,0,.58,0,1.36a7.64,7.64,0,0,0,.58,3.49,3.31,3.31,0,0,0,1.36-.78c.19-.19,1-1.55,1.55-2.52a49,49,0,0,1,4.84-6.78,33.19,33.19,0,0,0,4.46-7c1.35-2.9,2.71-5.62,4.84-9.68a32.2,32.2,0,0,0,2.52-5.62,36.37,36.37,0,0,1,1.35-3.68,20.33,20.33,0,0,0,.78-2.71c.19-.58.58-1.55.77-2.13a55.4,55.4,0,0,0,2.71-7.36c0-.39.58-1.55,1-2.91A41.53,41.53,0,0,0,323,707c.39-1.54,1-3.29,1.16-3.87a16.13,16.13,0,0,0,.58-1.94,2.28,2.28,0,0,1,.58-1.16,7.4,7.4,0,0,0,.78-2.32c.39-1.16.77-2.71,1.16-3.88a12.49,12.49,0,0,0,.58-2.51c0-.2.39-1.36.58-2.33a14.41,14.41,0,0,0,.39-4.26,20.43,20.43,0,0,0-.19-3.68,27.23,27.23,0,0,0-2.52-6.58,11.5,11.5,0,0,1-1.16-2.13,2.61,2.61,0,0,1,0-1.75,5.69,5.69,0,0,1,1-1.35,2.12,2.12,0,0,0,0-2.91,1.82,1.82,0,0,1-.39-1.35,2.94,2.94,0,0,1,1.35-2.52,39.24,39.24,0,0,0,5.62-5.81c.39-.58,1-1.75,1.36-2.52.38-1,.77-1.94,1-2.32a4.48,4.48,0,0,0,.39-1.55,2.28,2.28,0,0,1,.58-1.17,1.12,1.12,0,0,0,.2-.77c0-.19.38-.58.77-.78.58-.38.58-.38.58-.77,0-.77.39-1.74.78-1.74a.7.7,0,0,0,.58-.2c.19-.19.77-.19,2.32,0a9,9,0,0,1,3.88,1.17,31.36,31.36,0,0,1,9.87,7.35,10.3,10.3,0,0,1,2.52,3.88,9.21,9.21,0,0,1,1.36,4.26c.19,1.16.58,2.9.77,3.68s.39,1.94.58,2.71a15,15,0,0,1,.39,1.74c0,.2-.19,1.55-.39,2.91-.58,2.71-1.16,3.87-2.13,4.45a13.41,13.41,0,0,0-1.74,2.13c-1.36,1.75-1.74,2.33-1.74,4.27,0,.58.19,1.35.19,1.74l.19.77.58-.38.59-.59,1.16.59a5,5,0,0,0,2.32.38c2.33-.19,4.84-1.74,8.14-5A13.81,13.81,0,0,1,373.4,677a16.46,16.46,0,0,0,2.32-.77,5.14,5.14,0,0,0,3.29-4.26,5.31,5.31,0,0,1,1.36-2.52,12.28,12.28,0,0,0,3.68-8.91c0-2.9-.39-8.13-.78-8.71a5.77,5.77,0,0,1-1-2.72,7,7,0,0,0-.39-1.93,4.89,4.89,0,0,1-.19-1.55c0-.39.19-.58,0-.58-.39,0,0-1.75.58-3.1a6.24,6.24,0,0,1,1.93-2.52,25.54,25.54,0,0,0,2.33-2.32,7.54,7.54,0,0,1,1.93-1.75l2.33-2.32c3.1-3.29,3.68-3.88,6-5C398.77,627,399.16,627,400.12,627Zm-61.2,121.25c.2.19,0,.19-.19.39s-.2.38-.39.19,0-.19.19-.39S338.73,748.05,338.92,748.25Zm79.8-9.1a.9.9,0,0,0,1.35.19,3.41,3.41,0,0,1,1.55-.19c.58,0,1.36-.2,1.75-.2.58-.19.58-.19,1.35.39s1,.58,2.91.39c1.16,0,1.93,0,2.13-.2s.58,0,2.9,1.75c1.75,1.35,1.94,1.54,1.94,2.13,0,1,.39,1.35,1.36,1.35,1.54,0,2.51.2,3.09.78.39.38.59.77.59,2.13s0,1.35.38,1.55c.2,0,.2.19.39,0,.39-.2,1.36.77,1.55,1.35a2,2,0,0,0,.39,1.16,1.53,1.53,0,0,1,.38.78,2.16,2.16,0,0,0,.59,1.16c.77,1,1.16,1.55,1.16,2.13a8.29,8.29,0,0,0,.19,1c.2.19.2.58.2,1.16s.19,1,.38,1,.2-.19.2,0c0,.39-.39.78-1,1s-.58.39-.39,2.32v2.33c-.58,2.13-.58,2.13-1.16,2.32a2.47,2.47,0,0,0-1.36.78,52.32,52.32,0,0,1-4.84,3.09c-.58.39-1.74,1.36-2.52,1.94-.77.78-1.35,1.16-1.74,1.16a15.35,15.35,0,0,0-4.07,2.52c-.39.2-.77.58-1,.58-.77,0-1.74,1-2.9,2.13-.58.78-1.16,1.36-1,1.36s.19.19,0,.58-.39.77-.78.77c-.58,0-1.16.39-.77.39.19,0,.19.2.19.39,0,.39.2.58,1,.77.58.2,2.52.78,4.65,1.36l3.87,1.16h2.14c1.16,0,2.71-.39,3.48-.39,1.55-.19,1.74-.38,2.52-2.13.39-.77.39-.77,0-1.74-.39-1.36-.39-1.36-.19-1.36.38.2.58-.38.38-1.35a3.14,3.14,0,0,1,0-1.36c0-.19.2-.19.39.39a1.5,1.5,0,0,1,.19.78c-.19.19.2.38.58.58.78.38.78.38.78,1.16a2.36,2.36,0,0,0,.58,1.74,20.79,20.79,0,0,0,2.13,1.36,10.51,10.51,0,0,1,2.13,1.35c.58.39,1.55,1.36,2.13,1.75,2.52,1.93,3.29,3.29,3.68,5.61.39,2.13-.19,3.68-1.55,4.46a4.11,4.11,0,0,1-3.68,0c-1.55-.58-1.74-.58-2.71,0a6.94,6.94,0,0,1-1.55,1,4.18,4.18,0,0,1-3.1-.2c-.38-.19-.77-.19-2.52-.19a13.88,13.88,0,0,1-6-1,9.26,9.26,0,0,0-1.74-.58,4.31,4.31,0,0,1-2.91-1.16,2.25,2.25,0,0,0-1.93-.78,5.92,5.92,0,0,1-3.68-1.16,6.32,6.32,0,0,0-3.49-1,7.87,7.87,0,0,1-2.52-.58,26,26,0,0,1-2.52-1.16,71.88,71.88,0,0,1-7.36-2.91,16.41,16.41,0,0,1-5.23-4.06,5.12,5.12,0,0,0-.77-1c-.58-.2-2.71-6-2.71-7.17a8.24,8.24,0,0,1,1.16-3.48,14,14,0,0,0,2.13-3.68c.58-1.36,2.13-3.49,5.23-6.78,1-1.16,1.94-2.13,2.13-2.52a4.65,4.65,0,0,0-.39-2.71c-.19-.58-.19-.58-1.16-.39a18.86,18.86,0,0,0-2.32,1,5.23,5.23,0,0,1-1.55.58,33.72,33.72,0,0,0-3.49,2.13,13.61,13.61,0,0,1-1.35,1c-1,.77-2.52,2.71-2.52,3.49,0,.38,0,.38-.2.19-.19-.39-1.16-.19-1.74.19a1.12,1.12,0,0,1-.77.2c-.2,0-.58.38-1,.77-.78,1-1.36,1.16-4.26,1.74-2.13.39-2.13.39-2.52,1-.39.78-.39.78-.78.39a.37.37,0,0,1,0-.58c.2-.2.39-.39.2-.58a.36.36,0,0,1,0-.58,1.48,1.48,0,0,0,.19-1,3.68,3.68,0,0,1,.39-1.36,3.81,3.81,0,0,0,.19-1.35c0-.39,0-.78.78-1.94a16.43,16.43,0,0,0,1.35-2.13c.58-1.16,5.62-6.2,7.36-7.36a19.81,19.81,0,0,1,2.72-1.55,9.89,9.89,0,0,0,2.32-1.55,10.42,10.42,0,0,1,4.26-2.52c1.55-.58,1.94-.77,2.52-1.93,1-1.55,1.74-2.13,4.84-2.33,2.52-.19,2.9-.39,3.29-.77a10.35,10.35,0,0,1,2.13-1.36C417.75,738,418.52,738.18,418.72,739.15Z" transform="translate(-271.53 -290.14)"/><path class="cls-3" d="M382.69,814.37a3,3,0,0,0,1.36.58,3.64,3.64,0,0,1,2.13.78,20.83,20.83,0,0,0,3.87,2.13,6.05,6.05,0,0,1,1.17.58,24.1,24.1,0,0,0,3.29,2.13,11,11,0,0,1,3.87,3.49c.39.58,1.16,1.74,1.36,1.93a7.28,7.28,0,0,1,1.74,3.68c.19,1,.19,1.16-.19,1.55a.9.9,0,0,1-1,.58,1.49,1.49,0,0,0-1,.39,3,3,0,0,1-1.16.77,4.1,4.1,0,0,0-1,.59c-.19.19.39.38.58,1l.39.78-.39,1a6.21,6.21,0,0,0-1,2.51,3.9,3.9,0,0,1-1.35,2.52,2.52,2.52,0,0,0-1,1.36,7.61,7.61,0,0,0,.19,1.74,15.2,15.2,0,0,1,.2,3.1,6,6,0,0,0,1,3.49,18,18,0,0,0,1.94,3.1c.58.77,2.13,2.13,3.1,3.29a50.73,50.73,0,0,0,6.78,6.2,20.56,20.56,0,0,1,3.1,2.71,60.47,60.47,0,0,0,11.81,7.94L424,875l1.16-.58c.77-.39,2.32-.77,3.29-1.16,1.55-.39,1.94-.78,2.13-1.16s1-.78,2.52-1.16a6.54,6.54,0,0,1,3.87,0c1.17.19,2.13.58,2.52.58s.78,0,1,.38c.39.58,1,.58.77.2s.2-.39.39,0c0,.19,0,.19.2,0,.19,0,.19,0,.19.19s.58.58,1.55,1a7.76,7.76,0,0,1,3.68,3.29c.39.78,1,1.36,1.16,1.16.19,0,.19-.19.39,0s.39.39.58.39.39.2.77.58a4.17,4.17,0,0,0,1.55,1c1.17.39,2.52,1.94,3.49,3.87a9.83,9.83,0,0,0,1.36,2.13,6.94,6.94,0,0,1,1.93,3.49c.58,2.33.39,2.52-1.16,3.88-1,1-1.16,1.16-1.16,1.54.19.2-.2,1-1.16,2.33a8.1,8.1,0,0,0-1.36,2.13c0,.19.39.19.58.19.78.2.2.39-1.55.58a15.09,15.09,0,0,0-4.07.78c-1,.39-1.93.39-1.93.19s-1.16-.19-4.26-.19c-4.65,0-6.59-.2-9.11-1a51.35,51.35,0,0,1-7.36-2.91,2.2,2.2,0,0,0-1.16-.58,16.73,16.73,0,0,1-3.68-1.93c-.19-.2-.38-.2-1-.2a6.09,6.09,0,0,1-1.74-.19,47.68,47.68,0,0,0-6.58-1.94,16.22,16.22,0,0,1-2.33-.77,1.74,1.74,0,0,0-1-.58c-.19,0-.19,0-.19-.2s-.39-.38-.78-.58-.77-.38-.77-.58-.77-.39-2.91-.39h-3.87a5.62,5.62,0,0,0-2.52,0,2.94,2.94,0,0,0-1.35.59c-.2.19,1.55,2.13,2.13,2.32a1.42,1.42,0,0,1,.77.39c.39.38.58.38,2.33.38h1.93l.78,1c.39.58,1.16,1.36,1.55,1.94s1.35,1.94,2.13,2.9C409,900,409,900,409.23,899.4s.19-.39.19.19,0,.77.78,1.55a27.6,27.6,0,0,1,1.93,2.52c1.16,1.74,1.36,2.71.58,3.87l-.58.78.39,1.35.19,1.36-.38.38c-.39.2-.39.59-.39,1s0,.39-.39.39c-.19,0-.39-.19-.58,0a6.06,6.06,0,0,1-2.71,0,.86.86,0,0,0-1,.19c-.19.2-.77.2-1,.2-.38,0-.58,0-1.55,1a5.27,5.27,0,0,1-1.74,1.35,9.84,9.84,0,0,0-3.1,1.75,5.33,5.33,0,0,1-3.48,1.35,11,11,0,0,0-3.3,1.16,7.93,7.93,0,0,0-2.9,2.13c-1,1.36-3.88,3.49-4.26,3.3-.2,0-.39,0-.39.19-.19.19-.19.19,0,.19s.19,0,.19.2a.71.71,0,0,1-.58.19,7.12,7.12,0,0,0-1.16.39c-.58.19-1,.39-1,.19s-.39,0-1,.39c-1,.58-5.61,3.68-7.74,5.42-.78.58-1.55,1.36-1.94,1.36-.78.19-2.33,1-5.23,2.9a36.76,36.76,0,0,1-5.42,2.91,16.15,16.15,0,0,0-3.68,1.74,6.1,6.1,0,0,1-1.55.78,30.5,30.5,0,0,0-3.88,1.16c-1.74.58-4.06,1.35-5,1.55a6.4,6.4,0,0,1-3.3-.2l-1.54-.38-2.14.58c-2.13.38-2.32.58-3.29,1.55-.58.58-1,1-1,1.16s.59.19,1.55.58c4.65,1.55,11,6,12.4,8.52a7.36,7.36,0,0,0,1.55,2.13,18.59,18.59,0,0,1,1.93,2.13,9,9,0,0,0,1.75,1.94A60.9,60.9,0,0,0,366,967.38c1.16.38,2.32,1,2.9,1.16s1.75.77,2.71,1.16c7,2.91,15.3,2.91,25,.2,3.1-1,3.87-1.36,4.26-1.94.39-.78.39-.78.19-1.36a4.58,4.58,0,0,1-.38-1.55c-.2-1.35-.39-1.35-1.94-1.35a28.06,28.06,0,0,1-3.49-.39c-1.55-.19-1.93-.19-2.71.19a7.55,7.55,0,0,1-4.65,1.17c-1.16-.2-3.48-.78-4.06-1-.2,0-.39,0-.59.39l-.19.58-.58-.39c-.39-.19-.58-.39-1-.58s-.58-.2-.77.39c-.2.19-.2.38-.39.58s-.19-.2-.58-.39-1.36-.78-2.13-1.16a17.09,17.09,0,0,1-3.88-2.33,7.27,7.27,0,0,0-3.09-1.74,3,3,0,0,1-1-.39,6.11,6.11,0,0,0-1.94-.19c-1.36,0-2.13-.58-3.29-1.74a5.43,5.43,0,0,1-1.55-4.07v-.78l-1.74-1.16c-1.55-1-1.55-1.16-1.36-1.55.58-.77,1.16-1.55,1.55-1.55.58,0,1-.58.58-.77-.58-.39-.39-1,1.16-2.52a28.17,28.17,0,0,0,2.52-2.71c.77-.78,1-1,1.74-1.16s1.16-.58,1.16-.78c.2-.58.59-.58,2.52-.58a4,4,0,0,0,2.91-.77,5.17,5.17,0,0,1,2.52-1c.58,0,1,0,1.16-.2,0-.19,0-.19-.2-.19s-.38,0-.19-.19a22.06,22.06,0,0,1,5.23-.58c.19,0,.39,0,.19-.2,0-.19,0-.19.2-.19.58,0,1.35,0,1.35.19.39.58,1.17.39,4.26-1,3.49-1.55,5.43-2.32,6-2.32.19,0,.39-.19.58-.19a7.79,7.79,0,0,1,1.94-1c1-.39,2.71-1.16,3.87-1.55,4.26-1.75,7.75-3.29,7.94-3.29s.39-.2.58-.39a.7.7,0,0,1,.58-.2,3.79,3.79,0,0,0,1.55-.58c.78-.58,1.16-1,1.16-1.16a.7.7,0,0,1,.2-.58,2.21,2.21,0,0,0,.58-1.36c0-.58.19-.77,1.35-1.55a11.67,11.67,0,0,1,1.55-.77,1.74,1.74,0,0,0,1-.58c.39-.39.58-.58.78-.39s.38,0,.38-.19c.2-.39,1.17-1.16,1.55-1,.2,0,.59.19.59,0,.19-.39,1.16,0,3.87,1.36a7.47,7.47,0,0,0,1.93.58,9.68,9.68,0,0,1,4.07,1.74,20.23,20.23,0,0,0,4.65,1.94c.39,0,3.68,3.1,4.46,4.26.19.19.38.38.58.38s.77.59,1.35,1.17c.78.58,1.75,1.35,2.13,1.55a20.58,20.58,0,0,1,6.39,8.52,7,7,0,0,1,.58,3.48,5,5,0,0,1-2.13,4.46c-.77.58-.77.58-4.06.77l-3.3.2-1-.58a11.76,11.76,0,0,0-5.43-1.17,3.71,3.71,0,0,0-3.1,1.17l-.58.38.2-.58c.19-1.16-.39-1.16-2.33-.58a2.6,2.6,0,0,1-1.74,0,9.2,9.2,0,0,0-1.55-.39,3.38,3.38,0,0,1-1-.38c-.58-.39-1-.39-2.13-.39a5.86,5.86,0,0,0-2.13.39,4.63,4.63,0,0,1-1.55.38l-.58.2.58-.58c.58-.58.39-.78,0-.78a1.12,1.12,0,0,0-.77.2.73.73,0,0,1-.58.19c-.2-.19-.59,0-1,.19a3.22,3.22,0,0,1-1.36.2,17.87,17.87,0,0,0-5.61,1.16c-.2.19-1,.39-1.75.77a29.35,29.35,0,0,0-4.45,2.52c-3.49,2.13-3.49,2.13-3.49,1.94,0-.39,2.13-1.94,3.1-2.71.58-.39,1.36-1,1.36-1.17a12.46,12.46,0,0,1,1.16-.77,25.38,25.38,0,0,0,3.87-3.49c0-.19.39-.19.58-.19.58,0,1.94-1.16,3.68-2.9a23.06,23.06,0,0,0,4.46-5.62c.58-1,1.74-2.71,1.93-3.1l1-1.36-1.35-.77a8.39,8.39,0,0,0-4.07-1.74l-1.55-.39-2.91,1c-1.54.38-3.48,1-4.06,1.16s-1.36.77-1.55.77c-.78.2-9.49,4.46-10.65,5.23a12.88,12.88,0,0,0-1.36,1c-.39.39-.19.2.39.39l.58.19-.39.78a11.38,11.38,0,0,0-1,1.55,4.55,4.55,0,0,1-.58,1.35,1.2,1.2,0,0,0-.19.78,19.19,19.19,0,0,0,2.52,4.06c.19.2.38.39.38.59s.39.58.58,1a5.18,5.18,0,0,1,.78,3.3c0,.77.19,1.16.58,1,.19-.19.19,0,0,.2-.58.58-.19,1.16,1.36,2.9a4.23,4.23,0,0,0,3.29,1.17,22.38,22.38,0,0,1,8.13,2.71c.39.38.58.38,1.16.19a3.37,3.37,0,0,1,2.72.19,9.65,9.65,0,0,0,3.68.78,1.23,1.23,0,0,1,1,.39,15.09,15.09,0,0,0,5,2.32c2.32.58,2.71.78,5.23,2.52,3.29,2.32,4.07,2.9,5,4.26a3.13,3.13,0,0,1,.77,2.13,1.7,1.7,0,0,1-1.55,1.74,5.52,5.52,0,0,0-1.36.78c-.58.39-1.16,1-1.35,1-.78.19-1.16.38-1,.77.19.58,0,.78-1,1a7.13,7.13,0,0,0-1.35.58,1.21,1.21,0,0,1-.78.19,1.81,1.81,0,0,0-1,.59,1.68,1.68,0,0,1-1.16.58,5.43,5.43,0,0,0-1.55.77,11.45,11.45,0,0,1-2.32,1,6.52,6.52,0,0,0-1.55.58,3.93,3.93,0,0,1-1.75.19,4.88,4.88,0,0,0-2.51.58,8.19,8.19,0,0,1-3.49.78,44.18,44.18,0,0,0-6.39,1,31.53,31.53,0,0,1-7.36.58c-.58,0-1.74-.19-2.52-.19a13.32,13.32,0,0,1-2.71-.39,11.73,11.73,0,0,0-2.32-.2,2.76,2.76,0,0,1-2.72-.77,12,12,0,0,0-3.48-1.55c-1.36-.58-3.68-1.36-4.84-1.74a25.53,25.53,0,0,0-2.52-.78c-.2,0-1.36-.58-2.71-1.16s-2.52-1.16-2.71-1.16a30.35,30.35,0,0,1-4.46-1.55c-.19-.19-.58-.19-1-.39a4.33,4.33,0,0,1-1-.58,1.85,1.85,0,0,0-1.35-.39,5.73,5.73,0,0,1-1.74-.38,28.53,28.53,0,0,0-2.91-1.17c-4.07-1.55-5.81-2.13-9.49-3.68-2.13-1-4.46-2.13-5.23-2.51A17.09,17.09,0,0,1,339.5,962c-.58-1.17-1.16-1.75-2.9-3.3-1.36-1.16-1.94-1.55-1.75-1,.2.39-.38,1.36-1.16,1.55a2.87,2.87,0,0,0-1.35,3.1,8.4,8.4,0,0,1-.2,2.13,19,19,0,0,0-.58,1.94,5.18,5.18,0,0,1-.77,1.94l-.78,1.16.39.77c.19.39.58.78.77,1.17.39.38.39.77.2,1s0,.58,0,1a5.1,5.1,0,0,1-.2,2.52,14.36,14.36,0,0,1-3.68,1c-2.13,0-7.94-2.71-9.68-4.65a4.61,4.61,0,0,0-1.55-1.16c-.77-.39-1.16-.58-2.71-3.3a68.23,68.23,0,0,1-4.07-7.16c-.77-1.55-.77-1.94-.38-2.91,0-.19.19-.77.38-1.55a5.25,5.25,0,0,1,1.55-3.09,20.55,20.55,0,0,1,3.68-2.52c.2,0,.58-.39.78-.78A8.23,8.23,0,0,1,317,948.4c2.51-1.36,3.68-2.52,6-5.43,1-1.16,1.94-2.51,2.52-3.09a3.59,3.59,0,0,0,1-1.36c0-.19.19-.39.38-.58s.58-.39.78-.58,0-.2.19,0,.2,0,.39-.2.58-.19.58,0c.19.39.39,0,.39-.38,0-.2,0-.58-.2-.58q-.57-.3,0-1.17a1.42,1.42,0,0,0,.39-.77c0-.39,1.55-1.55,2.33-1.55a.73.73,0,0,0,.58-.19,1.2,1.2,0,0,1,1.16,0c.19.19.19.19.19,0,.2-.2,1,0,2.71.77a10,10,0,0,0,3.3,1c.38,0,.77-.2,1,0a2.14,2.14,0,0,0,1,.39,9,9,0,0,1,1.94.77c1.94,1,2.32,1,5.42-.58a35,35,0,0,0,10.46-7.55c1.36-1.36,5.42-5,8.91-7.94,3.68-2.91,7-6,7.55-6.59a39,39,0,0,0,4.27-6.2c.58-1,1.74-2.71,1.93-3.1,1-1.35,1-1.35.39-1.16-1.74.39-2.91.78-3.68,1a55.36,55.36,0,0,0-9.49,5.62c-.39.19-.78.58-1.16.58-.2,0-.58.38-.78.58,0,.19-.19.19-.19,0s-.19,0-.78.39a6.67,6.67,0,0,1-1.55,1,50.39,50.39,0,0,0-8.13,6.4,13.76,13.76,0,0,0-2.13,2.9c-.78,2.13-1.16,3.29-1,3.68a5.72,5.72,0,0,1-.39,2.91,3.24,3.24,0,0,0-.38,1c0,.39,0,.59-.78,1.17-.58.38-1.35.77-1.74,1-.78.58-1,.58-1.16.19-.39-.39-1-.39-1.94,0-.77.39-1,.39-1.55,0a2.8,2.8,0,0,0-1.16-.39c-.78,0-3.1-1.55-4.26-2.9-.39-.58-1.16-1.36-1.55-1.94s-1.74-1.74-2.52-2.71-2.13-2.33-2.71-3.1c-.19-.39-1-1.55-1.16-1.94a4.76,4.76,0,0,1,1-3.48,8,8,0,0,0,1-1.75c.2-.77,1-1.74,3.68-5,1.94-2.33,4.07-4.65,4.65-5.23,1.94-1.75,3.29-3.1,3.49-2.91s-.2,1-.58,1.94a9.33,9.33,0,0,0-.78,4.26v3.29l.2,1,1.16-.77c2.13-1.17,8.13-4.07,10.26-4.85,2.52-1,5.62-2.32,12.4-5.61,5.23-2.52,7.16-3.29,10.07-4.07,1.16-.39,2.52-.58,2.91-.77a2.62,2.62,0,0,0,1.54-1.17c0-.38-.38-.19-1,.2s-.58.39-.58.19c.19-.39-1.94-.19-5.62.78s-3.68.58,0-.58c2.32-.78,3.87-1.17,7.55-2.52,7-2.52,14.92-4.85,16.08-4.85a7,7,0,0,0,2.13-.58c1-.38,2.13-.58,2.52-.77a9.33,9.33,0,0,0,2.9-1.16,16.21,16.21,0,0,0-2.52-2.33,117.43,117.43,0,0,1-26.34-32.54c-1-1.93-1.55-2.71-1.55-2.13a3.92,3.92,0,0,1-1.16,1.55c-2.13,2.33-9.1,10.27-9.68,11-.39.59-.58.78-1,.78s-.39,0-.58.58c-.2.39-.78,1.16-1.16,1.74-.59.78-2.33,3.29-3.1,4.46l-.58.77.58-.19a25.59,25.59,0,0,0,3.87-1.55,38.06,38.06,0,0,1,4.26-1.74,32.16,32.16,0,0,0,3.29-1A12,12,0,0,1,374,862a3.69,3.69,0,0,1,2.13,1.35,15.36,15.36,0,0,0,3.1,3.1,50,50,0,0,1,6.2,5,3.71,3.71,0,0,0,1,1.55,11.44,11.44,0,0,1,1.94,2.32,10.81,10.81,0,0,0,1,1.74,12.91,12.91,0,0,1,1,2.13c.77,1.55.77,1.75.58,1.94s-.39.39-.39.58c0,.58-3.29,3.1-5.23,4.07a19.85,19.85,0,0,1-6.2,1.74c-1.55.2-2.13.39-3.29.58-.19,0-.19,0-.19-.19s-.39-.19-1-.19c-.39,0-.78,0-.78-.2s-.58-.19-2.32-.39a13.66,13.66,0,0,1-5.81-2.51,3.39,3.39,0,0,0-3.68-1c-2.52.58-3.87,1.35-6.2,3.87-.77.78-2.32,2.13-3.29,2.91a6.57,6.57,0,0,0-1.74,1.74c-.2.58-.58.78-1,.58-.2-.19,3.48-4.84,7.36-9.3a17.27,17.27,0,0,0,2.13-2.71c0-.19-.78-.77-1.94-1.74-1.35-1.16-2.13-1.74-2.32-1.55s-.58-.19-.58-.77c0-.39-1.36-1.55-1.94-1.94-.39-.19-.58,0-1.16.77-.78,1-1.94,2.72-2.91,4.26a8.16,8.16,0,0,1-1.55,1.94,8.69,8.69,0,0,0-1.55,1.94c-.38.77-1.16,1.55-1.35,1.93a1.48,1.48,0,0,0-.39.78c.19.19-.19.58-.58,1.36-.78,1.35-5,7-6.39,8.52-1,1-5.81,7.16-5.81,7.36,0,.58-.2,1.16-.39,1.16s-.39.39-.78,1a12.29,12.29,0,0,1-2.32,2.52,35.37,35.37,0,0,0-3.68,3.87,17.08,17.08,0,0,1-2.32,2.52c-.39.19-.78.58-.78.77s-.19.2-.39.2a4,4,0,0,0-1.54,1.16c-1,1-1.36,1.16-1.75,1.16-.19,0-.39,0-.39-.19,0-.39-2.13.77-4.84,2.51-2.51,1.55-4.65,3.1-4.65,3.49a6,6,0,0,1-1.93,1.55,12.28,12.28,0,0,0-3.1,2.13c0,.19-.19.58-.19.77,0,.39,0,.39-.2.2-.39-.39-.58-.2-.58.19a1.2,1.2,0,0,1-.19.78c-.2.58-.78.38-1-.2a.41.41,0,0,0-.39-.38c-.19,0-.58-.59-.77-1a28.7,28.7,0,0,0-2.91-4.84c-1-1.36-1.35-2.14-.58-1.94.58.19,1-.39.58-.78-.19-.19-.19-.19,0-.19s0,0-.19-.19-.2-.39,0-.39c.19-.19.19-.39,0-.39s-.2-.39-.2-.58,0-.58.2-.39c.38.2.77-.19.58-.38a1.74,1.74,0,0,1,.58-1c.39-.39.77-.78.77-1s.2-.58.39-.58a3.51,3.51,0,0,0,1.16-1.74c0-.2.2-.39.39-.59.78-.58,1.94-2.13,4.84-6.39,4.26-6.2,8.14-12,8.53-12.39a11.78,11.78,0,0,0,1.16-1.55c0-.2.38-.58.77-1a3,3,0,0,0,.78-1.16c0-.2.19-.58.38-.58s.58-.39.78-.58c.39-.59,1.94-2.52,2.32-3.1.2-.2.2-.2,0,.19a5.82,5.82,0,0,1-.77,1.16c-.2.2-.39.39-.39.58s-.19.39-.39.58a1.53,1.53,0,0,0-.38.78c0,.19.58-.39,1.35-1.16s1.16-1.17,1.16-1,0,.19-.19.19-.19,0-.19.2-.2.38-.39.58a5.92,5.92,0,0,0-.78,1.55,5.48,5.48,0,0,1-1,1.55c-.39.38-.78,1.74-.59,1.74s.59-.58,1.17-1.16,1-.78.77-.58c-.39.77-1,2.13-.77,2.13s.38-.2.58-.39c.77-.78.19.19-2.71,4.45-1.75,2.52-3.3,5-3.68,5.62a19.46,19.46,0,0,0-2.13,5.62c-.39,1.55-.39,1.55,0,2.13.19.19.38.58.58.58a12.73,12.73,0,0,0,2.52-2.13,88.07,88.07,0,0,0,11-13.56c2.71-4.07,8.9-14.91,11.23-19.56,2.52-4.84,13.75-28.28,15.49-32a100.32,100.32,0,0,1,6.2-11.43c1.74-2.71,2.13-4.06,1.94-4.64,0-.2.19-.39.38-.59a15.76,15.76,0,0,0,2.72-4.26c.58-1.35,1.16-1.74,1.35-1.74a16.17,16.17,0,0,0,3.1-2.52,17.71,17.71,0,0,1,5.42-2.52,8.83,8.83,0,0,0,1.94-1A19.69,19.69,0,0,1,378,813.4,3.76,3.76,0,0,1,382.69,814.37ZM319.17,890.1a.7.7,0,0,1-.2.58c-.19.39-.38.39-.19-.19S319.17,889.71,319.17,890.1Zm127.44,11c1,0,1.16.19.77.19h-1.74C445.06,901.33,445.64,901.14,446.61,901.14Z" transform="translate(-271.53 -290.14)"/></svg>
